<?xml version="1.0" encoding="UTF-8"?><svg id="Calque_2" xmlns="http://www.w3.org/2000/svg" viewBox="0 0 289.99 330.96"><defs><style>.cls-1,.cls-2,.cls-3{stroke:#000;stroke-width:2px;}.cls-1,.cls-3{stroke-linecap:round;stroke-linejoin:round;}.cls-1,.cls-4{opacity:.4;}.cls-5{opacity:.1;}.cls-6{fill:#f2f2f2;}.cls-7{fill:#0071bc;}.cls-8{fill:#fff;}.cls-9{fill:#ffeb94;}.cls-10{fill:#ffe4b4;}.cls-2{fill:#2873c9;stroke-miterlimit:10;}.cls-3{fill:none;}.cls-11{opacity:.3;}.cls-12{fill:#63c6fa;opacity:.7;}</style></defs><g id="Calque_1-2"><rect class="cls-12" x=".81" y="111.08" width="217.76" height="219.68" rx="108.04" ry="108.04" transform="translate(-95.77 84.44) rotate(-30)"/><path d="M85.55,57.55c.48,0,.48-.75,0-.75s-.48,.75,0,.75h0Z"/><g class="cls-4"><path d="M171.99,224.04c.11,1.85-7.07,4.39-7.07,10.25l-1.18-1.46c-3.45-5.43-17.75-26.86-29.53-34.18l13.86-4.15c9.24,5.96,17.03,27.68,23.92,29.54"/><path d="M171.12,223.8c-.38,1.88-3.94,3.64-5.08,5.15-1.27,1.67-1.84,3.27-2.02,5.33l1.54-.64c-9.9-12.3-17.22-26.93-30.89-35.78l-.21,1.64,10.54-3.15c.56-.17,1.51-.61,2.11-.63,1.71-.07,.07-.59,1.86,.54,2.28,1.45,4.21,4.43,5.71,6.53,3.35,4.69,6.09,9.77,9.33,14.53,1.98,2.91,4.26,6.37,7.75,7.58,1.1,.38,1.57-1.36,.48-1.74-4.89-1.7-7.97-8.69-10.54-12.82-2.98-4.81-5.92-9.93-9.96-13.97-2.98-2.98-3.5-2.87-7.22-1.76-3.51,1.05-7.03,2.1-10.54,3.15-.76,.23-.86,1.22-.21,1.64,13.5,8.74,20.75,23.36,30.53,35.5,.54,.67,1.48,.05,1.54-.64,.32-3.72,2.67-5.28,5.12-7.52,.82-.75,1.68-1.35,1.91-2.49s-1.51-1.61-1.74-.48h0Z"/></g><g class="cls-4"><path d="M189.66,225.5c6.89-1.86,16.77-17.47,30.91-24.79l7.46,7.26c-17.46,12.05-13.86,12.44-30.13,26.31l-1.18,1.46c0-5.86-6.85-7.73-6.74-9.58l-.33-.67Z"/><path d="M189.9,226.37c7.67-2.51,13.45-11.23,19.26-16.4,2.52-2.25,5.16-4.38,8-6.22,.49-.32,3.02-2.31,2.86-2.32,.28,0,.87,.93,1.08,1.05,2.29,1.36,4.37,4.25,6.3,6.12l.18-1.41c-5.78,4.02-11.33,8.19-16.28,13.2s-10.9,9.37-15.21,14.71l1.54,.64c-.45-5.39-5.11-6.45-7.19-10.7-.51-1.04-2.06-.13-1.55,.91,1.87,3.83,6.54,4.93,6.95,9.79,.06,.69,1,1.3,1.54,.64,4.15-5.15,9.95-9.35,14.62-14.11,5.03-5.13,10.6-9.42,16.5-13.52,.46-.32,.62-.98,.18-1.41-2.49-2.42-4.98-4.84-7.46-7.26-.29-.29-.73-.33-1.09-.14-6.35,3.43-11.75,8.12-16.89,13.14-3.98,3.89-8.33,9.76-13.8,11.55-1.1,.36-.63,2.1,.48,1.74Z"/></g><path class="cls-1" d="M202.25,248.92c3.3,3.46,1.1,12.69-4.41,6.92"/><g class="cls-4"><path d="M196.85,82.17c1.45,0,1.45-2.25,0-2.25s-1.45,2.25,0,2.25h0Z"/></g><g class="cls-4"><path d="M148.76,76.45c.51-.85,1.7-.79,2.65-1,3.42-.75,4.17-5.33,4.18-8.92,3.23,1.88,7.31,1.4,10.8,.08,3.49-1.32,6.66-3.41,10.15-4.73,3.34-1.26,6.9-1.8,10.45-2.03"/></g><path class="cls-4" d="M214.83,110.77c-6.24-.57-11.93-.78-14.94-3.45-.56-.49-1.78-1.57-1.5-2.71,.23-.96,1.41-1.45,1.82-1.61,3.17-.68,9.92-1.61,17.91,.58"/><g class="cls-4"><path d="M165.07,125.88c5.79,0,5.8-9,0-9s-5.8,9,0,9h0Z"/></g><path class="cls-4" d="M164.71,110.02c5.03-.1,12.54-.17,15.2-2.39,.37-.31,1.24-1.03,1.27-2.08,.04-1.13-.89-1.98-1.21-2.24-3.11-.9-9.77-2.31-17.9-.69-6.33,1.26-10.24,3.41-13.1,5.66-.05,.13-.43,1.15,.17,2.08,.62,.97,11.44-.25,15.56-.34Z"/><g class="cls-4"><path d="M176.39,149.97c5.75,4.94,13.09,5.16,18.96,.57"/><path d="M175.86,150.5c2.78,2.35,6.15,3.93,9.83,4.07s7.17-1.18,10.04-3.38c.76-.58,0-1.88-.76-1.3-2.6,2-5.69,3.25-9.01,3.19s-6.5-1.5-9.04-3.64c-.73-.62-1.8,.44-1.06,1.06h0Z"/></g><g class="cls-4"><path d="M153.72,178.29c7.44,9.84,20.17,15.75,32.84,15.24"/><path d="M153.07,178.67c7.83,10.24,20.64,16.06,33.49,15.61,.96-.03,.97-1.53,0-1.5-12.28,.43-24.69-5.05-32.19-14.87-.58-.76-1.88-.01-1.3,.76h0Z"/></g><g class="cls-4"><path d="M147.78,155.9c1.01-7.25,2.02-13.47,3.03-20.73"/><path d="M148.5,156.1c.97-6.92,2.07-13.81,3.03-20.73,.13-.94-1.31-1.35-1.45-.4-.97,6.92-2.07,13.81-3.03,20.73-.13,.94,1.31,1.35,1.45,.4h0Z"/></g><g class="cls-4"><path d="M156.34,100.66c4.65-7.21,12.86-11.87,21.3-12.1"/><path d="M157.32,101.23c4.46-6.82,12.16-11.27,20.33-11.54,1.44-.05,1.45-2.3,0-2.25-8.98,.3-17.36,5.16-22.27,12.66-.8,1.22,1.15,2.34,1.94,1.14h0Z"/></g><g class="cls-4"><path d="M149.45,77.73c1.81,2.81,1.86,6.47,1.09,9.74-.76,3.27-2.26,6.31-3.37,9.47-1.42,4.01-2.23,8.25-2.4,12.51"/><path d="M148.48,78.3c2.87,4.69,.77,10.28-1.08,14.93-2.09,5.26-3.49,10.55-3.75,16.23-.07,1.45,2.18,1.44,2.25,0,.14-3.06,.59-6.09,1.38-9.05s1.91-5.54,2.96-8.28c1.82-4.77,3.02-10.32,.18-14.96-.75-1.23-2.7-.1-1.94,1.14h0Z"/></g><g class="cls-4"><path d="M146.3,117.63c.49,3.75,1.93,7.37,4.14,10.4,1.44-5.26,2.87-10.53,4.31-15.79"/><path d="M145.21,117.93c.52,3.84,1.99,7.52,4.25,10.67,.54,.75,1.78,.73,2.06-.27,1.44-5.26,2.87-10.53,4.31-15.79,.38-1.4-1.79-2-2.17-.6-1.44,5.26-2.87,10.53-4.31,15.79l2.06-.27c-2.17-3.01-3.52-6.46-4.02-10.13-.08-.61-.85-.93-1.38-.79-.65,.17-.87,.78-.79,1.38h0Z"/></g><g class="cls-4"><path d="M186.94,59.95c-3.55,.23-7.11,.76-10.45,2.03-3.49,1.32-6.66,3.4-10.15,4.73s-7.57,1.8-10.8-.08c0,3.58-.76,8.17-4.18,8.92-.95,.21-2.14,.14-2.65,1"/><path d="M186.94,58.83c-2.72,.19-5.45,.52-8.09,1.22s-5.15,1.87-7.6,3.12c-4.53,2.31-10.14,5.23-15.14,2.49-.75-.41-1.69,.1-1.69,.97-.02,2.13-.15,4.6-1.37,6.42-1.32,1.97-3.89,1.09-5.3,2.92-.88,1.15,1.07,2.27,1.94,1.14,.35-.45,1.47-.36,1.98-.48s1.01-.32,1.46-.58c.93-.55,1.66-1.42,2.16-2.36,1.13-2.14,1.37-4.67,1.38-7.05l-1.69,.97c4.86,2.67,10.35,1,15-1.28,2.61-1.27,5.14-2.73,7.91-3.64,2.93-.96,5.98-1.39,9.05-1.6,1.44-.1,1.45-2.35,0-2.25h0Z"/></g><g class="cls-4"><path d="M187.57,135.63c.39-2.43,.78-4.85,1.18-7.28"/><path d="M189.01,136.03c.39-2.43,.78-4.85,1.18-7.28,.31-1.89-2.58-2.7-2.89-.8-.39,2.43-.78,4.85-1.18,7.28-.31,1.89,2.58,2.7,2.89,.8h0Z"/></g><g class="cls-4"><path d="M160.08,116.02c4.27-1.04,7.05-.92,11.2,1.55"/><path d="M160.28,116.75c1.75-.42,3.56-.73,5.37-.52s3.63,1.04,5.25,2c.83,.49,1.59-.8,.76-1.3-1.82-1.07-3.75-1.92-5.85-2.19-1.99-.25-3.99,.09-5.92,.56-.94,.23-.54,1.67,.4,1.45h0Z"/></g><path class="cls-4" d="M178.99,193.46c7.92,1.05,10.66,0,20.39-1.69-1.41,2.71-4.56,8.02-10.12,11.88-5.52,3.83-10.62,4.3-13.12,4.32-1.73-.14-5.53-.78-9.13-4.32-6.29-6.18-6.72-16.04-6.77-17.51"/><g class="cls-4"><path d="M154.87,195.74c2.02-2.07,4.23-6.15,3.96-9.45"/><path d="M155.51,196.38c2.49-2.67,4.39-6.37,4.22-10.09-.05-1.15-1.85-1.16-1.8,0,.14,3.25-1.52,6.48-3.69,8.81-.79,.85,.48,2.12,1.27,1.27h0Z"/></g><g class="cls-4"><path d="M216.34,203.65c1.93,0,1.93-3,0-3s-1.93,3,0,3h0Z"/></g><rect class="cls-2" x="51.81" y="1" width="237.18" height="230.38" rx="114.18" ry="114.18"/><path class="cls-10" d="M135.76,166.48c.28,3.36-8.96,17.03-10.98,19.14,4.55,14.92,17.63,25.75,33.05,27.4,16.37,1.75,32.3-7.14,39.45-22.13-1.87-3.22-3.81-7.34-5.58-12.22-1.8-4.93-3.18-9.99-3.12-12.97l.16-2.37c-14.02,13.24-36.98,13.6-51.84,1.53l-1.14,1.62Z"/><path class="cls-7" d="M91.83,259.18c24.98,4.3,50.04,7.79,75.03,11.97,30.04,5.03,65.18,11.4,94.59,19.75l-3-29c-4.45-24.89-3.99-34.82-14-48-10.44-13.75-35.43-20.63-47.44-31.94l-10.11,9.65c-3.7,4.9-14.91,3.23-16.91,4.23,0,0-2,9-5,13-4.06,5.41-13.07,2.46-14.76,.1-.94-1.31-1.92-9.66-4.24-12.1-6.07-6.39-16.03-9.82-19.08-20.92l-3.46-.77c-19.19,7.54-35.23,13.9-47,21.75-9,6-22.02,32.26-31,52,12.32,2.97,33.97,8.01,46.38,10.28Z"/><path d="M124.59,174.2c-14.98,6-31.05,11.47-44.99,19.65-16.81,9.87-22.41,30.57-30.77,47.02-.42,.82,.82,1.55,1.24,.73,8.52-16.78,14.14-37.5,31.52-47.23,13.62-7.63,28.91-12.99,43.38-18.78,.85-.34,.48-1.73-.38-1.39h0Z"/><path d="M195.95,182.87c14.25,11.99,34.15,16.43,46.72,30.55,11.85,13.31,11.9,31.98,15.08,48.61,.17,.91,1.56,.52,1.39-.38-3.07-16.08-3.21-33.94-13.82-47.3-12.39-15.6-33.48-19.99-48.35-32.5-.7-.59-1.73,.42-1.02,1.02h0Z"/><path class="cls-3" d="M163.1,240.54c2.82-.22,3.91,4.66,.11,4.93"/><path d="M173.56,62.57c1.45,0,1.45-2.25,0-2.25s-1.45,2.25,0,2.25h0Z"/><path class="cls-9" d="M125.47,56.85c.51-.85,1.7-.79,2.65-1,3.42-.75,4.17-5.33,4.18-8.92,3.23,1.88,7.31,1.4,10.8,.08,3.49-1.32,6.66-3.41,10.15-4.73,3.34-1.26,6.9-1.8,10.45-2.03,17.59-1.14,35.53,5.32,48.54,17.49,3.24,3.03,6.26,6.52,7.61,10.79,.44,.77,1.11,2.16,1.25,4.01,.08,1.09-.04,2.02-.18,2.7,.02,1.04,.24,2.54,0,4.29-.96,7.04-.54,14.44-2.89,21.13-9.06,25.76-9.06,12.29-10.08,7.11l.22-20.5c-.31-5.77-1.21-12.43-6.01-15.46-2.93-1.86-6.66-1.82-10.04-1.13-3.38,.69-6.64,1.99-10.05,2.48-6.28,.91-12.62-.95-18.52-3.32l-9.14-.99c-8.44,.22-16.64,4.89-21.3,12.1l-1.6,11.59c-1.44,5.26-2.87,10.53-4.31,15.79-2.21-3.03-3.65-6.65-4.14-10.4-.5-.34-1.53-1.15-2.11-2.58-1.11-2.74,.41-5.31,.58-5.6,.24-5.58,1.42-9.73,2.4-12.51,1.12-3.16,2.61-6.2,3.37-9.47,.5-2.14,.6-5.37-1.09-9.74"/><path class="cls-10" d="M126.35,111.34c-1.01,6.59-2.11,11.09-2.56,15.52-.82,3.9-1.71,10.97,.7,19.25,1.62,5.59,4.2,9.84,6.25,12.65,2.03,2.65,6.59,7.81,14.46,11.44,5.7,2.63,12.05,3.97,18.38,3.72,12.67-.51,22.39-5.24,29.01-15.59,1.63-1.98,3.23-4.17,4.73-6.58,7.87-12.57,9.55-25.26,9.65-34,.49-2.09,.93-4.34,1.31-6.73,.35-2.26,.62-4.52,.81-6.8l-.66-19c-.31-5.25-1.21-11.29-6.01-14.05-2.93-1.69-6.66-1.66-10.04-1.03-3.38,.63-6.64,1.81-10.05,2.25-6.28,.82-12.62-.87-18.52-3.01-1.25-.19-2.55-.36-3.91-.51-1.83-.19-3.58-.32-5.23-.4-2.37,.08-7.04,.52-12.07,3.12-3.69,1.9-6.9,4.6-9.23,7.88-.92,4.3-1.85,8.62-2.8,12.95-1.39,6.34-2.79,12.64-4.22,18.9Z"/><path d="M190.17,107.39c5.79,0,5.8-9,0-9s-5.8,9,0,9h0Z"/><path d="M191.54,91.16c-6.24-.57-11.93-.78-14.94-3.45-.56-.49-1.78-1.57-1.5-2.71,.23-.96,1.41-1.45,1.82-1.61,3.17-.68,9.92-1.61,17.91,.58,6.2,1.7,9.9,4.12,12.55,6.57,.04,.13,.32,1.18-.35,2.06-.7,.92-11.38-1.06-15.48-1.44Z"/><path d="M142.78,106.27c5.79,0,5.8-9,0-9s-5.8,9,0,9h0Z"/><path d="M141.42,90.42c5.03-.1,12.54-.17,15.2-2.39,.37-.31,1.24-1.03,1.27-2.08,.04-1.13-.89-1.98-1.21-2.24-3.11-.9-9.77-2.31-17.9-.69-6.33,1.26-10.24,3.41-13.1,5.66-.05,.13-.43,1.15,.17,2.08,.62,.97,11.44-.25,15.56-.34Z"/><path d="M154.2,130.98c2.45,2.4,5.61,3.96,9.07,4.03s6.69-1.36,9.32-3.54c.74-.62-.32-1.67-1.06-1.06-2.32,1.93-5.21,3.16-8.26,3.1s-5.85-1.47-8.01-3.59c-.69-.68-1.75,.38-1.06,1.06h0Z"/><path d="M129.78,159.07c11.86,15.51,34.94,20.34,51.95,10.58,4.5-2.59,8.35-6.15,11.6-10.17,.6-.74-.45-1.81-1.06-1.06-5.5,6.82-12.64,11.84-21.25,13.78-9.32,2.1-19.2,.88-27.65-3.6-4.76-2.52-9-6-12.28-10.28-.58-.76-1.88-.01-1.3,.76h0Z"/><path d="M125.48,133.45c.43-6.05,2.5-11.82,2.8-17.88,.05-.96-1.45-.96-1.5,0-.14,2.92-.69,5.74-1.34,8.59-.7,3.07-1.24,6.15-1.46,9.29-.07,.96,1.43,.96,1.5,0h0Z"/><path d="M134.03,81.62c4.46-6.82,12.16-11.27,20.33-11.54,1.44-.05,1.45-2.3,0-2.25-8.98,.3-17.36,5.16-22.27,12.66-.8,1.22,1.15,2.34,1.94,1.14h0Z"/><path d="M163.2,71.04c3.76,1.49,7.61,2.77,11.63,3.31s7.77,.15,11.62-.9,7.41-2.36,11.27-1.87c3.39,.43,5.9,2.49,7.31,5.54s1.77,6.82,1.96,10.27c.08,1.44,2.33,1.45,2.25,0-.33-5.98-1.22-13.56-7.11-16.75-3.39-1.83-7.41-1.61-11.06-.78-4.35,.99-8.44,2.62-12.97,2.51-4.96-.11-9.75-1.69-14.32-3.5-1.35-.53-1.93,1.64-.6,2.17h0Z"/><path d="M212.87,114.76c5.16-3.64,5.74-10.4,6.53-16.15,.54-3.93,1.08-7.86,1.62-11.79s.91-7.72,1.65-11.52c.28-1.41-1.89-2.02-2.17-.6-.68,3.48-1.04,7.03-1.52,10.54-.52,3.77-1.03,7.53-1.55,11.3-.73,5.3-.84,12.85-5.7,16.28-1.17,.83-.05,2.78,1.14,1.94h0Z"/><path d="M125.19,58.7c2.87,4.69,.77,10.28-1.08,14.93-2.09,5.26-3.49,10.55-3.75,16.23-.07,1.45,2.18,1.44,2.25,0,.14-3.06,.59-6.09,1.38-9.05s1.91-5.54,2.96-8.28c1.82-4.77,3.02-10.32,.18-14.96-.75-1.23-2.7-.1-1.94,1.14h0Z"/><path d="M121.92,98.33c.52,3.84,1.99,7.52,4.25,10.67,.54,.75,1.78,.73,2.06-.27,1.44-5.26,2.87-10.53,4.31-15.79,.38-1.4-1.79-2-2.17-.6-1.44,5.26-2.87,10.53-4.31,15.79l2.06-.27c-2.17-3.01-3.52-6.46-4.02-10.13-.08-.61-.85-.93-1.38-.79-.65,.17-.87,.78-.79,1.38h0Z"/><path d="M206.98,109.45c-.36,4.81-.97,9.6-1.3,14.41-.07,.96,1.43,.96,1.5,0,.33-4.81,.94-9.6,1.3-14.41,.07-.96-1.43-.96-1.5,0h0Z"/><path d="M220.88,68.34c-2.01-6.08-6.86-10.73-11.75-14.62s-10.48-7.18-16.37-9.61-11.98-3.96-18.24-4.64-13.54-.67-19.86,1.23c-3.72,1.12-7,3.18-10.52,4.75s-7.74,2.57-11.32,.61c-.75-.41-1.69,.1-1.69,.97-.02,2.13-.15,4.6-1.37,6.42-1.32,1.97-3.89,1.09-5.3,2.92-.88,1.15,1.07,2.27,1.94,1.14,.35-.45,1.47-.36,1.98-.48s1.01-.32,1.46-.58c.93-.55,1.66-1.42,2.16-2.36,1.13-2.14,1.37-4.67,1.38-7.05l-1.69,.97c6.05,3.32,12.5-.01,18.01-2.79,3.23-1.63,6.51-2.79,10.09-3.33,3.26-.49,6.61-.6,9.91-.49,12.49,.41,24.77,4.62,34.98,11.8,5.59,3.93,11.83,9.06,14.04,15.76,.45,1.37,2.63,.78,2.17-.6h0Z"/><path d="M165.44,116.34c.39-2.43,.78-4.85,1.18-7.28,.24-1.51-2.07-2.16-2.31-.64-.39,2.43-.78,4.85-1.18,7.28-.24,1.51,2.07,2.16,2.31,.64h0Z"/><g><path class="cls-8" d="M151.22,152.86c.35-1.23,3.88-.73,10.99-1.49,4.39-.47,7.94-1.18,10.26-1.72-.65,1.24-1.37,2.18-1.94,2.83-.8,.9-1.54,1.51-1.96,1.84-.8,.61-1.54,1.04-2.16,1.36-1.52,.8-4.65,2.44-8.41,1.77-3.63-.64-7.15-3.3-6.78-4.59Z"/><path d="M151.58,152.96c.23-.66,1.98-.6,2.49-.64,1.86-.14,3.73-.2,5.59-.34,4.34-.34,8.66-1,12.91-1.97l-.42-.55c-1.91,3.56-5.21,6.07-9.05,7.25-2.32,.71-4.72,.68-7-.17-1.07-.4-2.12-.94-3.03-1.63-.5-.38-1.62-1.21-1.48-1.95,.09-.47-.63-.67-.72-.2-.3,1.63,1.96,2.98,3.12,3.62,2.37,1.32,5.07,1.89,7.75,1.42,4.63-.8,8.86-3.86,11.07-7.97,.16-.29-.1-.62-.42-.55-4.85,1.11-9.78,1.78-14.75,2.08-1.64,.1-3.3,.1-4.93,.34-.71,.11-1.57,.28-1.84,1.05-.16,.46,.57,.65,.72,.2Z"/></g><path class="cls-5" d="M155.7,173.85c7.92,1.05,10.66,0,20.39-1.69-1.41,2.71-4.56,8.02-10.12,11.88-5.52,3.83-10.62,4.3-13.12,4.32-1.73-.14-5.53-.78-9.13-4.32-6.29-6.18-6.72-16.04-6.77-17.51"/><path d="M132.36,176.59c2.33-3.18,4.92-7.56,4.77-11.64-.04-1.15-1.84-1.16-1.8,0,.14,3.76-2.37,7.8-4.53,10.73-.69,.93,.88,1.83,1.55,.91h0Z"/><path d="M186.19,165.56c.02,6.38,2.21,12.38,5.57,17.74,1.02,1.63,3.62,.13,2.59-1.51-3.09-4.93-5.14-10.35-5.16-16.23,0-1.93-3.01-1.93-3,0h0Z"/><path d="M131.92,60.7c1.45,0,1.45-2.25,0-2.25s-1.45,2.25,0,2.25h0Z"/><path class="cls-6" d="M165.23,206.36c-.08,4.15-3.58,8.26-4,10.06-1.81,7.76-1.34,8.89-4,14.53-1.32-4.46-2.65-8.93-4-13.41-1.17-3.9-2.34-7.77-3.52-11.64"/><path d="M153.89,268.85c.96-7.62,2.08-15.21,3.03-22.83,1.03-8.27,1.46-16.59,4.16-24.54,3.02-8.91,6.9-17.51,9.93-26.45h-1.74c1.95,5.69,3.9,11.38,5.85,17.06,.2,.57,1.05,.97,1.5,.4,7.33-9.33,14.67-18.67,22-28,.39-.49,.32-1.04-.18-1.41l-4-3c-.25-.19-.65-.15-.91,0-8,4.63-16.22,9-24,14-.97,.62-.07,2.18,.91,1.55,4.64-2.98,9.5-5.62,14.27-8.37,2.74-1.58,5.75-2.99,8.33-4.82,.95-.67,1.6-.43,.67-.68,1.18,.32,2.81,2.11,3.83,2.87l-.18-1.41c-7.33,9.33-14.67,18.67-22,28l1.5,.4c-1.95-5.69-3.9-11.38-5.85-17.06-.29-.85-1.45-.86-1.74,0-3.14,9.28-7.32,18.22-10.28,27.52-2.38,7.45-2.81,15.15-3.74,22.86s-2.15,15.94-3.16,23.93c-.14,1.15,1.66,1.14,1.8,0h0Z"/><path class="cls-3" d="M162.94,260.91c2.82-.22,3.91,4.66,.11,4.93"/><polyline class="cls-7" points="145.27 194.34 137.27 211.34 123.45 175.9 127.45 172.9 144.27 193.34 145.27 194.34"/><path d="M146.63,194.21c-6.72-6.72-12.44-14.67-18.54-21.95-.23-.27-.8-.36-1.09-.14l-4,3c-.29,.22-.57,.63-.41,1.02,4.85,11.98,9.69,23.97,14.54,35.95,.26,.63,1.28,.99,1.64,.21,2.67-5.67,5.33-11.33,8-17l-1.64-.21c3.81,12.99,8.22,25.89,11.24,39.1,.26,1.13,1.99,.65,1.74-.48-3.02-13.21-7.43-26.11-11.24-39.1-.2-.69-1.3-.95-1.64-.21-2.67,5.67-5.33,11.33-8,17l1.64,.21c-4.77-11.78-9.52-23.57-14.3-35.35-.06-.15-.23-.41-.23-.57-.03,1.42-.31,.56,.84,.04,.86-.39,1.52-1.27,2.34-1.75s-1.25-.67-.42-.12c2.24,1.5,4.26,5.09,5.97,7.13,4.04,4.82,7.85,10.05,12.3,14.5,.82,.82,2.09-.45,1.27-1.27h0Z"/><g><polyline class="cls-7" points="170.2 194.74 176.04 211.81 198.04 183.81 194.04 180.81 172.04 193.52 170.04 194.81"/><path d="M169.33,194.98c1.95,5.69,3.9,11.38,5.85,17.06,.2,.57,1.05,.97,1.5,.4,7.33-9.33,14.67-18.67,22-28,.39-.49,.32-1.04-.18-1.41l-4-3c-.25-.19-.65-.15-.91,0-8,4.63-16.22,9-24,14-.97,.62-.07,2.18,.91,1.55,4.64-2.98,9.5-5.62,14.27-8.37,2.74-1.58,5.75-2.99,8.33-4.82,.95-.67,1.6-.43,.67-.68,1.18,.32,2.81,2.11,3.83,2.87l-.18-1.41c-7.33,9.33-14.67,18.67-22,28l1.5,.4c-1.95-5.69-3.9-11.38-5.85-17.06-.37-1.09-2.11-.62-1.74,.48h0Z"/></g><polygon class="cls-11" points="140.49 208.54 142.7 212.9 149.45 206.9 146.07 196.9 140.49 208.54"/><polygon class="cls-11" points="175.67 208.76 173.46 213.12 166.71 207.12 170.08 197.12 175.67 208.76"/><path d="M184.83,100.66c1.46-.91,3.05-1.73,4.79-1.9,1.95-.2,3.74,.52,5.28,1.68,.39,.29,.76-.36,.38-.65-1.64-1.23-3.59-1.98-5.66-1.78-1.87,.19-3.59,1.02-5.16,2.01-.41,.25-.03,.9,.38,.65h0Z"/><path d="M148.04,99.39c-1.38-1.43-3.12-2.53-5.16-2.57s-4.09,1.03-5.74,2.28c-.38,.29,0,.94,.38,.65,1.51-1.14,3.28-2.16,5.22-2.18s3.5,1.02,4.77,2.35c.33,.35,.86-.18,.53-.53h0Z"/></g></svg>