<?xml version="1.0" encoding="UTF-8"?><svg id="Calque_2" xmlns="http://www.w3.org/2000/svg" viewBox="0 0 271.2 295.79"><defs><style>.cls-1{opacity:.1;}.cls-2{fill:#f4ac00;}.cls-3{fill:#f9c9ff;}.cls-4{fill:#0083df;}.cls-5{fill:#fff;}.cls-6,.cls-7{fill:#ffe4b4;}.cls-8{fill:#da8d19;}.cls-9,.cls-10{fill:#df3a16;}.cls-11,.cls-12,.cls-10,.cls-13,.cls-14{stroke-width:2px;}.cls-11,.cls-12,.cls-13,.cls-15,.cls-7,.cls-16,.cls-17,.cls-18{stroke:#000;}.cls-11,.cls-13,.cls-14,.cls-15,.cls-16,.cls-17,.cls-19,.cls-18{fill:none;}.cls-11,.cls-13,.cls-14,.cls-17,.cls-19,.cls-18{stroke-linecap:round;}.cls-12{fill:#63c6fa;}.cls-12,.cls-10,.cls-15,.cls-7,.cls-16{stroke-miterlimit:10;}.cls-10,.cls-14,.cls-19{stroke:#020303;}.cls-13,.cls-14,.cls-19,.cls-18{stroke-linejoin:round;}.cls-15{stroke-width:.75px;}.cls-16{opacity:.9;}.cls-17,.cls-19,.cls-18{stroke-width:3px;}.cls-20{fill:#007dd4;opacity:.7;}</style></defs><g id="Calque_1-2"><rect class="cls-20" x="1.46" y="132.52" width="157.85" height="163.64" rx="78.92" ry="78.92" transform="translate(-96.4 68.91) rotate(-30)"/><path class="cls-12" d="M152.11,215.5c-58.44,0-105.82-47.38-105.82-105.82h0c0-60.02,48.66-108.68,108.68-108.68h6.56c60.02,0,108.68,48.66,108.68,108.68h0c0,58.44-47.38,105.82-105.82,105.82"/><path class="cls-4" d="M168.84,167.23c-1.68,28.67-3.46,54.61-5.26,77.82,4.76,1.62,9.51,3.28,14.25,4.95,11.61,4.1,23.32,7.93,34.77,12.51,8.8-3.35,17.6-6.69,26.77-8.73,5.55-1.24,11.2-2.21,16.87-3.13-.52-18.67-1-39.25-.7-61.93-2.36-14.99-23.35-24.97-40.15-26.18l-17.37-7.43-11.11-5.9c-1.51-.97-3.05-1.98-4.1-3.48-1.39-1.99-1.72-4.57-2.75-6.79l1.5-3.22c-9.34,14.42-28.09,19.22-40.51,7.78l-3.55-3.06c-1.58,4.41-5.58,10.65-14.58,13.78l-5,2.08c-24,12.5-36,19.78-41.26,44.76-1.46,6.92-2.31,13.96-3.26,20.98,5.88,.85,11.75,1.81,17.59,2.91,14.86,2.79,29.53,6.57,44.05,10.91,3.82-25.04,6.58-48.86,7.96-71.3,1.33,5.54,5.49,9.79,10.64,10.85,6.02,1.25,12.35-2.08,15.2-8.18Z"/><path class="cls-1" d="M142.37,143.5c5.01-1.76,11.12-3.47,18.17-4.57,7.78-1.22,14.7-1.39,20.37-1.14-.84,2.43-2.86,7.29-7.45,11.66-4.56,4.34-9.36,6-11.76,6.65-1.69,.34-5.44,.82-9.56-.96-7.19-3.11-9.46-10.53-9.78-11.64Z"/><path class="cls-6" d="M115.59,89.78c.26,5.24,.78,11.15,1.79,16.3,.73,3.49,1.91,7.61,3.84,12.04,1.11,2.54,2.3,4.8,3.47,6.79,.94,1.91,2.18,3.94,3.64,6.1,.43,.64,.94,1.32,1.63,2.15,1.6,1.85,3.42,3.79,5.48,5.77,2.18,2.1,4.31,3.92,6.32,5.51,1.28,1.01,9.38,7.57,20.41,5.32,7.06-1.44,13.75-5.84,18.21-12.45,2.35-2.22,5.17-5.37,7.68-9.58,1.46-2.46,2.54-4.8,3.33-6.87,.92-2.69,1.83-5.82,2.5-9.36,.67-3.53,1.11-7.01,1.18-9.08l.21-2.46c.12-5.25-.37-11.16-.99-16.37l-10.9-33.19-17.31-6.5-31.78,2.72-16.66,15.96-2.04,27.21Z"/><path class="cls-2" d="M153.32,32.82l-2.55,.17c-3.49,1.62-7.44,2.91-11.18,3.72s-7.76,.74-11.24-.93c.32,.8,.02,1.81-.66,2.29-.78,.55-1.82,.38-2.76,.54-.93,.16-1.94,1.09-1.53,1.98-1.71,.47-3.4,.99-5.08,1.56l-2.74,3.92c-2.89,6.67-7.73,12.38-13.71,16.18,1.47,.37,2.9,.89,4.28,1.55-1.07,2.52-1.89,5.16-2.46,7.86-.16,.76-.29,1.59,.05,2.29,.34,.7,1.35,1.06,1.84,.47,.89,1.77-.59,3.78-.78,5.76-.3,3.2,2.68,5.53,4.74,7.95,2.19,2.58,3.54,5.92,3.78,9.35,.04,.57,.06,1.18,.36,1.65,.3,.48,2.47,.14,2.85-.26,0-4.91-1.03-10.44,.44-17.27,1.19-5.52,2.79-10.28,4.39-14.19,.19-.51,1.3-2.45,3.59-3.99,1.48-.99,3.48-1.35,5-.4,.34,.21,.68,.49,1.08,.49,.84-.01,1.28-1.28,2.12-1.3,.45-.01,.83,.35,1.15,.69,.59,.63,1.19,1.25,1.78,1.88,1.97-3.88,5.16-7.05,8.95-8.92l2.48-1.1c2.29-.76,4.85-.59,7.05,.45l2.67-.07c6.41-4.08,9.94,3.06,14.99,5.39l17.46,9.51c.98,3.03,1.91,6.33,2.73,9.89,1.07,4.64,1.79,8.99,2.27,12.95,.24,.02,.58,.02,.98-.05,.32-.06,.63-.17,.93-.32-.03-2.82-.06-5.63-.09-8.45-.02-1.93-.03-3.92,.6-5.72,.66-1.87,1.91-4.19,.53-5.58-.23-.23-.52-.41-.7-.69-.81-1.35,1.73-2.5,1.73-4.08,0-.78-.65-1.47-.56-2.24,.09-.7,.74-1.15,1.05-1.77,.61-1.23-.24-2.69-1.05-3.8-1.8-2.48-3.61-4.95-5.41-7.43l-1.56-2.61c-.83-1.13-2.11-2.08-1.77-3.12,.28-.84,2.49-2.03,3.15-2.45-6.82-1.67-21.24-6.63-26.09-10.04l-3.7-.64c-3.13-.37-6.26-.75-9.39-1.12"/><path d="M125.5,107.83c1.45,0,1.45-2.25,0-2.25s-1.45,2.25,0,2.25h0Z"/><path d="M170.23,74.32c-.45,.15-3.5,1.21-5.85,.21-.41-.17-1.17-.55-1.43-1.27-.26-.72,.32-1.29,.52-1.48,2.3-.71,7.33-1.89,14.13-1.21,5.29,.53,8.84,1.72,11.57,3.03,.42,.69,.39,1.09,.28,1.33-1.01,2.26-11.39-3.25-19.21-.61Z"/><path d="M115.44,89.84c.28,5.52,.76,11.06,1.82,16.5,.18,.95,1.63,.55,1.45-.4-1.03-5.3-1.49-10.71-1.77-16.1-.05-.96-1.55-.97-1.5,0h0Z"/><path d="M124.65,125.34c2.17,3.29,3.71,6.94,6.52,9.78,.68,.69,1.74-.37,1.06-1.06-2.71-2.74-4.19-6.3-6.29-9.48-.53-.8-1.83-.05-1.3,.76h0Z"/><path d="M193.39,102.64c-.11,3.05-.62,6.11-1.19,9.11s-1.26,6.29-2.48,9.23c-.18,.45,.54,.64,.72,.2,1.25-3.02,1.93-6.29,2.53-9.49,.56-2.98,1.06-6.02,1.17-9.05,.02-.48-.73-.48-.75,0h0Z"/><path d="M114.86,45.19c-2.83,6.43-7.38,11.96-13.3,15.78-.79,.51-.7,1.8,.27,2.06,1.38,.36,2.72,.83,4.01,1.44l-.52-1.27c-1.16,2.78-2.38,5.92-2.63,8.94-.09,1.09,.15,2.27,1.1,2.93s1.99,.58,2.84-.15l-1.88-.5c.61,1.47-.31,2.93-.64,4.37-.26,1.13-.26,2.3,.1,3.41,.8,2.42,2.79,4.17,4.43,6.03,1.95,2.2,3.23,4.92,3.68,7.83,.18,1.18,.01,2.6,.82,3.58,.67,.82,1.86,1.12,2.76,.48,1.17-.83,.05-2.78-1.14-1.94,.29-.21-.31-2.97-.38-3.33-.23-1.13-.57-2.22-1.02-3.28-.91-2.18-2.26-4.01-3.86-5.73-1.35-1.45-3.2-3.13-3.34-5.25-.15-2.36,1.74-4.37,.75-6.76-.33-.8-1.19-1.09-1.88-.5,.11-.09-.11-.53-.13-.8-.02-.41,.13-.92,.22-1.32,.18-.82,.39-1.64,.62-2.45,.48-1.69,1.07-3.34,1.74-4.97,.17-.42-.11-1.08-.52-1.27-1.47-.69-2.98-1.25-4.55-1.66l.27,2.06c6.23-4.01,11.13-9.81,14.11-16.58,.58-1.31-1.36-2.46-1.94-1.14h0Z"/><path d="M194.93,93.41c.83,0,1.52-.21,2.27-.56,.23-.11,.37-.4,.37-.65-.03-2.4-.05-4.8-.08-7.2-.02-2.26-.17-4.59,.56-6.77,.51-1.49,1.37-3.03,1.14-4.66-.09-.63-.36-1.18-.8-1.65-.69-.72-.7-.87-.05-1.69,.72-.91,1.51-1.84,1.24-3.09-.24-1.11-.68-1.47,.06-2.52,.44-.62,.72-1.24,.7-2.01-.06-1.79-1.5-3.33-2.49-4.7-1.42-1.96-2.85-3.91-4.27-5.87-.56-.77-1.86-.02-1.3,.76,1.33,1.82,2.66,3.65,3.99,5.47,.62,.86,1.3,1.69,1.86,2.59,.69,1.1,.95,2.01,.12,3.11-.37,.49-.65,.97-.66,1.61,0,.74,.58,1.37,.55,2.08-.05,1.18-1.54,1.91-1.82,3.05-.38,1.53,1.36,1.97,1.41,3.32,.07,1.72-1.13,3.4-1.47,5.06-.41,2.01-.29,4.1-.27,6.14,.03,2.32,.05,4.64,.08,6.96l.37-.65c-.54,.25-.92,.36-1.51,.35-.97,0-.97,1.49,0,1.5h0Z"/><path d="M150.64,32.03c-3.45,1.58-7.08,2.79-10.78,3.6s-7.46,.77-10.88-.81c-.56-.26-1.3,.17-1.1,.85,.64,2.2-2.33,1.58-3.54,2.13-1.07,.49-1.75,1.51-1.41,2.69l.52-.92c-1.71,.47-3.4,.99-5.08,1.56-.91,.31-.52,1.76,.4,1.45,1.68-.57,3.37-1.09,5.08-1.56,.39-.11,.64-.53,.52-.92-.34-1.16,1.65-1.1,2.24-1.16,.63-.06,1.25-.19,1.78-.58,.97-.72,1.25-1.96,.93-3.08l-1.1,.85c7.42,3.43,16.2,.41,23.18-2.79,.88-.4,.12-1.69-.76-1.3h0Z"/><path d="M166.28,34.86c3.69,2.55,8.15,4.14,12.32,5.69,4.57,1.7,9.22,3.26,13.95,4.43l-.18-1.37c-1.09,.69-2.7,1.37-3.35,2.56-.88,1.61,.94,3.07,1.82,4.19,.59,.76,1.65-.31,1.06-1.06-.41-.53-.96-1.01-1.31-1.58-.39-.64-.26-.91,.26-1.34,.7-.58,1.52-1,2.28-1.48,.53-.33,.47-1.21-.18-1.37-4.62-1.14-9.16-2.66-13.62-4.31-4.17-1.54-8.62-3.12-12.3-5.66-.8-.55-1.55,.75-.76,1.3h0Z"/><path d="M144.9,54.91c-3.97,2-7.17,5.25-9.22,9.19l1.18-.15c-.93-.98-2.29-3.17-3.9-2.72-.63,.18-1.04,1.09-1.6,1.2-.37,.07-.79-.37-1.09-.52s-.66-.28-1-.36c-3.76-.87-6.41,2.49-8.3,5.19-.56,.79,.74,1.54,1.3,.76,1.67-2.38,4.41-5.94,7.69-4.04,.91,.52,1.65,.7,2.53,0,.66-.52,.72-1,1.54-.33,.65,.52,1.21,1.27,1.78,1.88,.32,.34,.96,.27,1.18-.15,1.94-3.73,4.92-6.75,8.68-8.65,.86-.43,.1-1.73-.76-1.3h0Z"/><path d="M157.85,55.48c1.22-.76,2.58-1.29,4.04-1.09,1.29,.17,2.45,.85,3.49,1.58,2.26,1.6,4.17,3.7,6.7,4.9,.87,.41,1.63-.88,.76-1.3-2.74-1.29-4.75-3.66-7.27-5.28-1.18-.75-2.48-1.31-3.88-1.42-1.64-.13-3.22,.46-4.59,1.32-.82,.51-.07,1.81,.76,1.3h0Z"/><path d="M147.95,55.18c2.12-.69,4.45-.57,6.47,.38,.37,.17,.81,.1,1.03-.27,.19-.33,.1-.85-.27-1.03-2.39-1.12-5.11-1.34-7.63-.53-.91,.3-.52,1.74,.4,1.45h0Z"/><path d="M137.22,77.4c.49,.07,3.77,.57,6.02-.85,.39-.25,1.11-.76,1.26-1.52,.15-.76-.53-1.23-.77-1.38-2.47-.29-7.8-.55-14.64,1.35-5.33,1.48-8.76,3.31-11.34,5.1-.32,.76-.22,1.16-.07,1.37,1.39,2.07,11.12-5.3,19.55-4.08Z"/><path d="M149.78,108.52c2.21,1.74,4.89,2.98,7.77,2.64s5.04-1.93,6.82-3.95c.51-.58-.34-1.43-.85-.85-1.56,1.78-3.55,3.27-5.95,3.6-2.54,.35-4.97-.74-6.93-2.28-.6-.47-1.46,.37-.85,.85h0Z"/><path d="M155.18,88.8c.31,3.61,.62,7.23,.93,10.84,.07,.76,1.27,.77,1.2,0l-.93-10.84c-.07-.76-1.27-.77-1.2,0h0Z"/><path class="cls-9" d="M217.07,146.05l-10.87-.96c-4.97-1.02-28.68-2.3-24.44,.96,31.44,24.04,40.44,11.04,64.73,27.23-6.3-13.89-11.73-20.49-29.42-27.23Z"/><path class="cls-5" d="M162.94,244.83l5.52-77.75c-9.49,6.08-18.98,6.08-25.3,0l-3.16,21.26c-2.1,18.65-3.94,34.07-5.72,47.29,9.61,2.86,19.17,5.96,28.67,9.2Z"/><path class="cls-18" d="M214.96,212.37c.85,14.4,2.27,33.8,2.75,48.22"/><path class="cls-14" d="M73.87,217.41c.27-13.95,4.27-27.48,12.27-38.94,9-10.41,20-16.66,32-22.33"/><path class="cls-9" d="M217.05,260.82l-1.93-47.04c0-11.43-7.22-42.87-2.41-57.15l-19.26-5.72c-9.17,21.36,10.45,71.74,21.25,110.8,.78-.3,1.56-.59,2.34-.88Z"/><path class="cls-14" d="M213.2,158.09c-5,12,3,44.57,3,56"/><path class="cls-19" d="M192.7,151.59c-2.32,6.74-3.56,12.31-2.56,19.6,6,30.2,16.18,62,25.56,90.4"/><ellipse class="cls-8" cx="184.69" cy="220.6" rx="6.61" ry="6.01"/><path class="cls-9" d="M256.07,226.28c.51,8.69-.23,17.34,.13,24.81,1.95-.31,3-3,7.03-1.57"/><path class="cls-6" d="M179.62,137.93c-.11,5.15,3.31,7.16,6.02,11.45l-12,11.45c-6.82,7.21-11.46,10.31-21.08,9.22-7.92-.89-17.63-10.08-20.92-19.64l4.96-10.75,43.01-1.75"/><path d="M123.44,155.15c3.68-1.29,7.22-3.23,9.76-6.25,1.85-2.19,3.03-4.74,3.99-7.42,.2-.57-.23-1.23-.79-1.38-.62-.17-1.18,.21-1.38,.79-.81,2.26-1.79,4.51-3.41,6.43-2.3,2.73-5.43,4.5-8.77,5.68-1.36,.48-.77,2.65,.6,2.17h0Z"/><path d="M140.8,144.16c9.46,8.26,23.4,7.61,33.26,.37,2.85-2.09,5.29-4.64,7.29-7.56,.55-.8-.75-1.55-1.3-.76-6.39,9.36-18.55,14.86-29.71,11.58-3.14-.92-6.02-2.55-8.49-4.7-.72-.63-1.79,.42-1.06,1.06h0Z"/><path class="cls-17" d="M142.22,166.49c-2.44,21.3-5.09,42.58-8.04,63.81"/><path class="cls-11" d="M131.64,150.42c15,27.07,28,28.11,54-1.04"/><path class="cls-18" d="M169.14,167.6c-1.54,24.29-3.09,48.57-4.89,72.84"/><path class="cls-18" d="M187.7,211.36c7.66,5.68,2.56,20.84-10.22,11.37"/><path class="cls-1" d="M136.83,140.79c6.81,4.43,10.71,7.84,17.81,8.59,7.83,.83,13-1.04,25-9.37-1.39,2.14-8.62,11.54-14.12,14.58-5.46,3.02-10.4,4.15-12.88,4.16-1.71-.11-5.55-1.37-9.12-4.16-6.22-4.88-6.65-12.65-6.69-13.81Z"/><path d="M177.84,87.57c5.79,0,5.8-9,0-9s-5.8,9,0,9h0Z"/><path d="M172.09,81.33c3.21-2.11,7.09-2.72,10.62-1,.43,.21,.81-.44,.38-.65-3.76-1.84-7.94-1.26-11.38,1-.4,.26-.03,.91,.38,.65h0Z"/><path d="M130.72,91.48c5.79,0,5.8-9,0-9s-5.8,9,0,9h0Z"/><path d="M124.97,85.25c3.21-2.11,7.09-2.72,10.62-1,.43,.21,.81-.44,.38-.65-3.76-1.84-7.94-1.26-11.38,1-.4,.26-.03,.91,.38,.65h0Z"/><path class="cls-16" d="M182.7,144.59c5.71,.01,12.66-.43,19,0,5.37,.36,9,0,15.37,1.46,2.63,.54,11.55,3.56,18.63,10.54,5.44,5.36,8.67,12.56,10,16"/><path d="M179.31,139.35c.63,1.41,.98,2.93,1.53,4.37,.59,1.53,1.4,2.91,2.61,4.03s2.59,1.95,3.94,2.82c1.56,1.01,3.12,2.01,4.68,3.02l-.52-1.27c-.07,.31-.13,.62-.2,.93-.3,1.41,1.86,2.02,2.17,.6,.07-.31,.13-.62,.2-.93,.11-.51-.08-.99-.52-1.27-1.44-.93-2.88-1.86-4.32-2.79-1.31-.85-2.7-1.64-3.85-2.7-2.27-2.09-2.58-5.25-3.79-7.95-.25-.56-1.05-.68-1.54-.4-.57,.33-.65,.99-.4,1.54h0Z"/><path class="cls-13" d="M256.2,250.09c-.16-18.95-1.07-40.15-1-59,.06-17.88-23.06-29.28-39.59-28.7"/><line class="cls-10" x1="216.2" y1="214.09" x2="218.2" y2="261.09"/><path class="cls-5" d="M157.42,136.52c-5.74,.48-7.71-2.37-8.32-3.03-.68-.75-1.27,.06,.46-.58,.86-.32,.53-.89,3.15-1.36,1.29-.23,2.82-1.45,5-1.89,2.76-.55,12.14-5.54,12.67-4.58,.51,.71-2.34,6.04-3.7,7.33s-6.48,3.78-9.26,4.12"/><path class="cls-3" d="M153.69,136.23c1.01-.97,3.41-2.98,7.11-3.79,2.76-.6,5.07-.28,6.38,0-.56,.82-2.12,3.38-5.33,4.11-3.73,.85-6.79,.11-8.17-.32"/><path d="M150.89,132.63c3.54-.81,7.03-1.83,10.43-3.08,1.71-.63,3.41-1.32,5.08-2.05,.86-.38,1.72-.77,2.58-1.17,.75-.35,1.52-.88,2.31-1.11l-.58-.08,.07,.05-.37-.65c-.23,2.02-1.31,4.15-2.26,5.92-1.2,2.25-2.65,4.08-5.1,5-2.57,.96-5.36,1.33-7.98,.34-1.42-.53-2.82-1.27-4.17-1.96-.51-.26-.97-.61-1.47-.88-.15-.2-.19-.15-.09,.14l.19-.11c.32,.03,1.03-.31,1.37-.38,.94-.19,.55-1.64-.4-1.45-.89,.18-2.34,.46-2.63,1.51-.23,.85,.55,1.43,1.18,1.84,1.18,.76,2.5,1.29,3.77,1.89,1.47,.7,2.89,1.27,4.53,1.43,2.44,.24,5.01-.35,7.21-1.39s3.62-2.92,4.75-4.98,2.34-4.54,2.61-6.94c.03-.27-.17-.5-.37-.65-.53-.38-1.15,.08-1.63,.32-.79,.4-1.59,.78-2.4,1.15-1.9,.88-3.83,1.7-5.79,2.44-3.66,1.39-7.41,2.51-11.23,3.38-.94,.21-.54,1.66,.4,1.45Z"/><path d="M173.99,125.13c.41-.72,.4-1.6-.06-2.3s-1.27-1.15-2.13-1.21c-.57-.04-1.14,.11-1.65,.36-.35,.17-.04,.69,.3,.52,.83-.4,1.88-.39,2.6,.24,.62,.54,.83,1.37,.42,2.1-.19,.34,.33,.64,.52,.3h0Z"/><rect class="cls-15" x="119.98" y="72.32" width="25.5" height="26.5" rx="12.75" ry="12.75" transform="translate(218.3 -47.16) rotate(90)"/><rect class="cls-15" x="163.19" y="68.42" width="25.5" height="26.5" rx="12.75" ry="12.75" transform="translate(257.6 -94.27) rotate(90)"/><g><path d="M162.48,83.32c-3.48-1.24-6.3-1.19-8-1-4.2,.47-8.32,2.56-8.22,2.93,.02,.05,.12,.07,.22,.07,2-.77,4.71-1.6,8-2,3.18-.38,5.92-.25,8,0Z"/><path d="M162.58,82.96c-4.75-1.65-9.6-1.32-14.22,.63-.28,.12-3.41,1.38-2.21,2.04,.35,.19,.78-.08,1.11-.2,.58-.21,1.16-.4,1.74-.58,1.29-.39,2.6-.7,3.93-.93,3.15-.54,6.37-.6,9.54-.23,.48,.06,.47-.69,0-.75-2.78-.33-5.58-.32-8.36,.05-1.43,.19-2.84,.46-4.23,.83-.63,.17-1.26,.35-1.89,.56-.2,.07-1.42,.64-1.56,.55l.19,.32c0,.19,.03,.04,.2-.06s.34-.21,.52-.31c.55-.3,1.13-.55,1.71-.78,1.5-.59,3.06-1.05,4.65-1.3,2.92-.47,5.87-.09,8.66,.88,.46,.16,.65-.57,.2-.72Z"/></g><line class="cls-7" x1="188.99" y1="83.88" x2="194.98" y2="92.82"/><line class="cls-7" x1="118.98" y1="85.82" x2="115.98" y2="92.82"/></g></svg>