<?xml version="1.0" encoding="UTF-8"?><svg id="Calque_2" xmlns="http://www.w3.org/2000/svg" viewBox="0 0 300.32 576.64"><defs><style>.cls-1{opacity:.05;}.cls-1,.cls-2,.cls-3,.cls-4,.cls-5{fill:#007dd4;}.cls-6{fill:#352e00;}.cls-6,.cls-2,.cls-7{opacity:.1;}.cls-8{fill:#ffe4b4;}.cls-9{fill:#c45824;}.cls-10{fill:#5f1a00;}.cls-11{fill:#ffaf17;stroke:#5f1a00;stroke-width:2px;}.cls-11,.cls-12,.cls-13{stroke-miterlimit:10;}.cls-12{stroke:#000;stroke-width:.75px;}.cls-12,.cls-13{fill:none;}.cls-13{stroke:#c7b299;stroke-width:.25px;}.cls-13,.cls-14,.cls-3{opacity:.5;}.cls-15{opacity:.3;}.cls-14,.cls-16,.cls-17{fill:#63c6fa;}.cls-16,.cls-4{opacity:.8;}.cls-17,.cls-5{opacity:.3;}</style></defs><g id="Calque_1-2"><rect class="cls-1" x="3.88" y="1.92" width="292" height="292.09" rx="140.81" ry="140.81" transform="translate(94.06 -55.12) rotate(30)"/><rect class="cls-2" x="2.88" y="19.92" width="292" height="292.09" rx="140.81" ry="140.81" transform="translate(102.93 -52.21) rotate(30)"/><rect class="cls-2" x="3.7" y="34.74" width="292" height="292.09" rx="140.81" ry="140.81" transform="translate(110.45 -50.63) rotate(30)"/><rect class="cls-5" x="3.52" y="37.94" width="292" height="292.09" rx="140.81" ry="140.81" transform="translate(112.03 -50.11) rotate(30)"/><rect class="cls-5" x="2.52" y="55.94" width="292" height="292.09" rx="140.81" ry="140.81" transform="translate(120.89 -47.2) rotate(30)"/><rect class="cls-5" x="3.34" y="78.76" width="292" height="292.09" rx="140.81" ry="140.81" transform="translate(132.41 -44.55) rotate(30)"/><rect class="cls-17" x="5.55" y="78.44" width="292" height="292.09" rx="140.81" ry="140.81" transform="translate(132.55 -45.7) rotate(30)"/><rect class="cls-5" x="6.37" y="88.07" width="292" height="292.09" rx="140.81" ry="140.81" transform="translate(137.47 -44.82) rotate(30)"/><rect class="cls-5" x="4.39" y="104.72" width="292" height="292.09" rx="140.81" ry="140.81" transform="translate(145.53 -41.6) rotate(30)"/><rect class="cls-3" x="2.95" y="127.9" width="292" height="292.09" rx="140.81" ry="140.81" transform="translate(156.93 -37.77) rotate(30)"/><rect class="cls-3" x="1.95" y="145.9" width="292" height="292.09" rx="140.81" ry="140.81" transform="translate(165.79 -34.86) rotate(30)"/><rect class="cls-3" x="2.76" y="160.72" width="292" height="292.09" rx="140.81" ry="140.81" transform="translate(173.31 -33.28) rotate(30)"/><rect class="cls-14" x="2.98" y="170.4" width="292" height="292.09" rx="140.81" ry="140.81" transform="translate(178.18 -32.1) rotate(30)"/><rect class="cls-3" x="3.8" y="180.03" width="292" height="292.09" rx="140.81" ry="140.81" transform="translate(183.11 -31.21) rotate(30)"/><rect class="cls-4" x="4.82" y="197.68" width="292" height="292.09" rx="140.81" ry="140.81" transform="translate(192.07 -29.36) rotate(30)"/><rect class="cls-4" x="3.82" y="215.68" width="292" height="292.09" rx="140.81" ry="140.81" transform="translate(200.93 -26.45) rotate(30)"/><rect class="cls-4" x="4.64" y="230.5" width="292" height="292.09" rx="140.81" ry="140.81" transform="translate(208.45 -24.87) rotate(30)"/><rect class="cls-16" x="4.86" y="240.18" width="292" height="292.09" rx="140.81" ry="140.81" transform="translate(213.32 -23.68) rotate(30)"/><rect class="cls-4" x="5.67" y="249.81" width="292" height="292.09" rx="140.81" ry="140.81" transform="translate(218.25 -22.8) rotate(30)"/><rect class="cls-4" x="4.67" y="267.81" width="292" height="292.09" rx="140.81" ry="140.81" transform="translate(227.11 -19.89) rotate(30)"/><rect class="cls-4" x="5.49" y="282.63" width="292" height="292.09" rx="140.81" ry="140.81" transform="translate(234.63 -18.31) rotate(30)"/><rect class="cls-11" x="30.37" y="302.37" width="236.76" height="236.98" rx="116.01" ry="116.01"/><path class="cls-8" d="m174.43,469.59c3-2,1.45-3.47.06-7.21-1.39-3.75-2.21-7.75-3.03-11.72-.41-1.99-.82-3.99-1.23-5.98l-41.81,11.8c-1.79,3-3.26,6.25-5.07,9.22-1.81,2.98-4.03,5.74-6.84,7.28l-2.36.57q2.7,1.86,7.56,5.37c7.56,5.46,19.11,14.3,27.94,13.41,12.57-1.27,19.47-18.33,31.98-20.18"/><path class="cls-7" d="m129.54,457.71c7.31,5.05,8.49,3.89,16.11,4.75,8.41.95,15.04-3.56,25.78-15.42-1.49,2.44-1.07,16.61-11.87,24.82-5.47,4.16-11.18,4.73-13.84,4.74-1.84-.13-5.97-1.56-9.79-4.74-6.68-5.56-6.34-12.82-6.39-14.14Z"/><path class="cls-8" d="m111.7,402.3c.4,2.65.46,5.36.18,8.03-.39,3.7-1.41,7.55-.22,11.06.46,3.39,1.23,7.33,2.57,11.63,1.1,3.55,2.38,6.69,3.65,9.37,1.05,2.9,2.93,7.22,6.6,11.56,2.53,2.99,5.38,5.07,9.43,8.28l2.34,1.75c7.34,3.95,8.75,5.21,20.01,0l1.64-.74c6.38-4.07,12.12-8.37,16.99-14.9,1.81-2.75,2.05-3.04,3.96-6.94,1.55-3.14,3.23-5.24,4.55-9.05,1.19-3.45,2.93-7.44,4.23-12.19,1.08-3.96,1.76-7.83,1.88-11.66l.27-2.35c-3.75-5.21-2.31-9.17-3.06-13.46l-.71-3.54c.25-3.01-1.86-5.81-4.45-7.17-2.59-1.36-5.58-1.57-8.48-1.69-7.76-.33-20.8-.18-30.81-7.99h-5c-3.75,6.51-8.75,10.42-17.51,13.02l-5.14,3.93c-.46,4.11,1.38,5.19-2.37,11.7l-.54,1.37Z"/><path class="cls-10" d="m171.97,350.56c10.31,2.77,15.98,8.66,20.74,16.59,5.72,9.52,8.91,27.76,3.75,34.69l.2,2.57c.25,1.21.75,4.35-.29,7.99-1.18,4.15-2.53,5.44-3.35,6.1l-.32,1.44c-1.71,4.31-4.21,8.84-9.33,13.15l4.43-17.97.26-2.72c-3.66-6.03-1.54-9.61-2.28-14.57,0-1.22.75-1.67,0-2.43-1.21-1.22-1.03-2.29-1.4-2.68-.44-2.68-1.32-6.42-4.34-8.31-2.53-1.57-5.45-1.82-8.28-1.96-7.57-.38-20.3-.21-30.06-9.26l-2.96,1.54-1.92-1.54c-3.66,7.54-6.42,11.89-14.96,14.91-.57.07-3.76,1.67-4.82,2.43-1.7,1.22-1.21,3.65-2.41,4.86,0,2.43.37,1.28.1,3.97-.17,1.69-.73,3.77-2.3,7.01l-.52,1.58c.39,3.07.45,6.2.18,9.29-.38,4.29.19,6.91,1.35,10.98v1.22h-1.56c-1.69-.52-3.61-2.03-4.07-5.47-.11-.8-.13-1.66-.25-2.45-.2-1.27-.65-2.28-1.08-3.27-1.48-3.41-2.86-7.08-3.78-11.26-.92-4.18.99-11.19,1.42-15.7-.26-.8-1.52-4.81-1.52-6.83,0-3.65,1.87-3.23,2.41-4.86,1.21-3.65,1.1-.37,1.1-1.88-1.22-3.02.29-5.11.82-6.53.54-1.42,1.37-2.63,1.96-4.02.77-1.81,1.11-3.9,2.04-5.6.89-1.64,2.23-2.79,3.55-3.91,3.25-2.76,17.26-8.6,23.36-10.11l7.22-.7c.63-.06,1.28-.09,1.92-.09,3.68,0,2.48-.16,7.85.23.91.07,4.74.42,5.63.61,2.13.47,6.87,1.53,9,2,1,1,2,1,2.55.97Z"/><path d="m162.5,394.66c-.53.1-4.09.83-6.67-.34-.45-.2-1.28-.63-1.5-1.34-.23-.71.48-1.21.73-1.36,2.69-.46,8.51-1.12,16.18.14,5.97.99,9.88,2.46,12.86,3.95.42.7.33,1.08.19,1.29-1.36,2.07-12.63-4.15-21.78-2.35Z"/><path d="m166.37,410.13c5.4,0,5.41-8.4,0-8.4s-5.41,8.4,0,8.4h0Z"/><path d="m131.7,394.88c.53.1,4.09.83,6.67-.34.45-.2,1.28-.63,1.5-1.34.23-.71-.48-1.21-.73-1.36-2.69-.46-8.51-1.12-16.18.14-5.97.99-9.88,2.46-12.86,3.95-.42.7-.33,1.08-.19,1.29,1.36,2.07,12.63-4.15,21.78-2.35Z"/><path d="m146.89,413.68c-.54,3.76-1.42,7.41-2.5,11.05-.11.37.47.53.58.16,1.08-3.63,1.96-7.29,2.5-11.05.05-.38-.52-.54-.58-.16h0Z"/><path d="m181.57,437.47c1.79-3.03,3-6.41,4.05-9.76,1.32-4.2,2.35-8.51,3.12-12.84.23-1.31.36-2.29-.21-3.5-.86-1.83-1.55-3.75-1.91-5.75-.47-2.62-.1-5.18-.08-7.81,0-.97-1.49-.97-1.5,0-.02,2.5-.35,4.94,0,7.43.24,1.66.7,3.27,1.31,4.84.31.8.94,1.72,1.1,2.51.1.52-.03,1.16-.12,1.66-.73,4.13-1.7,8.23-2.91,12.25-1.06,3.5-2.28,7.04-4.14,10.2-.49.83.8,1.59,1.3.76h0Z"/><path d="m142.11,373.9c5.15,4.59,11.52,7.24,18.28,8.39,2.85.49,5.74.74,8.63.89,2.57.13,5.59-.18,8.03.7,1.76.63,3.38,1.73,4.38,3.32,1.15,1.81,1.76,3.93,2.42,5.95.3.91,1.75.52,1.45-.4-.99-3.01-1.95-6.59-4.62-8.58s-5.26-2.21-8.37-2.34c-6.11-.26-12.23-.63-18.08-2.6-4.09-1.38-7.85-3.51-11.07-6.39-.72-.64-1.78.42-1.06,1.06h0Z"/><path d="m183.58,433.8c2.37-.84,4.01-3.06,5.29-5.11,1.49-2.38,2.64-4.96,3.67-7.57.36-.9-1.09-1.29-1.45-.4-.94,2.38-2.01,4.72-3.34,6.91-1.08,1.78-2.52,4-4.58,4.73-.9.32-.52,1.77.4,1.45h0Z"/><path d="m170.73,351.81c8.74,2.39,16,7.45,20.84,15.16,4.31,6.86,6.32,15.54,6.35,23.59.01,3.77-.36,8.01-2.64,11.15-.57.78.73,1.53,1.3.76,2.06-2.84,2.64-6.56,2.8-9.98.21-4.42-.35-8.89-1.34-13.19-1.96-8.44-6.03-16.35-12.83-21.91-4.12-3.37-8.96-5.62-14.08-7.02-.93-.25-1.33,1.19-.4,1.45h0Z"/><path d="m136.3,372.51c-1.76,3.51-4.03,6.73-6.96,9.37-3.09,2.77-6.78,4.74-10.68,6.1-.91.32-.52,1.77.4,1.45,4.08-1.42,7.91-3.45,11.16-6.32s5.53-6.15,7.38-9.83c.43-.86-.86-1.62-1.3-.76h0Z"/><path d="m140.14,373.54c.67,5.8,4.1,11.72,9.78,13.84.45.17.65-.56.2-.72-5.33-1.99-8.6-7.68-9.23-13.12-.05-.47-.81-.48-.75,0h0Z"/><path d="m139.05,375.11c.3,2.05-.32,4.06-1.5,5.73-.11.16.15.31.26.15,1.22-1.75,1.84-3.83,1.53-5.96-.03-.19-.32-.11-.29.08h0Z"/><path d="m118.57,442.62c-.76-1.55-1.37-3.17-1.97-4.78-.53-1.42-1.14-2.84-1.61-4.28s-.8-2.82-1.21-4.22c-.13-.46-.86-.27-.72.2.4,1.42.76,2.86,1.22,4.26.5,1.54,1.15,3.06,1.72,4.58s1.19,3.13,1.93,4.63c.21.43.86.05.65-.38h0Z"/><path d="m165.96,457.35c-3.44,2.71-6.99,5.35-10.84,7.46-2.33,1.28-4.86,2.41-7.52,2.73-3.79.46-7.22-1.2-10.44-3.02-3.57-2.03-6.69-4.71-9.62-7.58-.35-.34-.88.19-.53.53,4.19,4.1,8.81,7.78,14.32,9.94,4.4,1.73,8.74.78,12.87-1.27,4.42-2.2,8.42-5.21,12.29-8.26.38-.3-.16-.83-.53-.53h0Z"/><path d="m106.86,377.7c-1.55-4.1,2.22-8.03,3.44-11.75.79-2.4,1.5-4.47,3.4-6.24.91-.85,1.85-1.61,2.91-2.25,5.12-3.11,10.93-5.44,16.63-7.2,2.6-.81,5.72-1.86,8.49-1.44.94.14,1.35-1.3.4-1.45-2.63-.4-5.4.33-7.91,1.04-3.45.97-6.81,2.26-10.1,3.67-2.76,1.18-5.53,2.45-8.11,4-3.16,1.89-5.54,4.5-6.69,8.04-.87,2.69-2.15,5.09-3.32,7.65-.97,2.12-1.43,4.08-.58,6.34.34.89,1.79.51,1.45-.4h0Z"/><path class="cls-13" d="m136.49,353.68c-10.18,5.43-11.02,1.98-18.04,9.56-7.24,7.81-4,9.98-8.88,17.02"/><path class="cls-6" d="m175.64,357.74c.67,3.83,1.26,7.93,1.72,12.28.29,2.74.51,5.39.67,7.95,1.18,5.67,5.63,9.42,10.16,9.07,3.45-.27,6.56-2.88,8.09-6.69-.35-2.49-1.5-8.51-5.92-13.98-5.61-6.96-12.69-8.33-14.71-8.64Z"/><path d="m113.11,402.38c-.4,1.21-.92,2.38-1.41,3.56-.37.87-.57,1.32-.38,2.21.47,2.18.63,4.32.5,6.54-.15,2.49-.49,5-.29,7.5s.74,4.97,1.18,7.44l.72-.95c-1.12,0-1.77-.16-2.7-.86-1.47-1.11-2.27-2.77-2.48-4.57s-.4-3.36-1.12-5.03c-.8-1.86-1.61-3.71-2.3-5.62s-1.36-4.05-1.8-6.12c-.33-1.59-.25-3.24-.1-4.85.34-3.58,1.21-7.08,1.58-10.65.1-.96-1.4-.95-1.5,0-.41,3.94-1.44,7.8-1.67,11.76s1.17,8.11,2.65,11.89c.77,1.98,1.87,3.91,2.41,5.97.49,1.87.28,3.77,1.12,5.57.65,1.39,1.73,2.58,3.05,3.35.98.58,1.77.67,2.87.67.52,0,.81-.48.72-.95-.42-2.4-.97-4.8-1.14-7.23s.18-5,.32-7.5c.12-2.1-.01-4.15-.44-6.21-.06-.28-.22-.66-.2-.95s.44-.92.6-1.32c.45-1.07.91-2.14,1.28-3.24.3-.92-1.15-1.31-1.45-.4h0Z"/><path class="cls-9" d="m68.52,531.73c5.99.98,8.31,5.1,14.3,6.08.58-6.26.84-9.39.78-9.4-.07,0-.47,3.29-1.22,9.9,9.85,2.15,19.68,4.47,29.6,6.09,12.12,1.44,24.3,2.51,36.31,4.64,8.49,1.5,16.83,3.75,25.3,5.36,2.48.17,4.96.22,7.44.14,1.52-.39,3.02-.84,4.51-1.33,10.7-5.69,20.12-13.47,29.93-20.63,3.84-2.81,7.82-5.36,11.84-7.86-.01-.6-.03-1.2-.04-1.81-.28-11.43-1.07-21.8-4.84-32.34-3.77-10.54-9-13-19-15l-6-1c-2.77-.11-10-2-18-6-2.83-1.41-6.46,2.03-3-1-8,7-15.1,20.73-27.9,21.44-10.1.56-20.1-9.44-29.44-18.23l-12.66,1.8c-27,2-40,20-44,47l-1,6c1.54.24,5.55,5.91,7.1,6.14Z"/><path d="m93.6,503.31c-2.67,4.93-5.7,9.68-7.92,14.84-2.73,6.34-4.08,13.06-4.5,19.94-.06.96,1.44.96,1.5,0,.42-6.81,1.78-13.5,4.55-19.76,2.19-4.95,5.1-9.52,7.67-14.27.46-.85-.83-1.61-1.3-.76h0Z"/><path d="m106.43,472.21c-9.21.03-18.05,3.1-25.17,8.96-7.74,6.36-12.95,15.33-16.14,24.72-2.16,6.37-3.43,13.01-4.07,19.69-.05.48.7.48.75,0,1.87-19.58,10.18-41.69,29.72-49.75,4.73-1.95,9.8-2.86,14.9-2.88.48,0,.48-.75,0-.75h0Z"/><path d="m200.05,519.59c.45,7.98.98,16.01,1,24,0,.48.75.48.75,0-.02-7.99-.55-16.02-1-24-.03-.48-.78-.48-.75,0h0Z"/><path d="m197.43,474.96c7.04.49,14.56,2.02,19.58,7.39,5.3,5.67,7.54,13.98,8.66,21.45.82,5.47,1.03,11,1.2,16.52.01.48.76.48.75,0-.3-10.08-.79-20.47-4.78-29.88-2.44-5.76-6.1-10.69-11.94-13.31-4.23-1.9-8.88-2.6-13.47-2.93-.48-.03-.48.72,0,.75h0Z"/><path class="cls-13" d="m194.09,378.37c-3.66-12.78-8.66-15.78-11.1-17.84-6.78-5.73-14-6.96-17.02-7.33"/><path class="cls-13" d="m135.78,365.1c-10.54,4.87-13.78,3.78-18.1,9.21-5.56,6.99-4.32,11.94-8.82,17.38"/><path d="m172.9,451.58c2.5-2.83,4.25-6.19,6.16-9.42.25-.42-.4-.79-.65-.38-1.88,3.17-3.59,6.49-6.05,9.27-.32.36.21.89.53.53h0Z"/><path class="cls-12" d="m127.52,458.07c-2.15,2.97-3.21,6.92-5.83,10.27-1.23,1.57-1.27,1.6-2.42,2.59,3.74,2.27,13.66,17.16,27.66,18.16,16-1,19.89-14.91,28.76-20.41,2.16-1.34-1.23-6.23-2.14-9.22-.8-2.64-1.37-5.12-1.79-7.37"/><path d="m160.64,404.02c3.68-1.96,7.92-2.18,11.54.05.41.25.79-.39.38-.65-3.85-2.37-8.39-2.13-12.3-.05-.43.23-.05.87.38.65h0Z"/><path d="m131.13,402.97c-4.05-1.69-8.59-1.48-12.15,1.21-.38.29,0,.94.38.65,1.73-1.3,3.75-2.11,5.93-2.21,1.94-.09,3.86.33,5.65,1.08.44.19.64-.54.2-.72h0Z"/><path d="m124.95,410.45c5.4,0,5.41-8.4,0-8.4s-5.41,8.4,0,8.4h0Z"/><path d="m119.22,404.33c3.68-1.96,7.92-2.18,11.54.05.41.25.79-.39.38-.65-3.85-2.37-8.39-2.13-12.3-.05-.43.23-.05.87.38.65h0Z"/><path d="m160.3,403.55c3.8-2.01,8.57-1.88,12.23.38.41.25.79-.39.38-.65-3.89-2.4-8.95-2.51-12.98-.38-.43.23-.05.87.38.65h0Z"/><path d="m152.14,432.62c-1.93.74-3.96,1.39-6.06,1.23-1.41-.11-2.74-.6-4.07-1.04-.37-.12-.53.46-.16.58,3.77,1.25,6.66,1.26,10.45-.2.36-.14.2-.72-.16-.58h0Z"/><path class="cls-7" d="m146.8,415.76c-.98,1.53,1.03-2.86-.37-1.17-.81.97-3.19,6.9-4,8-.07.45,0,2,1,2,.84,0,1.4.02,1.45,0,1.18-2.9.74-5.93,1.93-8.83Z"/><path d="m139.11,451.1c6.96,2.41,12.53,1.06,18.22-3.51.3-.24-.13-.66-.42-.42-5.51,4.43-10.88,5.7-17.64,3.36-.37-.13-.52.45-.16.58h0Z"/><path class="cls-15" d="m81.43,538.59c1.78-25,13.13-32.42,13.02-35.68-.4,3.54-15.13,22.68-16.02,33.68.87-.32,2.54,2.38,3,2Z"/><path d="m139.41,450.65c6.58,2.4,12.34,1.18,17.76-3.23.06-.05-.03-.13-.08-.08-5.39,4.39-11.12,5.58-17.64,3.2-.07-.03-.1.09-.03.12h0Z"/></g></svg>