<svg width="131" height="131" viewBox="0 0 131 131" fill="none" xmlns="http://www.w3.org/2000/svg">
<g filter="url(#filter0_d_401_19)">
<path d="M105.5 8H5V112.5L14.5 122H105.5V8Z" fill="white"/>
<path d="M105.5 8H5V112.5L14.5 122H105.5V8Z" stroke="#2873C9" stroke-width="2" stroke-linecap="round" stroke-linejoin="round"/>
</g>
<g filter="url(#filter1_d_401_19)">
<path d="M111.5 2H11V106.5L20.5 116H111.5V2Z" fill="white"/>
<path d="M111.5 2H11V106.5L20.5 116H111.5V2Z" stroke="#2873C9" stroke-width="4" stroke-linecap="round" stroke-linejoin="round"/>
</g>
<path d="M101.048 43.85L122 20L130 29L108.667 53.75L98 56L101.048 43.85Z" fill="#2873C9"/>
<path d="M101.048 43.85L122 20L130 29L108.667 53.75M101.048 43.85L98 56L108.667 53.75M101.048 43.85L108.667 53.75" stroke="#2873C9" stroke-width="2" stroke-linecap="round" stroke-linejoin="round"/>
<line x1="20" y1="46.5" x2="72" y2="46.5" stroke="#2873C9"/>
<line x1="20" y1="29.5" x2="72" y2="29.5" stroke="#2873C9"/>
<line x1="20" y1="19.5" x2="72" y2="19.5" stroke="#2873C9"/>
<line x1="20" y1="75.5" x2="72" y2="75.5" stroke="#2873C9"/>
<path d="M20 107H11L20 116V107Z" fill="#FFFDFD" stroke="#2873C9" stroke-width="2" stroke-linecap="round" stroke-linejoin="round"/>
<defs>
<filter id="filter0_d_401_19" x="0" y="7" width="110.5" height="124" filterUnits="userSpaceOnUse" color-interpolation-filters="sRGB">
<feFlood flood-opacity="0" result="BackgroundImageFix"/>
<feColorMatrix in="SourceAlpha" type="matrix" values="0 0 0 0 0 0 0 0 0 0 0 0 0 0 0 0 0 0 127 0" result="hardAlpha"/>
<feOffset dy="4"/>
<feGaussianBlur stdDeviation="2"/>
<feComposite in2="hardAlpha" operator="out"/>
<feColorMatrix type="matrix" values="0 0 0 0 0 0 0 0 0 0 0 0 0 0 0 0 0 0 0.25 0"/>
<feBlend mode="normal" in2="BackgroundImageFix" result="effect1_dropShadow_401_19"/>
<feBlend mode="normal" in="SourceGraphic" in2="effect1_dropShadow_401_19" result="shape"/>
</filter>
<filter id="filter1_d_401_19" x="5" y="0" width="112.5" height="126" filterUnits="userSpaceOnUse" color-interpolation-filters="sRGB">
<feFlood flood-opacity="0" result="BackgroundImageFix"/>
<feColorMatrix in="SourceAlpha" type="matrix" values="0 0 0 0 0 0 0 0 0 0 0 0 0 0 0 0 0 0 127 0" result="hardAlpha"/>
<feOffset dy="4"/>
<feGaussianBlur stdDeviation="2"/>
<feComposite in2="hardAlpha" operator="out"/>
<feColorMatrix type="matrix" values="0 0 0 0 0 0 0 0 0 0 0 0 0 0 0 0 0 0 0.25 0"/>
<feBlend mode="normal" in2="BackgroundImageFix" result="effect1_dropShadow_401_19"/>
<feBlend mode="normal" in="SourceGraphic" in2="effect1_dropShadow_401_19" result="shape"/>
</filter>
</defs>
</svg>
