<?xml version="1.0" encoding="UTF-8"?><svg id="Calque_2" xmlns="http://www.w3.org/2000/svg" xmlns:xlink="http://www.w3.org/1999/xlink" viewBox="0 0 1387.2 625.83"><defs><style>.cls-1{opacity:.4;}.cls-1,.cls-2{fill:none;}.cls-3{fill:url(#Ciel);}.cls-4,.cls-5{fill:#f5f5f5;}.cls-6,.cls-7,.cls-8,.cls-9{fill:#1d1d1b;}.cls-10{fill:url(#Orange_Jaune);}.cls-7,.cls-8,.cls-11,.cls-5,.cls-9,.cls-2{stroke:#1d1d1b;stroke-miterlimit:10;}.cls-7,.cls-2{stroke-width:2px;}.cls-8{stroke-width:.25px;}.cls-11{fill:#ececec;}</style><linearGradient id="Orange_Jaune" x1="562.82" y1="129.54" x2="675.08" y2="129.54" gradientUnits="userSpaceOnUse"><stop offset="0" stop-color="#ffee25"/><stop offset=".02" stop-color="#fee820"/><stop offset=".1" stop-color="#fdd60e"/><stop offset=".19" stop-color="#fdca03"/><stop offset=".28" stop-color="#fdc700"/><stop offset=".67" stop-color="#f08f34"/><stop offset=".89" stop-color="#e86031"/><stop offset="1" stop-color="#e2312d"/></linearGradient><linearGradient id="Ciel" x1="111.91" y1="357.19" x2="1106.22" y2="357.19" gradientUnits="userSpaceOnUse"><stop offset="0" stop-color="#cce0f4"/><stop offset=".06" stop-color="#c2dcf2"/><stop offset=".17" stop-color="#a9d2ee"/><stop offset=".31" stop-color="#7fc2e7"/><stop offset=".46" stop-color="#46abdd"/><stop offset=".57" stop-color="#1e9cd7"/><stop offset=".87" stop-color="#0075be"/><stop offset=".99" stop-color="#005b97"/></linearGradient></defs><g id="Calque_1-2"><g><polygon class="cls-1" points="0 0 998.06 0 993.66 554.35 28.77 550.7 0 0"/><g><path class="cls-10" d="M562.82,169.93c37.42-26.93,74.84-53.86,112.26-80.79"/><path class="cls-6" d="M563.13,170.47c14.59-10.5,29.18-21,43.77-31.5s29.18-21,43.77-31.5c8.24-5.93,16.48-11.86,24.72-17.79,.65-.47,.02-1.55-.63-1.08-14.59,10.5-29.18,21-43.77,31.5-14.59,10.5-29.18,21-43.77,31.5-8.24,5.93-16.48,11.86-24.72,17.79-.65,.47-.02,1.55,.63,1.08h0Z"/></g><path class="cls-3" d="M275.22,209.7l70.24-55.28,7.43-1.38,209.4,18.67,2.06-3.81,110.41-79.34,85.82,15.41-25.87,27.82,13.13,57.05,130.32,15.22,19.17,1.55,4.85-.97,22.15-8.08,106.48-43.27c3.83,3.81,13.66,14.63,16.17,31.55,3.82,25.8-12.54,44.39-14.94,47.02,15.86-4.91,31.73-9.82,47.59-14.74,10.85,23.05,24.47,59.94,26.35,106.71,1,24.91-1.56,46.62-5,64-9.24,21.02-19.66,50.54-25,87-5.14,35.15-3.9,65.4-1.31,87.73-12.71,8.3-39.67,23.37-76.69,25.27-22.81,1.17-41.56-3.06-54-7-51.6-4.96-110.39-7.51-175-5-80.89,3.14-152.57,13.5-213,26-62.53,17.75-178.37,40.57-313,6-52.36-13.45-96.23-32.66-131.09-51.55v-37.18l15.65-47.3L275.22,209.7Z"/><g><path class="cls-6" d="M345.46,152.7c68.06,3.64,136.05,8.92,203.87,15.84,17.9,1.82,35.78,3.76,53.67,5.7,100.13,10.85,200.26,21.69,300.39,32.54"/><path class="cls-6" d="M345.46,153.33c72.84,3.91,145.57,9.7,218.12,17.31,72.28,7.58,144.52,15.61,216.78,23.44,41.01,4.44,82.02,8.89,123.04,13.33,.8,.09,.79-1.16,0-1.25-72.79-7.89-145.58-15.77-218.36-23.66-72.12-7.81-144.2-16.06-216.49-22.04-40.98-3.39-82.01-6.18-123.08-8.38-.8-.04-.8,1.21,0,1.25h0Z"/></g><path class="cls-6" d="M904.15,205.64c-10.21,3.06-20.29,6.54-30.33,10.12-11.83,4.21-23.59,8.6-35.32,13.06-11.12,4.23-22.21,8.54-33.29,12.89-8.28,3.25-16.55,6.53-24.81,9.81-4.07,1.61-8.45,3.03-11.44,6.42-1.8,2.04-2.74,4.77-1.36,7.31,1.3,2.4,4.02,3.18,6.58,3.26,1.42,.05,2.84-.11,4.25-.32l-.79-.6c.12,14.01,.23,28.02,.35,42.03,0,.8,1.26,.81,1.25,0-.12-14.01-.23-28.02-.35-42.03,0-.44-.39-.66-.79-.6-2.68,.41-6.29,.77-8.49-1.18-2.77-2.46-1-5.95,1.24-7.98,3.06-2.77,7.16-4.01,10.93-5.51,8.02-3.18,16.04-6.36,24.07-9.51,10.6-4.16,21.23-8.29,31.87-12.34,11.23-4.28,22.49-8.49,33.8-12.54,9.88-3.55,19.81-7,29.84-10.11,1.05-.33,2.1-.65,3.16-.96,.77-.23,.44-1.44-.33-1.21h0Z"/><path class="cls-6" d="M923.46,198.12c28-11.27,55.98-22.59,83.93-33.96,7.84-3.19,15.67-6.38,23.51-9.57,.73-.3,.41-1.51-.33-1.21-27.95,11.4-55.92,22.75-83.91,34.05-7.84,3.17-15.69,6.33-23.53,9.49-.74,.3-.42,1.51,.33,1.21h0Z"/><path class="cls-6" d="M1092.59,132.34c16.1-6.19,32.2-12.38,48.3-18.57,.74-.29,.42-1.49-.33-1.21-16.1,6.19-32.2,12.38-48.3,18.57-.74,.29-.42,1.49,.33,1.21h0Z"/><g><path class="cls-6" d="M853.75,212.41c-4.5-5.77-9.01-11.54-13.51-17.3,1.3-1.26,2.61-2.52,3.91-3.77-3.49-3.76-6.99-7.52-10.48-11.28,5.46,1.09,11.24,.34,16.27-2.11-2.01-1.85-4.02-3.7-6.03-5.54,2.61,1.39,5.86-1.24,6.37-4.24,.51-2.99-.81-5.96-2.09-8.7,1.74-.69,3.48-1.38,5.22-2.07,.13-6.96-4.92-13.66-11.47-15.23,2.56-.51,5.13-1.02,7.69-1.53-2.38-10.41-.44-21.8,5.24-30.74,2.08,2.59,4.8,4.63,7.82,5.86,.65-1.62,1.31-3.25,1.96-4.87,2.22,.8,4.19,2.31,5.58,4.27-1.68,1.79-3.36,3.58-5.05,5.36,2.54,1.65,5.69,2.29,8.64,1.75-.43,1.99-1.51,3.83-3.03,5.13,1.92,.89,3.83,1.77,5.75,2.66-3.01,3.11-.17,9.6,4.08,9.3-1.31,.91-2.62,1.82-3.93,2.74,1.85,2.85,2.1,6.74,.63,9.82,3,.6,6.22-.03,8.8-1.73-2.43,4.75-.47,10.89,3.2,14.69,3.67,3.81,8.68,5.82,13.53,7.73-2.7,5.49,2.18,13.13,8.11,12.7-2.38,6.34-4.76,12.68-7.13,19.01,4.22,5.87,10.32,10.26,17.1,12.33-3.42,2.11-3.58,8.09-.27,10.39-4.21,5.32-.66,14.85,5.9,15.87-2.25,1.49-4.5,2.97-6.75,4.46,.91,1.9,1.94,4.57,2.45,7.89,.88,5.71-.22,10.4-1.02,12.95-11.39,2.66-23.27,5.74-35.58,9.32-12.37,3.6-24.12,7.39-35.24,11.29,.51-2.96,1.02-5.93,1.53-8.89-3.23-.06-6.69-.88-8.82-3.39-2.13-2.52-2.11-7.07,.68-8.75-6.09-6.28-4.96-18.92,2.93-22.44-1.97-2.81-3.93-5.63-5.9-8.44,3.44-8,7.47-15.72,12.04-23.08-2.2-7.18-4.41-14.37-6.61-21.55"/><path class="cls-6" d="M854.19,211.97c-4.5-5.77-9.01-11.54-13.51-17.3v.88c1.3-1.26,2.61-2.52,3.91-3.77,.25-.24,.23-.64,0-.88-3.49-3.76-6.99-7.52-10.48-11.28l-.61,1.04c5.7,1.09,11.51,.32,16.75-2.17,.36-.17,.41-.73,.13-.98-2.01-1.85-4.02-3.7-6.03-5.54l-.76,.98c2.7,1.28,5.54-.51,6.75-3.01,1.7-3.52-.11-7.54-1.62-10.78l-.37,.92c1.74-.69,3.48-1.38,5.22-2.07,.26-.1,.46-.31,.46-.6,.04-7.17-4.9-14.05-11.93-15.83v1.21c2.56-.51,5.13-1.02,7.69-1.53,.34-.07,.51-.46,.44-.77-2.3-10.3-.43-21.32,5.18-30.26l-.98,.13c2.18,2.66,4.93,4.69,8.1,6.02,.34,.14,.66-.16,.77-.44,.65-1.62,1.31-3.25,1.96-4.87l-.77,.44c2.1,.8,3.87,2.17,5.21,3.98l.1-.76c-1.68,1.79-3.36,3.58-5.05,5.36-.28,.3-.22,.76,.13,.98,2.75,1.72,5.92,2.34,9.12,1.82l-.77-.77c-.45,1.92-1.4,3.54-2.87,4.86-.28,.25-.23,.82,.13,.98,1.92,.89,3.83,1.77,5.75,2.66l-.13-.98c-3.23,3.56-.5,10.55,4.52,10.36l-.32-1.16c-1.31,.91-2.62,1.82-3.93,2.74-.27,.19-.41,.55-.22,.86,1.72,2.77,1.98,6.21,.63,9.19-.15,.33-.06,.84,.37,.92,3.25,.58,6.49-.03,9.28-1.79l-.86-.86c-2.31,4.75-.86,10.34,2.32,14.33,3.69,4.63,9.44,6.91,14.79,9.01l-.37-.92c-2.72,5.85,1.93,13.97,8.65,13.64l-.6-.79c-1.45,3.86-2.9,7.73-4.35,11.59-.75,2.01-1.51,4.02-2.26,6.03-.22,.58-.66,1.25-.46,1.87s1.06,1.4,1.45,1.87c4.17,5.05,9.78,8.8,16.03,10.74l-.15-1.14c-3.86,2.54-3.96,8.74-.27,11.47l-.22-.86c-4.3,5.65-.88,15.53,6.28,16.79l-.15-1.14c-2.25,1.49-4.5,2.97-6.75,4.46-.3,.2-.38,.53-.22,.86,3.03,6.37,3.45,13.64,1.36,20.37l.44-.44c-18.85,4.4-37.51,9.6-55.92,15.58-4.98,1.62-9.95,3.3-14.9,5.03l.77,.77c.51-2.96,1.02-5.93,1.53-8.89,.07-.4-.17-.78-.6-.79-3.14-.08-6.88-.86-8.72-3.69-1.42-2.18-1.47-5.74,.9-7.29,.34-.22,.41-.68,.13-.98-5.55-5.86-5.1-17.79,2.81-21.45,.29-.13,.4-.6,.22-.86-1.97-2.81-3.93-5.63-5.9-8.44v.63c3.22-7.48,6.95-14.74,11.19-21.69,.35-.58,.94-1.17,.91-1.87-.03-.95-.66-2.14-.93-3.05-.62-2.03-1.25-4.06-1.87-6.09-1.27-4.14-2.54-8.28-3.81-12.42-.24-.77-1.44-.44-1.21,.33,1.53,5,3.07,10,4.6,14.99,.38,1.25,.77,2.5,1.15,3.75,.32,1.05,.92,2.1,.44,3.12-1.05,2.21-2.56,4.28-3.75,6.42-2.34,4.2-4.5,8.5-6.48,12.89-.41,.9-1.27,2.16-1.38,3.14-.09,.82,1.02,1.85,1.47,2.49,1.5,2.14,2.99,4.29,4.49,6.43l.22-.86c-8.66,4.01-9.11,17.02-3.06,23.42l.13-.98c-2.79,1.82-3.1,5.68-1.66,8.47,1.88,3.63,6.34,4.73,10.1,4.83l-.6-.79c-.51,2.96-1.02,5.93-1.53,8.89-.07,.43,.28,.94,.77,.77,12.74-4.46,25.61-8.55,38.58-12.25,6.66-1.9,13.35-3.7,20.07-5.4,3.16-.8,6.32-1.57,9.49-2.33,.92-.22,2.61-.2,3.11-1.07,.47-.82,.59-2.09,.78-3.01,1.25-6.2,.45-12.61-2.27-18.32l-.22,.86c2.25-1.49,4.5-2.97,6.75-4.46,.41-.27,.42-1.04-.15-1.14-6.42-1.13-9.37-9.91-5.53-14.95,.22-.29,.02-.68-.22-.86-2.92-2.16-2.75-7.32,.27-9.31,.45-.3,.38-.98-.15-1.14-5.92-1.85-11.21-5.38-15.22-10.12-.44-.52-1.28-1.21-1.27-1.91,0-.74,.7-1.86,.96-2.55,.67-1.78,1.33-3.56,2-5.33,1.33-3.56,2.67-7.11,4-10.67,.14-.37-.22-.81-.6-.79-5.7,.28-9.92-6.71-7.57-11.76,.18-.39,.03-.76-.37-.92-4.83-1.9-9.93-3.92-13.51-7.84-3.27-3.57-5.06-9.11-2.84-13.67,.26-.53-.29-1.21-.86-.86-2.5,1.58-5.4,2.19-8.32,1.67l.37,.92c1.53-3.39,1.34-7.28-.63-10.45l-.22,.86c1.31-.91,2.62-1.82,3.93-2.74,.48-.33,.35-1.19-.32-1.16-3.87,.14-6.16-5.44-3.63-8.23,.25-.27,.26-.8-.13-.98-1.92-.89-3.83-1.77-5.75-2.66l.13,.98c1.61-1.45,2.69-3.3,3.19-5.41,.12-.5-.3-.85-.77-.77-2.87,.47-5.71-.16-8.16-1.69l.13,.98c1.68-1.79,3.36-3.58,5.05-5.36,.17-.18,.26-.53,.1-.76-1.55-2.09-3.53-3.62-5.96-4.55-.34-.13-.65,.15-.77,.44-.65,1.62-1.31,3.25-1.96,4.87l.77-.44c-2.97-1.25-5.51-3.22-7.55-5.7-.27-.32-.79-.18-.98,.13-5.79,9.22-7.68,20.6-5.31,31.22l.44-.77c-2.56,.51-5.13,1.02-7.69,1.53-.61,.12-.58,1.06,0,1.21,6.5,1.65,11.05,8,11.01,14.63l.46-.6c-1.74,.69-3.48,1.38-5.22,2.07-.4,.16-.56,.52-.37,.92,1.22,2.62,2.71,5.76,1.91,8.71-.58,2.15-2.99,4.48-5.34,3.37-.6-.29-1.31,.47-.76,.98,2.01,1.85,4.02,3.7,6.03,5.54l.13-.98c-4.91,2.34-10.44,3.07-15.79,2.05-.6-.12-1.05,.57-.61,1.04,3.49,3.76,6.99,7.52,10.48,11.28v-.88c-1.3,1.26-2.61,2.52-3.91,3.77-.26,.26-.21,.62,0,.88,4.5,5.77,9.01,11.54,13.51,17.3,.49,.63,1.37-.26,.88-.88h0Z"/></g><path class="cls-6" d="M502.45,392.04c57.83-15.34,115.02-33.2,172.37-50.24,57.66-17.13,115.3-34.29,172.91-51.57,57.61-17.28,115.19-34.68,172.71-52.28,57.52-17.6,114.99-35.38,172.37-53.44,57.39-18.06,114.69-36.4,171.88-55.08,7.22-2.36,14.44-4.72,21.65-7.09,1.52-.5,.87-2.91-.66-2.41-57.16,18.77-114.44,37.18-171.81,55.32-57.36,18.13-114.8,35.98-172.31,53.62s-115.07,35.08-172.67,52.4-115.24,34.5-172.89,51.64c-57.43,17.07-114.73,34.71-172.45,50.8-7.24,2.02-14.49,3.99-21.75,5.92-1.55,.41-.89,2.82,.66,2.41h0Z"/><path class="cls-6" d="M346.4,153.34c.64,19.14,3.72,38.17,9.17,56.53,.23,.77,1.44,.44,1.21-.33-5.42-18.26-8.49-37.16-9.13-56.2-.03-.8-1.28-.81-1.25,0h0Z"/><path class="cls-6" d="M378.98,421.39l-1.85-4.63c-.24-.59-1.31-.6-1.23,.17,1.79,17.53,3.58,35.07,5.37,52.6,.51,5.02,1.03,10.04,1.54,15.06,.06,.56,.85,.92,1.16,.32,.79-1.52,1.58-3.03,2.37-4.55,.37-.71-.71-1.35-1.08-.63-.79,1.52-1.58,3.03-2.37,4.55l1.16,.32c-1.79-17.53-3.58-35.07-5.37-52.6-.51-5.02-1.03-10.04-1.54-15.06l-1.23,.17,1.85,4.63c.29,.74,1.5,.42,1.21-.33h0Z"/><path class="cls-6" d="M370.59,417.98c3.46,17.88,6.24,35.88,8.32,53.97,.59,5.13,1.12,10.26,1.6,15.4,.07,.79,1.32,.8,1.25,0-1.7-18.16-4.08-36.26-7.15-54.24-.88-5.16-1.82-10.32-2.82-15.46-.15-.79-1.36-.45-1.21,.33h0Z"/><path class="cls-6" d="M393.11,414.14c1.91,18.01,3.82,36.02,5.73,54.03,.54,5.12,1.09,10.24,1.63,15.37,.08,.79,1.33,.8,1.25,0-1.91-18.01-3.82-36.02-5.73-54.03-.54-5.12-1.09-10.24-1.63-15.37-.08-.79-1.33-.8-1.25,0h0Z"/><path class="cls-6" d="M368.33,393.43c-1.89-20.63-3.78-41.26-5.67-61.89-.07-.79-1.32-.8-1.25,0,1.89,20.63,3.78,41.26,5.67,61.89,.07,.79,1.32,.8,1.25,0h0Z"/><path class="cls-6" d="M363.15,337.89c-3.25-29.57-6.5-59.14-9.75-88.71-.91-8.26-1.82-16.52-2.72-24.78-.09-.79-1.34-.8-1.25,0,3.25,29.57,6.5,59.14,9.75,88.71,.91,8.26,1.82,16.52,2.72,24.78,.09,.79,1.34,.8,1.25,0h0Z"/><path class="cls-6" d="M349.68,153.39c1.67,19.04,4.71,37.96,9.11,56.56,.18,.78,1.39,.45,1.21-.33-4.37-18.5-7.4-37.29-9.06-56.23-.07-.8-1.32-.8-1.25,0h0Z"/><path class="cls-6" d="M501.78,389.63c-3.29,.62-6.54,1.53-9.63,2.84-3.65,1.55-7.69,3.91-9.02,7.9-.93,2.78-.59,6.21-.46,9.1,.11,2.44,.36,4.88,.76,7.29,.23,1.41,.46,2.83,.68,4.24,2.62,16.92,5.08,33.86,7.58,50.8,2.35,15.89,4.69,31.77,7.04,47.66,.23,1.59,2.64,.91,2.41-.66-3.68-24.95-7.35-49.9-11.06-74.84-1.04-6.98-2.08-13.96-3.14-20.93-.81-5.28-1.76-10.49-1.82-15.86-.03-2.69-.31-5.68,1.43-7.93,1.37-1.77,3.39-2.97,5.37-3.93,3.31-1.6,6.94-2.59,10.55-3.27,1.58-.3,.91-2.71-.66-2.41h0Z"/><path class="cls-6" d="M483.37,404.53c-6.61-1.79-13.02,2.67-16.14,8.29-3.93,7.07-3,15.72-2.06,23.41,2.22,18.13,4.46,36.26,6.7,54.38,1.26,10.23,2.52,20.45,3.78,30.68,.19,1.58,2.7,1.6,2.5,0-2.12-17.24-4.24-34.47-6.37-51.71-1.07-8.66-2.13-17.32-3.2-25.98-.96-7.81-2.76-16.22-1.13-24.05,.79-3.8,2.51-7.25,5.44-9.84,2.68-2.38,6.26-3.73,9.81-2.77,1.56,.42,2.22-1.99,.66-2.41h0Z"/><g><path class="cls-6" d="M338.57,458.43c-3.04,3.12-2.48,8.24-2.2,11.09,1.09,11.03,1.64,16.55,6.25,55.18,.14,1.21,.79,6.78,3.42,7.55,.96,.28,1.66-.23,3.72-.46,2.15-.24,3.92,.01,5.04,.25-.21-11.81-.89-24.6-2.25-38.21-1.36-13.61-3.23-26.27-5.37-37.88-2.3-.18-6.12-.09-8.62,2.47Z"/><path class="cls-6" d="M338.12,457.99c-3.8,4.11-2.52,10.2-2.02,15.26,.31,3.14,.64,6.27,.98,9.41,1.4,12.9,2.96,25.79,4.5,38.67,.38,3.21,.43,7.19,2.32,9.97,.8,1.18,1.94,1.84,3.38,1.6,2.53-.41,4.8-.77,7.35-.24,.39,.08,.8-.17,.79-.6-.37-20.12-2.03-40.21-4.97-60.12-.8-5.4-1.69-10.78-2.67-16.14-.05-.28-.34-.44-.6-.46-3.26-.24-6.63,.29-9.06,2.66-.58,.56,.31,1.45,.88,.88,2.19-2.13,5.25-2.5,8.18-2.29l-.6-.46c3.62,19.75,5.98,39.73,7.03,59.79,.28,5.38,.47,10.76,.57,16.14l.79-.6c-1.92-.39-3.88-.49-5.83-.2-1.6,.24-3.03,.98-4.15-.59-1.68-2.36-1.74-5.86-2.07-8.62-.95-7.95-1.89-15.9-2.82-23.86s-1.81-15.65-2.6-23.49c-.16-1.58-.32-3.17-.47-4.75-.37-3.74-.79-8.08,1.98-11.07,.55-.59-.34-1.48-.88-.88Z"/></g><path class="cls-6" d="M275.18,469.12c15.65-5.53,31.27-11.16,46.85-16.9,.75-.28,.42-1.48-.33-1.21-15.58,5.74-31.19,11.38-46.85,16.9-.75,.27-.43,1.47,.33,1.21h0Z"/><path class="cls-6" d="M274.39,468.52c-.26,19.3,.69,38.61,2.87,57.79,.57,5.04,1.23,10.07,1.97,15.09,.05,.36,.47,.48,.77,.44,17.21-2.33,34.42-4.66,51.63-6.99,4.86-.66,9.72-1.32,14.58-1.97,.79-.11,.46-1.31-.33-1.21-17.21,2.33-34.42,4.66-51.63,6.99-4.86,.66-9.72,1.32-14.58,1.97l.77,.44c-2.78-18.88-4.36-37.94-4.75-57.03-.1-5.17-.12-10.34-.05-15.52,.01-.8-1.24-.81-1.25,0h0Z"/><g><path class="cls-6" d="M347.18,455.96c-.15,.8-8.33-.24-11.81-.77-6.45-.99-13.62-2.86-13.51-3.57,.07-.5,3.7-.31,5.37-.23,10.28,.53,20.12,3.68,19.95,4.57Z"/><path class="cls-6" d="M346.58,455.79c.24-.61,.22-.09-.03-.21-.13-.06-.53,.04-.68,.04-.63,.01-1.27-.02-1.9-.06-1.57-.1-3.13-.27-4.69-.46-3.8-.47-7.58-1.1-11.31-1.99-1.62-.39-3.29-.77-4.83-1.39-.14-.06-.48-.3-.63-.3-.27,.01-.39,.38-.03,.57,.12,.06,.71-.07,.88-.07,.46-.02,.92-.01,1.38,0,4.39,.08,8.76,.6,13.06,1.49,2.05,.43,4.08,.93,6.07,1.58,.64,.21,1.29,.43,1.9,.71,.2,.09,.42,.25,.63,.32,.33,.11,.17,.35,.17-.05-.01,.8,1.24,.81,1.25,0,.01-.85-1.21-1.26-1.82-1.52-1.79-.75-3.69-1.27-5.57-1.73-5.17-1.26-10.51-1.98-15.84-2.06-.73-.01-3.39-.31-3.34,1,.04,1.04,2.02,1.43,2.74,1.66,4.52,1.43,9.25,2.23,13.94,2.85,2.18,.29,4.37,.56,6.57,.67,.9,.05,2.85,.37,3.29-.72,.3-.75-.91-1.07-1.21-.33Z"/></g><path class="cls-6" d="M352.31,237.07c5.13-3.87,10.95-7.02,17.19-8.65,5.44-1.41,11.15-1.72,16.74-1.95,12.05-.5,24.1-.3,36.13,.37,27.35,1.54,54.68,3.4,82.01,5.2,24.38,1.61,48.75,3.34,73.13,4.78,24.61,1.45,49.27,2.23,73.89,3.55,40.48,2.17,80.94,4.77,121.36,7.77,5.46,.41,10.91,.82,16.37,1.24,.8,.06,.8-1.19,0-1.25-41.63-3.21-83.29-5.99-124.97-8.32-26.87-1.5-53.76-2.5-80.64-3.91-23.14-1.22-46.25-2.93-69.37-4.47-28.43-1.89-56.86-3.8-85.3-5.48-10.19-.6-20.31-1.05-30.52-1-12.33,.06-25.38-.25-36.8,5.05-3.5,1.62-6.79,3.64-9.86,5.96-.63,.48-.01,1.56,.63,1.08h0Z"/><g><path class="cls-6" d="M749.22,107.12c-5.09-.76-46.14-8.39-59.91-11.12-2.27-.45-4.62-.9-6.88-.41-3.3,.72-5.46,2.67-6.02,3.15-4.25,3.65-44.17,32.2-100.89,72.53,2.72,.99,6.23,1.67,9.82,.51,1.76-.57,2.97-1.4,3.48-1.76,6.02-4.22,48.94-34.84,58.65-41.57,10.23-7.09,15.4-10.49,18.09-11.59,27.11-11.05,48.92,15.95,74.23,5.31,4.38-1.84,10.66-5.56,16.84-14.04-2.97-.37-5.5-.73-7.41-1.02Z"/><path class="cls-6" d="M749.38,106.52c-10.31-1.56-20.56-3.68-30.8-5.59-6.65-1.24-13.3-2.49-19.95-3.76-2.59-.49-5.18-.99-7.76-1.5-1.74-.34-3.47-.74-5.24-.87-2.36-.18-4.64,.34-6.73,1.45-2.22,1.18-4.19,3.08-6.21,4.6-3.05,2.29-6.14,4.54-9.23,6.78-10.88,7.91-21.82,15.74-32.76,23.56-16.2,11.59-32.43,23.14-48.67,34.69-2.28,1.62-4.56,3.24-6.84,4.86-.45,.32-.38,.96,.15,1.14,4.45,1.57,9.31,1.63,13.37-1.03,1.16-.76,2.28-1.6,3.41-2.4,4.13-2.92,8.24-5.85,12.36-8.78,10.81-7.69,21.62-15.38,32.45-23.05,3.59-2.54,7.18-5.09,10.79-7.59s7.5-5.2,11.32-7.69c2.01-1.31,4.05-2.67,6.24-3.68,15.21-6.99,31,.42,45.69,4.86,7.16,2.16,14.65,3.62,22.11,2.29s13.99-5.26,19.2-10.58c1.77-1.8,3.37-3.75,4.87-5.78,.32-.43-.13-.89-.54-.94-2.42-.3-4.83-.63-7.24-.99-.79-.12-1.13,1.09-.33,1.21,2.52,.38,5.05,.72,7.58,1.04l-.54-.94c-4.92,6.68-11.4,12.33-19.43,14.83-7.43,2.31-15.14,1.47-22.54-.53-14.68-3.97-29.17-11.58-44.71-7.23-5.93,1.66-10.86,5.23-15.9,8.65-4.54,3.09-9.03,6.23-13.51,9.4-10.51,7.42-20.98,14.88-31.47,22.33-4.64,3.3-9.29,6.61-13.94,9.91-3.39,2.4-7.09,5.81-11.29,6.46-2.59,.4-5.19-.1-7.63-.96l.15,1.14c16.68-11.86,33.35-23.72,50-35.62,11.6-8.29,23.2-16.58,34.75-24.95,5.37-3.89,10.94-7.65,16.05-11.89,2.61-2.16,5.5-3.59,8.99-3.31,2.98,.24,5.99,1.04,8.93,1.61,6.32,1.22,12.64,2.41,18.96,3.59,11.33,2.12,22.65,4.3,34.02,6.22,.5,.09,1.01,.17,1.51,.25,.79,.12,1.13-1.09,.33-1.21Z"/></g><path class="cls-6" d="M682.54,130.31c-.03-.25,0-.62-.09-.84-.08-.19,.12-.41-.06-.12l-.54,.31c-.73-.01-.34-.33-.43-.16,0,0,0-.03,.06,.14,.09,.29,.2,.58,.29,.87,.29,.93,.55,1.87,.81,2.81,.83,3.02,1.6,6.05,2.36,9.09,1.87,7.48,3.65,14.98,5.27,22.51,.6,2.8,1.2,5.61,1.66,8.44,.12,.76,.25,1.53,.29,2.31,.01,.22,.04,.46,0,.41-.18-.22,.94-.29,.85-.19,.02-.03-.06,.03-.1-.18-.14-.77-.61-1.61-.85-2.36-.44-1.41-.83-2.83-1.21-4.26-1.07-3.99-2.04-8-2.97-12.02-2.05-8.82-4.25-17.76-5.34-26.76-.1-.79-1.35-.8-1.25,0,1.05,8.69,3.13,17.31,5.09,25.83,1.03,4.48,2.1,8.95,3.29,13.38,.41,1.53,.83,3.06,1.32,4.57,.25,.77,.47,1.71,.92,2.39,.39,.59,1.15,.74,1.44-.04,.19-.51,.03-1.25-.04-1.77-.33-2.73-.92-5.44-1.48-8.12-1.72-8.23-3.68-16.42-5.72-24.58-.8-3.21-1.62-6.42-2.51-9.61-.19-.7-.66-3.95-1.75-3.95-.94,0-.63,1.37-.57,1.9,.09,.79,1.34,.8,1.25,0Z"/><path class="cls-6" d="M669.92,129.92c3.31,15.14,6.61,30.28,9.92,45.42,.17,.79,1.38,.45,1.21-.33-3.31-15.14-6.61-30.28-9.92-45.42-.17-.79-1.38-.45-1.21,.33h0Z"/><path class="cls-6" d="M311.17,169.58h-1.81c-.34-.01-.67,.06-.96,.22-.31,.1-.58,.27-.8,.52-.24,.23-.42,.49-.52,.8-.16,.3-.23,.62-.22,.96l.09,.66c.12,.42,.33,.79,.64,1.1l.51,.39c.39,.23,.81,.34,1.26,.34h1.81c.34,.01,.67-.06,.96-.22,.31-.1,.58-.27,.8-.52,.24-.23,.42-.49,.52-.8,.16-.3,.23-.62,.22-.96l-.09-.66c-.12-.42-.33-.79-.64-1.1l-.51-.39c-.39-.23-.81-.34-1.26-.34h0Z"/><g><path class="cls-4" d="M209.11,246.79c3.43-27.43-5.15-56.23-22.91-76.89,1.32-2.93,2.64-5.87,3.96-8.8-4.32,2.66-5.3-6.16-7.08-11.03-2.46-6.74-12.86-6.61-17.17-.95-4.31,5.66-3.72,13.86-1.4,20.65,.93,2.71,2.11,5.54,1.58,8.36-.98,5.21-6.97,7.42-10.11,11.61s2.22,12.75,5.12,8.37c-4.2,11.19-8.4,22.39-12.59,33.58-1,2.67-3.53,5.92-5.84,4.33,.1,3.36,.2,6.73,.29,10.09,5.68-1.02,11.83,2.2,14.4,7.54-13.57,3.3-2.71,33.57-16.48,35.88,1.42,2.75,2.85,5.5,4.27,8.25-3.1,5.14-10.56,6.74-15.37,3.29,3.91,3.63-3.28,8.39-6.78,12.45-3.79,4.38-2.86,11.57,.56,16.26s8.71,7.45,13.84,9.97c-7.7,1.91-7.24,13.89-2.75,20.65s11.42,12.94,11.14,21.14c-6.06-1.82-10.59,5.93-11.71,12.37-1.12,6.44-2.3,14.43-8.29,16.5,.19,2.3,.38,4.61,.57,6.91-2.94,.63-5.88,1.26-8.82,1.89,1.66,11.9,4.12,23.67,7.36,35.21-1.78,1.75-3.55,3.49-5.33,5.24,1.98,3.42,3.97,6.84,5.95,10.26l-5.36,14.65,6.65,6.15-3.58,9.36,1.54,9.72-12.17,7.28-6.77,15.25,6.1,12.99-2.33,6.89,6.09,3.25,35.52-4.53,14.96-9.72,38.31-8.88,19.85,8.88,24.92-8.88,27.01-9.57-2.27-53.98,3.66-10.26-8.55-7.26,1.22-11.26-8.24-7.59,3.05-8.85,.65-18.23-12.13-17.65,.97-23.05-14.96-14.45v-51.7l-20.85-16.55-9.69-35.17Z"/><path class="cls-6" d="M209.74,246.79c3.35-27.55-5.05-56.2-23.1-77.33l.1,.76c1.32-2.93,2.64-5.87,3.96-8.8,.25-.55-.27-1.18-.86-.86-3.23,1.8-4.38-4.6-4.95-6.62-.77-2.75-1.37-5.65-3.69-7.54-4.47-3.63-11.85-2.32-15.45,1.92-5.24,6.14-4.03,15.27-1.61,22.3,.86,2.51,1.92,5.18,1.23,7.86-.54,2.07-2.02,3.67-3.57,5.05-2.32,2.06-5.71,3.98-6.96,6.96-1.04,2.49-.23,5.68,1.42,7.72s3.8,2.35,5.37,.22l-1.14-.48c-2.52,6.72-5.04,13.43-7.56,20.15-1.21,3.23-2.43,6.47-3.64,9.7-.76,2.04-2.85,9.63-6.32,7.69-.4-.22-.95,.05-.94,.54,.1,3.36,.2,6.73,.29,10.09,.01,.44,.39,.67,.79,.6,5.64-.88,11.13,2.24,13.69,7.26l.37-.92c-7.22,1.9-7.9,10.74-8.45,16.9s-.11,17.5-8.03,18.98c-.42,.08-.54,.59-.37,.92,1.18,2.28,2.48,4.54,3.56,6.87,.54,1.17,.28,1.54-.63,2.47-.69,.7-1.48,1.28-2.34,1.76-3.41,1.87-7.6,1.77-10.83-.41-.6-.41-1.24,.48-.76,.98,3.22,3.32-3.41,8.07-5.52,10.21-2.85,2.89-4.23,6.3-3.82,10.39,.95,9.41,9.42,14.39,17.09,18.17l.15-1.14c-7.29,2.03-7.29,11.28-5.27,17.14,3.14,9.1,13.33,14.88,13.2,25.25l.79-.6c-6.28-1.63-10.29,5.05-11.84,10.15-1.87,6.13-1.26,15.96-8.49,18.72-.24,.09-.48,.31-.46,.6,.19,2.3,.38,4.61,.57,6.91l.46-.6c-2.94,.63-5.88,1.26-8.82,1.89-.36,.08-.48,.45-.44,.77,1,7.11,2.27,14.18,3.83,21.18,.77,3.44,1.6,6.86,2.5,10.26,.2,.74,.5,1.51,.61,2.26,.2,1.35-.05,1.51-1.02,2.47-1.24,1.22-2.49,2.44-3.73,3.67-.2,.19-.24,.52-.1,.76l3.57,6.16c.59,1.01,1.1,2.14,1.78,3.08,.26,.36,.44,.41,.46,.74,.02,.45-.46,1.26-.61,1.68l-1.04,2.85c-1.21,3.31-2.42,6.62-3.63,9.92-.07,.2,0,.47,.16,.61,2.01,1.86,3.93,3.99,6.11,5.65,.77,.59,.12,.46,.37-.05-.16,.32-.26,.69-.39,1.02l-1.8,4.71c-.42,1.09-1.12,2.31-1.32,3.46-.11,.62,.08,1.27,.18,1.9,.44,2.76,.87,5.52,1.31,8.28l.29-.71c-3.36,2.01-6.71,4.02-10.07,6.02-.81,.49-1.86,.89-2.4,1.66-.9,1.27-1.39,3.14-2.02,4.56l-3.08,6.93c-.47,1.06-1.4,2.42-1.59,3.58-.17,1.04,.83,2.39,1.26,3.31l3.21,6.83c.44,.94,.83,1.94,1.34,2.86,.09,.17,.21,.38,.27,.57-.17-.61,0-.31-.25,.19-.92,1.95-1.43,4.22-2.12,6.27-.09,.25,.05,.58,.29,.71,1.36,.73,2.72,1.45,4.08,2.18,.75,.4,1.6,1.07,2.45,1.14,2,.18,4.46-.57,6.44-.82l23.78-3.03c1.65-.21,3.67-.15,5.26-.67,.74-.24,1.43-.85,2.08-1.28l4.78-3.11c2.66-1.73,5.37-4,8.24-5.35,.18-.09-.19,.07,.1-.03,.26-.09,.56-.13,.83-.19l3.2-.74,23.19-5.37,9.16-2.12c.57-.13,1.15-.3,1.73-.4-.29,.05-.54-.23-.12,.06,.36,.25,.87,.39,1.26,.57l10.36,4.63,5.28,2.36c.8,.36,1.72,.97,2.58,1.15,1.49,.32,3.78-1.07,5.17-1.56l11.59-4.13c11.35-4.04,22.7-8.06,34.05-12.08l1.66-.59c.25-.09,.47-.32,.46-.6-.75-17.77-1.48-35.55-2.24-53.32-.05-1.05,.47-1.94,.94-3.26,.89-2.5,1.78-4.99,2.67-7.49,.07-.19,0-.47-.16-.61-1.53-1.3-3.05-2.59-4.58-3.89l-2.96-2.51c-.26-.22-.51-.48-.79-.67-.48-.32-.06,.47-.01,.03,.26-2.39,.52-4.79,.78-7.18,.13-1.2,.83-3.34,.11-4.4-.41-.6-1.22-1.12-1.76-1.62l-3.4-3.13c-.76-.7-1.5-1.55-2.35-2.16-.21-.15-.38-.36-.58-.53,.54,.46-.09,.69,.37-.11,1.18-2.11,1.71-4.95,2.5-7.24,.37-1.06,.37-1.95,.41-3.09l.54-15.16c.04-.99,0-1.33-.57-2.14l-3.75-5.45-4.85-7.06c-.94-1.36-2.2-2.76-2.92-4.25-.16-.33,.02,.26,0,.15-.03-.15,0-.37,.02-.52,.09-.76,.07-1.55,.1-2.32l.33-7.84,.35-8.26c.05-1.16,.47-2.92,.17-4.05-.25-.95-1.58-1.8-2.25-2.45l-5.85-5.65-5.56-5.37c-.45-.44-.89-.91-1.37-1.32-.13-.11-.02,.6,.07,.03,.16-1.02,0-2.2,0-3.24v-6.04c0-11.12,0-22.24,0-33.35v-5.77c0-.88,.19-2,0-2.86-.16-.71-.59-.91-1.17-1.37l-4.99-3.96-12.66-10.05c-.57-.45-1.12-.96-1.72-1.37-.32-.22-.55-.55-.34-.16-.47-.88-.6-2.16-.86-3.12l-8.12-29.5c-.23-.83-.46-1.66-.69-2.5-.21-.77-1.42-.45-1.21,.33,1.92,6.96,3.84,13.92,5.75,20.89l3.27,11.89c.48,1.75,.56,2.46,1.95,3.57l10.08,8,5.57,4.43c1.16,.92,2.31,2.06,3.57,2.84,.47,.29,.43,.64,.3-.05,.02,.14,.02,.36,0,.49-.15,.88,0,1.93,0,2.82v40.23c0,2.54-.2,5.17,0,7.7,.13,1.7,2.49,3.12,3.64,4.23l10.03,9.68c.37,.35,.78,.93,1.22,1.18,.51,.29,.11-.25,.07,.03-.23,1.33-.12,2.81-.18,4.16l-.59,14.12c-.09,2.03-.66,4.06,.52,5.77l7.45,10.84,3.32,4.83c.22,.32,.53,.65,.69,1-.14-.3-.01-.05-.06,.45-.4,4.25-.31,8.6-.46,12.86-.05,1.48,.05,3.06-.16,4.52-.1,.7-.94,2.74-1.31,3.84-.57,1.66-1.15,3.33-1.72,4.99-.07,.2,0,.47,.16,.61,2.55,2.35,5,5.11,7.79,7.17,.13,.09,.33,.26,.42,.39-.27-.37-.08-.51-.18-.12-.18,.71-.17,1.55-.25,2.28l-.74,6.78c-.1,.97-.43,1.79,.19,2.54,1.16,1.4,2.98,2.53,4.36,3.7l2.52,2.14c.4,.34,.91,.99,1.4,1.19-.19-.08,.15-.68-.18-.34-.14,.14-.23,.64-.29,.8l-1,2.81c-.78,2.18-2.23,4.73-2.3,7.07s.2,4.74,.3,7.07c.38,9.02,.76,18.03,1.14,27.05,.27,6.46,.54,12.93,.81,19.39l.46-.6c-10.12,3.58-20.24,7.16-30.35,10.76l-20.64,7.35c-.27,.1-.57,.18-.83,.3-.13,.06,.57,.3,.1-.01-.93-.61-2.18-.97-3.19-1.43l-11.08-4.96-4.22-1.89c-.52-.23-1.02-.54-1.58-.55-1.6,0-3.57,.83-5.11,1.18-7.83,1.81-15.66,3.63-23.49,5.44l-8.42,1.95c-1.38,.32-2.18,.84-3.4,1.64l-9.99,6.49c-.95,.62-1.9,1.37-2.92,1.89-.24,.13,.47-.11,.05,0-.29,.07-.62,.08-.92,.12-7.07,.9-14.15,1.8-21.22,2.71l-10.38,1.32c-.84,.11-1.69,.28-2.53,.32-.45,.02-.04,.08-.07,.07-.65-.2-1.31-.7-1.91-1.02-1.36-.73-2.72-1.45-4.08-2.18l.29,.71,1.84-5.43c.44-1.3,.57-1.64,0-2.84l-2.8-5.96c-.84-1.78-1.51-3.96-2.62-5.59-.1-.14-.12-.35-.23-.49,.36,.44-.28,.66,.06,.39s.58-1.3,.74-1.67l2.89-6.5,2.59-5.82c.14-.32,.26-.77,.47-1.05-.38,.51,.65-.31,.92-.47,3.68-2.2,7.35-4.4,11.03-6.6,.26-.16,.33-.43,.29-.71l-.77-4.86-.52-3.26c-.06-.37-.11-.74-.18-1.11-.05-.3,.03-.66-.07-.17,.32-1.56,1.22-3.18,1.78-4.66,.6-1.56,1.19-3.12,1.79-4.68,.08-.2-.01-.47-.16-.61-1.97-1.83-3.95-3.65-5.92-5.48-.1-.1-.44-.52-.58-.54-.44-.06,.61-.89,.02,.46,.11-.24,.16-.51,.27-.75,.57-1.19,.93-2.55,1.39-3.79l3.31-9.05c.38-1.04,.52-1.17-.07-2.22-1.81-3.22-3.7-6.39-5.55-9.58l-.1,.76c1.78-1.75,3.55-3.49,5.33-5.24,.16-.16,.22-.39,.16-.61-3.23-11.57-5.68-23.32-7.36-35.21l-.44,.77c2.94-.63,5.88-1.26,8.82-1.89,.25-.05,.48-.34,.46-.6-.19-2.3-.38-4.61-.57-6.91l-.46,.6c5.78-2.21,7.26-8.8,8.26-14.27s3.63-16.63,11.41-14.61c.4,.1,.79-.19,.79-.6,.11-9.15-7.45-14.97-11.71-22.24-3.11-5.3-5.03-16.75,2.87-18.95,.49-.14,.65-.9,.15-1.14-8.16-4.02-18.95-10.67-16.18-21.52,1.11-4.34,5.4-6.79,8.08-10.11,1.75-2.16,2.79-4.71,.61-6.95l-.76,.98c3.66,2.47,8.51,2.49,12.32,.29,1.25-.72,3.89-2.52,4-4.12,.07-1.02-1.4-2.85-1.87-3.75-.83-1.6-1.66-3.21-2.49-4.81l-.37,.92c7.31-1.36,8.05-10.16,8.6-16.16s.1-17.67,7.88-19.72c.41-.11,.55-.57,.37-.92-2.83-5.56-8.92-8.79-15.1-7.83l.79,.6c-.1-3.36-.2-6.73-.29-10.09l-.94,.54c2.16,1.21,4.09-.26,5.36-2.05,2.2-3.11,3.15-7.33,4.48-10.87,3.17-8.46,6.34-16.91,9.51-25.37,.27-.71-.76-1.01-1.14-.48-2.15,2.93-4.56-2.1-4.83-3.9-.54-3.58,2.45-5.74,4.92-7.77,2.18-1.79,4.54-3.65,5.62-6.35,1.45-3.65-.21-7.28-1.34-10.76-2.14-6.64-3.06-16.6,3.34-21.33,2.45-1.81,5.76-2.55,8.75-1.9,3.24,.7,5.02,2.86,5.96,5.93s2.32,12.82,7.51,9.93l-.86-.86c-1.32,2.93-2.64,5.87-3.96,8.8-.12,.28-.1,.53,.1,.76,17.84,20.89,26.04,49.23,22.73,76.45-.1,.8,1.15,.79,1.25,0Z"/></g><path class="cls-6" d="M272.79,410.99c-3.76,1.07-7.51,2.14-11.27,3.2l.77,.77c.49-2.83,.38-5.71-.46-8.47s-2.3-5.03-3.85-7.32c-3.46-5.09-6.91-10.19-10.23-15.38-6.68-10.43-12.98-21.1-18.89-31.97-1.57-2.88-4.78-10.57,.13-12.12,.41-.13,.66-.73,.28-1.04-1.53-1.28-3.06-2.56-4.59-3.84l.16,.61c.31-1.92,1.77-3.46,3.77-3.53,.45-.02,.81-.53,.54-.94-3.58-5.54-9.46-9.25-16.04-9.92l.54,.94c1.91-3.87,.64-8.86-3.04-11.19l-.15,1.14c2.13-.69,3.67-2.26,4.42-4.36,.09-.24-.05-.6-.29-.71-3.47-1.62-6.14-4.4-7.72-7.88l-.37,.92c2.77-.99,5.55-1.99,8.32-2.98,.52-.18,.67-1.1,0-1.21-3.04-.47-5.7-1.95-7.74-4.24l.1,.76c2.17-2.83,1.76-6.43,1.2-9.73-.64-3.78-1.13-7.24-.27-11.03,1.46-6.45,5.14-12.31,6.03-18.9,.43-3.25-.14-6.42-2.16-9.05l-.54,.94c3.82,.09,7.43-1.28,10.31-3.79,.4-.35,.09-1.11-.44-1.07-3.26,.24-7.59,.59-10.03-2.06-1.7-1.85-2.42-5.98,.44-7.15,1.69-.69,3.6-.1,5.37-.25,1.24-.11,2.44-.46,3.54-1.03,2.29-1.17,4.13-3.21,5.23-5.52,1.3-2.71,1.62-5.82,.59-8.67l-.29,.71c.51-.37,1.35-.32,1.66,.33,.44,.91-.74,1.59-1.49,1.29s-1.07,.91-.33,1.21c1.55,.62,3.4-.77,3.13-2.46s-2.31-2.38-3.6-1.44c-.21,.15-.39,.43-.29,.71,2.1,5.78-2.18,13.44-8.62,13.66-2.86,.1-6.35-.66-7.69,2.64-.92,2.26-.15,5.11,1.47,6.86,2.7,2.92,7.31,2.69,10.92,2.43l-.44-1.07c-2.62,2.29-5.94,3.5-9.42,3.42-.43-.01-.83,.56-.54,.94,3.95,5.14,1.49,11.59-.59,16.98-2.3,5.98-4.68,11.83-3.7,18.35,.59,3.93,2.17,8.62-.5,12.11-.17,.23-.07,.57,.1,.76,2.17,2.44,5.06,4.06,8.29,4.56v-1.21c-2.77,.99-5.55,1.99-8.32,2.98-.41,.15-.55,.53-.37,.92,1.65,3.65,4.53,6.63,8.17,8.33l-.29-.71c-.6,1.67-1.85,2.94-3.55,3.48-.52,.17-.61,.85-.15,1.14,3.08,1.95,4.19,6.23,2.59,9.48-.22,.45,.06,.89,.54,.94,6.12,.62,11.64,4.16,14.96,9.3l.54-.94c-2,.08-3.8,1.28-4.6,3.13-.49,1.12-.57,1.63,.36,2.41,1.34,1.12,2.68,2.24,4.01,3.36l.28-1.04c-3.85,1.21-3.78,5.71-2.96,8.96,.58,2.25,1.66,4.23,2.76,6.25,1.53,2.79,3.08,5.56,4.65,8.32,6.38,11.16,13.16,22.08,20.34,32.73,1.97,2.92,4.17,5.76,5.82,8.88,1.8,3.4,2.46,7.18,1.8,10.98-.08,.45,.28,.91,.77,.77,3.76-1.07,7.51-2.14,11.27-3.2,.77-.22,.44-1.43-.33-1.21h0Z"/><path class="cls-6" d="M461.8,170.63c2.2,15.84,4.41,31.68,6.61,47.53,.11,.79,1.31,.46,1.21-.33-2.2-15.84-4.41-31.68-6.61-47.53-.11-.79-1.31-.46-1.21,.33h0Z"/><path class="cls-6" d="M466.8,170.22c2.2,15.84,4.41,31.68,6.61,47.53,.11,.79,1.31,.46,1.21-.33-2.2-15.84-4.41-31.68-6.61-47.53-.11-.79-1.31-.46-1.21,.33h0Z"/><path class="cls-6" d="M382.95,308.94c24.48-3.34,49.03-3.77,73.69-3.61s50.85,.87,76.26,1.78c17.21,.61,34.41,1.35,51.62,2.13,30.17,1.37,60.34,2.67,90.51,3.78,25.97,.96,51.94,1.8,77.92,2.51,2.42,.07,4.84,.13,7.26,.2,.8,.02,.8-1.23,0-1.25-24.78-.66-49.56-1.43-74.34-2.31-31.25-1.11-62.5-2.43-93.74-3.83-17.16-.77-34.32-1.55-51.49-2.19-25.17-.94-50.36-1.69-75.55-1.98-23.66-.27-47.37-.35-70.93,2.17-3.86,.41-7.7,.89-11.54,1.41-.79,.11-.46,1.31,.33,1.21h0Z"/><path class="cls-6" d="M675.89,89.88c21.77,3.91,43.54,7.82,65.31,11.73,6.22,1.12,12.44,2.23,18.66,3.35,.79,.14,1.12-1.06,.33-1.21-21.77-3.91-43.54-7.82-65.31-11.73-6.22-1.12-12.44-2.23-18.66-3.35-.79-.14-1.12,1.06-.33,1.21h0Z"/><path class="cls-6" d="M734.83,133.67c-.03-.25,0-.62-.09-.84-.08-.19,.12-.41-.06-.12l-.54,.31c-.73-.01-.34-.33-.43-.16,0,0,0-.03,.06,.14,.09,.29,.2,.58,.29,.87,.29,.93,.55,1.87,.81,2.81,.83,3.02,1.6,6.05,2.36,9.09,1.87,7.48,3.65,14.98,5.27,22.51,.6,2.8,1.2,5.61,1.66,8.44,.12,.76,.25,1.53,.29,2.31,.01,.22,.04,.46,0,.41-.18-.22,.94-.29,.85-.19,.02-.03-.06,.03-.1-.18-.14-.77-.61-1.61-.85-2.36-.44-1.41-.83-2.83-1.21-4.26-1.07-3.99-2.04-8-2.97-12.02-2.05-8.82-4.25-17.76-5.34-26.76-.1-.79-1.35-.8-1.25,0,1.05,8.69,3.13,17.31,5.09,25.83,1.03,4.48,2.1,8.95,3.29,13.38,.41,1.53,.83,3.06,1.32,4.57,.25,.77,.47,1.71,.92,2.39,.39,.59,1.15,.74,1.44-.04,.19-.51,.03-1.25-.04-1.77-.33-2.73-.92-5.44-1.48-8.12-1.72-8.23-3.68-16.42-5.72-24.58-.8-3.21-1.62-6.42-2.51-9.61-.19-.7-.66-3.95-1.75-3.95-.94,0-.63,1.37-.57,1.9,.09,.79,1.34,.8,1.25,0Z"/><path class="cls-6" d="M722.21,133.29c3.31,15.14,6.61,30.28,9.92,45.42,.17,.79,1.38,.45,1.21-.33-3.31-15.14-6.61-30.28-9.92-45.42-.17-.79-1.38-.45-1.21,.33h0Z"/><path class="cls-8" d="M339.37,159.67l10.94,71.84c4.74-2.56,9.48-5.12,14.22-7.67,.16-8.53-.12-17.99-1.13-28.19-1.64-16.54-4.82-30.99-8.28-42.94-3.36-.24-6.72-.48-10.08-.72-1.89,2.56-3.78,5.13-5.66,7.69Z"/><path class="cls-8" d="M351.42,241.81l7.21,65.28c2.53-.87,5.1-1.74,7.7-2.6,2.35-.78,4.68-1.53,7-2.26,1.25-9.41,2-22.1,.18-36.85-1.55-12.64-4.55-23.22-7.46-31.31-4.88,2.58-9.75,5.16-14.63,7.75Z"/><path class="cls-6" d="M570.04,181.18c2.2,15.84,4.41,31.68,6.61,47.53,.11,.79,1.31,.46,1.21-.33-2.2-15.84-4.41-31.68-6.61-47.53-.11-.79-1.31-.46-1.21,.33h0Z"/><path class="cls-6" d="M575.03,180.77c2.2,15.84,4.41,31.68,6.61,47.53,.11,.79,1.31,.46,1.21-.33-2.2-15.84-4.41-31.68-6.61-47.53-.11-.79-1.31-.46-1.21,.33h0Z"/><path class="cls-6" d="M678.38,191.38c2.05,13.82,4.1,27.64,6.14,41.46,.12,.79,1.32,.46,1.21-.33-2.05-13.82-4.1-27.64-6.14-41.46-.12-.79-1.32-.46-1.21,.33h0Z"/><path class="cls-6" d="M683.37,190.97c2.05,13.82,4.1,27.64,6.14,41.46,.12,.79,1.32,.46,1.21-.33-2.05-13.82-4.1-27.64-6.14-41.46-.12-.79-1.32-.46-1.21,.33h0Z"/><path class="cls-8" d="M359.71,332.17c5.93,52.65,11.87,105.3,17.8,157.94,.37,3.26,3.95,5.2,6.91,3.68,.02-.01,2.9-1.54,2.92-1.55,2.38-1.22,1.73-.94,3.76-2.17,1.57-.95,2.43-2.71,2.23-4.51-5.92-52.11-11.84-104.22-17.76-156.33-.33-2.93-3.29-4.84-6.15-3.98l-6.37,1.92c-2.19,.66-3.59,2.76-3.34,5Z"/><path class="cls-6" d="M473.7,496.85c-22.13,.27-44.26,.54-66.39,.81-6.32,.08-12.65,.15-18.97,.23-.8,0-.81,1.26,0,1.25,22.13-.27,44.26-.54,66.39-.81,6.32-.08,12.65-.15,18.97-.23,.8,0,.81-1.26,0-1.25h0Z"/><path class="cls-2" d="M341.09,158.66c-6.61,6.02-13.22,12.04-19.83,18.06-.62,.56-1.24,1.13-1.85,1.69"/><path class="cls-7" d="M311.53,414.23c2.07,8.4,2.97,14.91,3.41,19.47,.23,2.43,.49,5.98,2.25,10.25,1.43,3.47,3.28,6.02,4.67,7.67-8.27,2.31-16.54,4.62-24.81,6.92,.82-4.52,1.31-8.49,1.61-11.74,.75-8.15,.58-14.6,.38-21.53-.13-4.58-.37-8.54-.59-11.69,4.36,.22,8.73,.43,13.09,.65Z"/><polygon class="cls-11" points="372.74 172 376.68 208.01 457.6 211.49 453.25 178.04 372.74 172"/><path class="cls-5" d="M480.39,179.74l3.74,33.72c26.33,1.83,52.66,3.66,78.99,5.49-1.21-10.8-2.42-21.6-3.63-32.4-26.37-2.27-52.74-4.54-79.1-6.81Z"/><path class="cls-9" d="M389.63,467.95c.75,3.73,2.47,9.78,6.71,16,5.69,8.34,12.83,12.42,16.39,14.14-4.78,.97-10.5,1.77-16.97,1.97-6.42,.2-12.12-.24-16.92-.91-.77-9.72-1.54-19.45-2.31-29.17l13.1-2.03Z"/><line class="cls-2" x1="380.31" y1="498.31" x2="340.99" y2="497.69"/><path class="cls-5" d="M591.97,190.57l3.56,32.3c25,1.75,50,3.51,75,5.26-1.15-10.35-2.3-20.69-3.45-31.04-25.04-2.17-50.07-4.35-75.11-6.52Z"/><path class="cls-5" d="M697.83,200.35l3.28,30.34c23.09,1.65,46.19,3.3,69.28,4.94-1.06-9.72-2.12-19.44-3.19-29.16-23.13-2.04-46.25-4.09-69.38-6.13Z"/><path class="cls-6" d="M579.89,251.41c2.28,14.76,4.57,29.51,6.85,44.27,.12,.79,1.33,.46,1.21-.33-2.28-14.76-4.57-29.51-6.85-44.27-.12-.79-1.33-.46-1.21,.33h0Z"/><path class="cls-6" d="M584.88,250.94c2.28,14.76,4.57,29.51,6.85,44.27,.12,.79,1.33,.46,1.21-.33-2.28-14.76-4.57-29.51-6.85-44.27-.12-.79-1.33-.46-1.21,.33h0Z"/><path class="cls-6" d="M686.46,256.89c1.69,13.87,3.39,27.75,5.08,41.62,.1,.79,1.35,.8,1.25,0-1.69-13.87-3.39-27.75-5.08-41.62-.1-.79-1.35-.8-1.25,0h0Z"/><path class="cls-6" d="M691.47,256.61c1.69,13.87,3.39,27.75,5.08,41.62,.1,.79,1.35,.8,1.25,0-1.69-13.87-3.39-27.75-5.08-41.62-.1-.79-1.35-.8-1.25,0h0Z"/><polygon class="cls-11" points="382.82 243.15 387.04 279.13 467.98 281.96 463.38 248.54 382.82 243.15"/><path class="cls-11" d="M487.5,248.89l4,33.69c26.34,1.62,52.69,3.24,79.03,4.86-1.29-10.79-2.58-21.58-3.88-32.37-26.38-2.06-52.77-4.12-79.15-6.18Z"/><path class="cls-5" d="M598.79,257.42l4.68,32.15c25.05,.82,50.09,1.64,75.14,2.46-1.51-10.3-3.02-20.59-4.53-30.89-25.1-1.24-50.19-2.48-75.29-3.72Z"/><path class="cls-6" d="M471.34,244.77c2.2,15.84,4.41,31.68,6.61,47.53,.11,.79,1.31,.46,1.21-.33-2.2-15.84-4.41-31.68-6.61-47.53-.11-.79-1.31-.46-1.21,.33h0Z"/><path class="cls-6" d="M476.33,244.36c2.2,15.84,4.41,31.68,6.61,47.53,.11,.79,1.31,.46,1.21-.33-2.2-15.84-4.41-31.68-6.61-47.53-.11-.79-1.31-.46-1.21,.33h0Z"/><polygon class="cls-8" points="475.05 306 485.53 391.83 499.95 387.7 490.34 305.66 475.05 306"/><polygon class="cls-8" points="485.53 391.83 485.91 396.29 500.25 389.76 499.95 387.7 485.53 391.83"/><path class="cls-6" d="M383,415.1c26.23-5.1,52.91-7.38,79.57-8.6,7.49-.34,14.99-.6,22.49-.82,.8-.02,.81-1.27,0-1.25-26.71,.78-53.44,2.09-79.93,5.74-7.52,1.04-15.01,2.27-22.47,3.72-.79,.15-.45,1.36,.33,1.21h0Z"/><polygon class="cls-8" points="585.48 309.46 593.1 365.64 605.61 360.78 598.41 308.38 585.48 309.46"/><path class="cls-8" d="M376.17,467.1c-.27,3.8-1.12,9.51-3.85,15.84-3.16,7.34-7.45,12.28-10.28,15.08,3.42,.85,7.21,1.59,11.34,2.08,8.58,1.03,16.19,.71,22.37-.05-6.53-10.98-13.06-21.96-19.58-32.94Z"/><g><path class="cls-6" d="M215.89,237.4c3.3-6.94,6.61-13.88,9.91-20.82,0,.55-.13,.98-.37,1.32-1.07,1.5-6.52-2.56-6.33-2.97,.06-.12,.64-.03,3.01,.92-1.23-6.12-2.46-12.23-3.69-18.35,8.93-6.95,8.61-23.18-.59-29.75,3.4-3.58,6.81-7.15,10.21-10.73-3.98-1.63-8.56-1.63-12.55-.02,1.07-6.46,1.28-13.08,.63-19.6,5.66-10.48,11.33-20.97,16.99-31.45-6.84,4.5-11.95-8.94-8.19-16.37,3.76-7.43,10.45-15.92,6.03-22.95,2.81-1.9,5.63-3.81,8.44-5.71-1.92-7.98-3.83-16.51-1.23-24.28,2.6-7.77,11.66-13.78,18.65-9.87-.46,3.36-.93,6.72-1.39,10.08,5.17,2.33,11.13,5.79,11.4,11.62s-10.73,7.68-9.91,1.9c-2.21,7.32,10.03,8.22,16.63,4.74,4.95,11.29,11.09,22.02,18.29,31.93-2,3.94-4,7.88-5.99,11.82,6.38,10.76,12.76,21.53,19.15,32.29,6.7,11.3,13.4,26.06,6.07,36.94,6.8-3.34,9.06,9.08,8.51,16.85-.89,12.66,4.86,25.61,14.71,33.14-1.47,4.02-2.95,8.03-4.42,12.05,2.39-.74,4.78-1.48,7.17-2.23,1.84,3.61,4.35,9.43,5.48,16.92,1.96,13.01-2.41,16.68,.46,26.46,3.16,10.75,9.66,10.46,10.68,20.2,.77,7.33-2.72,9.22-1.39,17.32,.99,6.03,3.09,5.94,6.06,14.31,2.28,6.41,5.19,14.15,3.05,22.22-1.35,5.09-4.78,9.46-5.61,14.66s3.2,11.82,8.05,10.2c-1.73,5.14-3.45,10.28-5.18,15.43-2.38,2.53-5.93,6.52-9.83,11.78-5.95,8.03-5.82,9.74-9.37,12.27-5.32,3.79-8.6,2.07-16.54,6.24-3.8,1.99-6.58,4.24-8.26,5.74-1.16-3.42-2.33-6.84-3.49-10.26-2.87,4.5-5.74,9.01-8.6,13.51-.46-4.29-3.07-7.65-6.37-8.39-2.25-.51-4.19,.35-5.04,.8-3.95,3.87-6.8,4.4-8.74,4.05-5.2-.93-6.02-8.52-11.37-9.3-4.44-.65-7.29,4.09-9.33,2.71-2.19-1.48,.99-7.01-1.06-13.14-1.46-4.36-4.66-6.3-7.71-8.82-4.7-3.88-10.08-13.89-20.85-33.92-2.92-5.43-4.91-9.39-6.22-14.99-1.14-4.87-.41-5.21-1.62-8.66-2.12-6.03-4.83-6.38-9.41-14.3-1.08-1.87-.14-.49-4.53-9.64-3.48-7.24-5.19-10.46-3.96-12.03,1.12-1.43,3.78-.33,4.33-1.55,.59-1.31-2.23-3.09-4.02-5.83-5.64-8.63,1.39-23.05,1.72-23.7,1.93-3.84,2.56-3.12,3.85-6.35,2.88-7.2-.07-11.24,1.11-18.11,1.36-7.96,6.43-8.91,8.79-15.27,2.05-5.5,1.94-14.72-9.33-30.57,6.27-.45,10.77-6.94,11.71-13.37,.94-6.43-.72-12.92-1.75-19.33-2.3-14.33-1.42-29.2,2.55-43.14,1.11-3.88,2.46-7.82,2.13-11.85-.25-2.99-1.43-5.82-1.8-8.8-1.12-8.97,3.97-17.29,6.01-20.69,4.55-7.59,8.99-21.91,8.91-51.39"/><path class="cls-6" d="M216.43,237.72c3.3-6.94,6.61-13.88,9.91-20.82l-1.16-.32c-.18,2.25-3.49-.2-4.35-.84-.09-.06-2.12-1.83-1.49-.22,.1,.24,2.42,.85,2.6,.93,.48,.19,.85-.35,.77-.77-.67-3.31-1.33-6.63-2-9.94-.31-1.53-.62-3.06-.92-4.59-.24-1.19-.95-2.85-.2-3.82,1.22-1.57,2.6-2.76,3.57-4.57,.89-1.66,1.53-3.46,1.91-5.3,1.54-7.39-.72-15.66-6.94-20.25l.13,.98c3.4-3.58,6.81-7.15,10.21-10.73,.35-.36,.16-.88-.28-1.04-4.19-1.61-8.68-1.62-12.88-.02l.77,.77c.67-4.17,1.03-8.37,1.02-12.59,0-2.19-.61-4.86-.19-6.99s2.25-4.53,3.32-6.51c4.47-8.27,8.94-16.54,13.4-24.81,.29-.53-.3-1.19-.86-.86-3.46,2.13-6.15-.81-7.4-3.94-1.38-3.46-1.63-7.72-.12-11.18,3.18-7.27,11.09-15.69,6.22-23.98l-.22,.86c2.81-1.9,5.63-3.81,8.44-5.71,.24-.16,.36-.42,.29-.71-1.96-8.15-4.39-17.86-.45-25.83,2.94-5.95,10.38-11.07,16.95-7.62l-.29-.71c-.46,3.36-.93,6.72-1.39,10.08-.04,.25,.02,.58,.29,.71,2.76,1.26,5.57,2.67,7.81,4.76,1.96,1.82,4.08,4.98,3.06,7.8-1.15,3.13-8.93,5.35-8.43,.43,.07-.71-1.05-.83-1.23-.17-1,3.71,1.38,6.19,4.86,7.06,4.15,1.03,8.9,.31,12.69-1.61l-.86-.22c3.41,7.73,7.34,15.22,11.83,22.37,1.02,1.63,2.07,3.24,3.15,4.84,.54,.8,1.08,1.59,1.64,2.38,.85,1.21,1.51,1.69,.97,3.11-.77,2.03-2.02,3.98-3,5.91-.47,.93-.94,1.85-1.41,2.78-.31,.6-1.02,1.43-.96,2.14,.05,.62,.77,1.41,1.07,1.91,.6,1.01,1.2,2.02,1.79,3.03,1.2,2.02,2.39,4.04,3.59,6.05,2.26,3.81,4.52,7.62,6.78,11.44,4.27,7.21,8.96,14.32,12.1,22.13s4.8,16.81-.05,24.27c-.37,.57,.34,1.09,.86,.86,5.38-2.44,6.98,6.12,7.4,9.69,.66,5.64-.27,11.22,.84,16.85,1.19,5.98,3.75,11.7,7.46,16.54,.98,1.28,2.03,2.5,3.16,3.64,.84,.85,3.01,2.15,3.18,3.28,.1,.66-.81,2.2-1.04,2.83-.35,.94-.69,1.89-1.04,2.83-.69,1.89-1.39,3.78-2.08,5.67-.16,.45,.34,.9,.77,.77,2.39-.74,4.78-1.48,7.17-2.23l-.71-.29c2.61,5.16,4.47,10.69,5.36,16.4,.84,5.41,.4,10.55-.24,15.94-.54,4.6-.12,9.03,1.61,13.36s4.74,6.95,7.25,10.53c2.97,4.25,3.12,9.51,1.89,14.39-1.11,4.39-1.48,8.82,.05,13.2,.56,1.6,1.43,3.04,2.26,4.51,1.37,2.43,2.43,4.98,3.37,7.61,2.3,6.47,4.51,13.36,2.92,20.27-1.4,6.12-6.64,11.77-5.83,18.32,.53,4.29,3.93,9.43,8.86,8.05l-.77-.77c-1.07,3.18-2.14,6.37-3.21,9.55-.53,1.59-1.01,3.21-1.6,4.77-.46,1.2-1.27,1.96-2.11,2.9-3.75,4.17-7.25,8.58-10.42,13.2-1.78,2.59-3.26,5.71-5.64,7.81-3.26,2.89-7.26,3.4-11.28,4.54-5.5,1.56-10.5,4.65-14.76,8.42l1.04,.28c-1.16-3.42-2.33-6.84-3.49-10.26-.17-.51-.85-.62-1.14-.15-2.87,4.5-5.74,9.01-8.6,13.51l1.16,.32c-.64-4.83-4.09-9.91-9.58-9.07-2.9,.44-4.32,2.73-6.81,4.04-2.21,1.16-4.63,1.35-6.66-.26-3.34-2.65-4.66-7.97-9.62-8.22-2.29-.12-4.17,1.08-6.06,2.2-.86,.51-2.17,1.41-2.79,.11-.45-.95-.04-2.5,.06-3.49,.35-3.16,.48-6.32-.69-9.35-.98-2.54-2.76-4.51-4.83-6.23-2.82-2.34-5.2-4.43-7.3-7.44-6.54-9.36-11.64-19.88-16.98-29.94-3.23-6.09-5.4-12.06-6.28-18.9-.56-4.4-2.93-7.8-5.67-11.12-2.13-2.59-4.16-5.37-5.51-8.45-2.05-4.67-4.41-9.19-6.48-13.84-.5-1.13-2.07-3.88-1.19-5.18,.99-1.47,4.26,.11,4.59-2.21,.28-1.96-2.82-4.08-3.8-5.43-1.77-2.43-2.44-5.39-2.47-8.36-.04-4.64,1.27-9.31,3.06-13.56,1.48-3.52,4.18-6.21,5.27-9.92,1.8-6.11-.84-12.39,1-18.5,1.5-4.98,6.15-7.88,8.09-12.62,3.04-7.42,.03-15.79-3.5-22.46-1.68-3.17-3.63-6.18-5.7-9.11l-.54,.94c5.25-.53,9.06-4.51,11.02-9.21,2.53-6.07,1.56-12.81,.46-19.09-1.32-7.52-2.25-14.97-2.12-22.62s1.17-15.38,3.08-22.85c.89-3.49,2.17-6.92,2.67-10.5,.44-3.11-.04-5.94-.8-8.96-1.77-6.99-.61-13.47,2.61-19.86,1.47-2.91,3.3-5.6,4.63-8.58s2.35-6.16,3.17-9.35c3.16-12.4,3.7-25.45,3.68-38.18,0-.8-1.25-.81-1.25,0,.02,11.55-.46,23.27-2.88,34.6-1.32,6.21-3.34,12.04-6.57,17.51-2.63,4.47-4.82,9.3-5.45,14.49-.36,2.96-.1,5.82,.6,8.7,.93,3.79,1.55,7.16,.75,11.05-.71,3.45-1.9,6.78-2.72,10.21s-1.42,6.66-1.87,10.04c-.96,7.1-1.16,14.3-.59,21.45,.63,7.95,3.13,15.83,2.95,23.82-.15,6.76-3.67,15.31-11.36,16.08-.42,.04-.84,.51-.54,.94,5.41,7.66,12.1,18.12,9.88,28.04-1.02,4.54-4.33,7.24-6.84,10.9-3.44,5.02-2.78,10.62-2.43,16.35,.2,3.32-.26,6.86-1.99,9.76-.99,1.66-2.26,3.04-3.12,4.81-1.53,3.15-2.65,6.57-3.32,10-.91,4.68-1,9.99,1.7,14.14,.76,1.16,1.71,2.16,2.64,3.19,.31,.34,1.14,1,1.21,1.49,.17,1.16-1.19,.88-1.9,.98-1.38,.18-2.52,.86-2.71,2.32s.58,3.15,1.15,4.49c1.28,3.01,2.79,5.93,4.19,8.88,1.12,2.37,2.08,4.86,3.31,7.17,2.2,4.15,5.63,7.3,8.04,11.26,2.8,4.58,2.49,10.07,4.03,15.08,2.11,6.84,5.96,13.08,9.35,19.34,2.8,5.18,5.59,10.37,8.59,15.43,1.85,3.11,3.76,6.25,6.11,9.02,2.85,3.37,7.19,5.33,9.26,9.37,1.65,3.22,1.44,6.76,1.06,10.24-.16,1.5-.58,3.7,.82,4.76,1.29,.98,2.81,.05,3.99-.65,2.4-1.44,4.99-2.78,7.69-1.13,3.71,2.27,4.67,7.76,9.45,8.56,1.75,.29,3.5-.21,5.04-1.03,1.23-.66,2.29-1.53,3.34-2.43,1.57-1.33,3.43-1.85,5.49-1.35,3.43,.83,5.25,4.51,5.68,7.72,.08,.59,.8,.88,1.16,.32,2.87-4.5,5.74-9.01,8.6-13.51l-1.14-.15c1.16,3.42,2.33,6.84,3.49,10.26,.16,.46,.68,.6,1.04,.28,4.23-3.75,9.22-6.75,14.7-8.23,3.87-1.04,7.53-1.67,10.75-4.24,2.26-1.8,3.64-4.37,5.2-6.75,3.28-4.97,6.95-9.69,10.91-14.15,.76-.86,1.8-1.71,2.44-2.67,.77-1.16,1.07-2.98,1.52-4.32,1.27-3.8,2.55-7.59,3.82-11.39,.15-.46-.33-.89-.77-.77-2.91,.82-5.18-1.32-6.36-3.8-1.32-2.77-1.15-5.63-.21-8.48,1.94-5.86,5.45-10.67,5.65-17.06,.19-5.99-1.8-11.75-3.81-17.3-.86-2.36-1.85-4.66-3.08-6.85-.84-1.49-1.75-2.94-2.3-4.57-.83-2.48-1.13-5.21-.9-7.81,.19-2.14,.89-4.17,1.32-6.26,.86-4.19,.45-8.86-1.75-12.59-2.08-3.52-5.31-6.12-7.15-9.83-2.18-4.41-2.81-9.2-2.27-14.04,.61-5.53,1.14-10.77,.3-16.32-.9-5.96-2.82-11.7-5.54-17.07-.12-.24-.45-.37-.71-.29-2.39,.74-4.78,1.48-7.17,2.23l.77,.77c1.47-4.02,2.95-8.03,4.42-12.05,.07-.19,0-.48-.16-.61-10.34-8.05-15.08-20.5-14.49-33.36,.23-5-.82-20.67-9.49-16.73l.86,.86c5.72-8.8,2.88-19.56-1.19-28.41-2.48-5.4-5.64-10.45-8.67-15.55-3.39-5.72-6.78-11.44-10.17-17.16-.93-1.57-1.86-3.14-2.79-4.71-.47-.78-.93-1.57-1.4-2.35-.6-1.01-.71-1.35-.29-2.44,1.39-3.57,3.56-7.01,5.29-10.43,.09-.19,.13-.45,0-.63-7.21-9.97-13.33-20.67-18.29-31.93-.14-.32-.58-.36-.86-.22-3.79,1.92-17.9,4.04-15.71-4.04l-1.23-.17c-.6,5.85,7.71,4.51,10.1,1.36,1.92-2.52,.92-6.01-.75-8.39-2.37-3.36-6.26-5.37-9.9-7.03l.29,.71c.46-3.36,.93-6.72,1.39-10.08,.04-.27-.02-.57-.29-.71-6.66-3.5-14.19,.79-17.85,6.62-5.25,8.36-2.62,19.33-.48,28.23l.29-.71c-2.81,1.9-5.63,3.81-8.44,5.71-.28,.19-.4,.55-.22,.86,5.75,9.78-7.3,18.75-7.39,28.38-.05,5.14,3.54,15.4,10.41,11.17l-.86-.86c-4.53,8.39-9.06,16.78-13.59,25.16-1.04,1.92-2.45,3.9-3.21,5.94-.61,1.64,0,3.8,.05,5.57,.16,4.86-.16,9.72-.93,14.53-.07,.42,.28,.96,.77,.77,4.01-1.53,8.21-1.52,12.22,.02l-.28-1.04c-3.4,3.58-6.81,7.15-10.21,10.73-.3,.32-.2,.74,.13,.98,8.95,6.61,9.06,21.85,.46,28.77-.18,.14-.2,.4-.16,.61,1.23,6.12,2.46,12.23,3.69,18.35l.77-.77c-.58-.23-3.12-1.69-3.71-.64-.45,.79,.87,1.63,1.35,2,1.88,1.44,6.18,4.06,6.51-.03,.05-.61-.9-.87-1.16-.32-3.3,6.94-6.61,13.88-9.91,20.82-.34,.72,.73,1.36,1.08,.63h0Z"/></g></g></g></svg>