<svg width="112" height="121" viewBox="0 0 112 121" fill="none" xmlns="http://www.w3.org/2000/svg">
<path d="M93.0193 119.904C93.0193 119.904 93.0187 119.979 93.0177 119.904H20.8321C20.8323 111.196 20.8308 117.213 20.8321 93C20.8325 85 30.1405 80.491 42.4359 76.762C52.0001 81 58.5001 81 70.0405 76.762C79.3637 79.7355 93.0258 83 93.0193 93C93.0037 116.507 93.0134 119.582 93.0177 119.904H93.0193Z" fill="white"/>
<path d="M93.0193 119.904C93.0193 119.904 93.0001 122 93.0193 93C93.0258 83 79.3637 79.7355 70.0405 76.762C58.5001 81 52.0001 81 42.4359 76.762C30.1405 80.491 20.8325 85 20.8321 93C20.8308 117.213 20.8323 111.196 20.8321 119.904H93.0193Z" stroke="#2873C9" stroke-width="2" stroke-linecap="round"/>
<path d="M73.0756 60.6274C73.0756 68.861 65.366 75.7619 55.5567 75.7619C45.7474 75.7619 38.0378 68.861 38.0378 60.6274C38.0378 52.3939 45.7474 45.4929 55.5567 45.4929C65.366 45.4929 73.0756 52.3939 73.0756 60.6274Z" fill="white" stroke="#2873C9" stroke-width="2"/>
<path d="M52.0714 11.0963L55.3584 37.2991C55.3877 37.5325 55.726 37.5325 55.7553 37.2991L59.0422 11.0963C59.0548 10.9963 59.1398 10.9212 59.2407 10.9212H63.5425C63.7129 10.9212 63.8053 10.7218 63.695 10.5918L55.7093 1.17974C55.6295 1.0856 55.4842 1.0856 55.4043 1.17974L47.4186 10.5918C47.3084 10.7218 47.4007 10.9212 47.5711 10.9212H51.873C51.9738 10.9212 52.0589 10.9963 52.0714 11.0963Z" stroke="#2873C9"/>
<path d="M95.1645 24.1003L78.4151 46.3327C78.274 46.5201 78.5634 46.7092 78.748 46.5502L100.653 27.6853C100.732 27.6175 100.856 27.6083 100.941 27.6642L104.324 29.8738C104.462 29.9635 104.668 29.8791 104.677 29.7296L105.36 18.2013C105.368 18.0787 105.232 17.9901 105.091 18.0253L91.8212 21.3318C91.6492 21.3747 91.6001 21.5623 91.7375 21.652L95.1202 23.8617C95.2057 23.9175 95.2248 24.0203 95.1645 24.1003Z" fill="#2873C9" stroke="#2873C9"/>
<path d="M16.8355 24.1003L33.5849 46.3327C33.726 46.5201 33.4366 46.7092 33.252 46.5502L11.3472 27.6853C11.2684 27.6175 11.144 27.6083 11.0586 27.6642L7.67584 29.8738C7.53845 29.9635 7.33159 29.8791 7.32273 29.7296L6.63957 18.2013C6.63231 18.0787 6.76788 17.9901 6.909 18.0253L20.1788 21.3318C20.3508 21.3747 20.3999 21.5623 20.2625 21.652L16.8798 23.8617C16.7943 23.9175 16.7752 24.0203 16.8355 24.1003Z" stroke="#2873C9"/>
</svg>
