<svg width="116" height="79" viewBox="0 0 116 79" fill="none" xmlns="http://www.w3.org/2000/svg">
<path d="M44.7584 77.9749C44.7584 77.9749 44.7579 78.0316 44.7574 77.9749H1.00036C1.00046 71.4029 0.999526 75.944 1.00033 57.6706C1.00059 51.6331 6.64287 48.2303 14.096 45.416C19.8936 48.6144 23.8337 48.6144 30.8292 45.416C36.4807 47.6601 44.7623 50.1238 44.7584 57.6706C44.7489 75.4108 44.7548 77.732 44.7574 77.9749H44.7584Z" fill="white"/>
<path d="M44.7584 77.9749C44.7584 77.9749 44.7467 79.5565 44.7584 57.6706C44.7623 50.1238 36.4807 47.6601 30.8292 45.416C23.8337 48.6144 19.8936 48.6144 14.096 45.416C6.64287 48.2303 1.00059 51.6331 1.00033 57.6706C0.999526 75.944 1.00046 71.4029 1.00036 77.9749H44.7584Z" stroke="#2873C9" stroke-width="2" stroke-linecap="round"/>
<path d="M32.2753 33.2395C32.2753 39.4902 27.6221 44.4159 22.0496 44.4159C16.4772 44.4159 11.824 39.4902 11.824 33.2395C11.824 26.9888 16.4772 22.063 22.0496 22.063C27.6221 22.063 32.2753 26.9888 32.2753 33.2395Z" fill="white" stroke="#2873C9" stroke-width="2"/>
<path d="M56.1161 28.0406L38.1424 29.8158C37.9061 29.8391 37.9117 30.1831 38.1489 30.2132L56.1887 32.4999C56.29 32.5128 56.3678 32.5994 56.3695 32.7011L56.4112 35.2679C56.4139 35.4335 56.6051 35.53 56.7351 35.4315L63.2018 30.5294C63.3054 30.4508 63.3028 30.2929 63.1966 30.2114L56.5674 25.1232C56.4342 25.021 56.246 25.1121 56.2487 25.2777L56.2905 27.8444C56.2921 27.9462 56.2171 28.0307 56.1161 28.0406Z" fill="#2873C9" stroke="#2873C9"/>
<path d="M114 56.9119C114 56.9119 114 56.9686 113.999 56.9119H70.2421C70.2422 50.3399 70.2412 54.881 70.242 36.6076C70.2423 30.5702 75.8846 27.1673 83.3377 24.353C89.1353 27.5514 93.0754 27.5514 100.071 24.353C105.722 26.5971 114.004 29.0608 114 36.6076C113.991 54.3478 113.996 56.669 113.999 56.9119H114Z" fill="#2873C9"/>
<path d="M114 56.9119C114 56.9119 113.988 58.4935 114 36.6076C114.004 29.0608 105.722 26.5971 100.071 24.353C93.0754 27.5514 89.1353 27.5514 83.3377 24.353C75.8846 27.1673 70.2423 30.5702 70.242 36.6076C70.2412 54.881 70.2422 50.3399 70.2421 56.9119H114Z" stroke="#2873C9" stroke-width="2" stroke-linecap="round"/>
<path d="M101.517 12.1765C101.517 18.4272 96.8636 23.353 91.2911 23.353C85.7186 23.353 81.0654 18.4272 81.0654 12.1765C81.0654 5.92578 85.7186 1 91.2911 1C96.8636 1 101.517 5.92578 101.517 12.1765Z" fill="#2873C9" stroke="#2873C9" stroke-width="2"/>
</svg>
