<svg width="134" height="119" viewBox="0 0 134 119" fill="none" xmlns="http://www.w3.org/2000/svg">
<path d="M117.047 79.75C116.893 79.75 116.819 79.9035 116.777 79.75H73.4767C73.4768 73.5431 73.4763 80.0345 73.4768 62.7763C73.477 55.1806 79.095 51.6579 86.5161 49C93.0227 52.8132 95.7653 53.2389 103.177 49C108.805 51.1194 115.492 53.2389 116.049 60.6569C116.786 76.4254 116.657 79.3158 116.777 79.75H117.047Z" fill="white"/>
<path d="M117.047 79.75C116.458 79.75 117.047 82 116.049 60.6569C115.492 53.2389 108.805 51.1194 103.177 49C95.7653 53.2389 93.0227 52.8132 86.5161 49C79.095 51.6579 73.477 55.1806 73.4768 62.7763C73.4763 80.0345 73.4768 73.5431 73.4767 79.75H117.047Z" stroke="#2873C9" stroke-width="2" stroke-linecap="round"/>
<g filter="url(#filter0_d_602_43)">
<rect x="4" y="79" width="126" height="31.5" rx="2" fill="white"/>
<rect x="5" y="80" width="124" height="29.5" rx="1" stroke="#2873C9" stroke-width="2"/>
</g>
<path d="M50 46.5C50 52.299 45.299 57 39.5 57C33.701 57 29 52.299 29 46.5C29 40.701 33.701 36 39.5 36C45.299 36 50 40.701 50 46.5Z" fill="white" stroke="#2873C9" stroke-width="2"/>
<path d="M104 38.5C104 43.7467 99.7467 48 94.5 48C89.2533 48 85 43.7467 85 38.5C85 33.2533 89.2533 29 94.5 29C99.7467 29 104 33.2533 104 38.5Z" fill="white" stroke="#2873C9" stroke-width="2"/>
<path d="M63.2427 73.2927V111.672C63.2427 112.753 62.3824 113.635 61.301 113.666L17.5707 114.94C16.4438 114.973 15.5125 114.068 15.5125 112.941C15.5123 103.106 15.5126 97.7846 15.5125 76.0732C15.5125 66.5209 21.3108 61.8714 29.1294 58.4303C29.7513 58.1566 30.4721 58.2363 31.038 58.6124C37.4339 62.864 40.5992 63.296 47.8904 58.6052C48.4659 58.2349 49.1909 58.1667 49.818 58.4406C55.8921 61.0928 62.6519 64.0738 63.2427 73.2927Z" fill="white" stroke="#2873C9" stroke-width="2" stroke-linecap="round"/>
<g filter="url(#filter1_d_602_43)">
<path d="M68.5099 23.2759C80.7975 22.1271 87.4558 7.69907 69.6073 1.70479C56.6612 -1.61383 46.8968 7.28979 52.9312 17.8839L51.2855 23.5L56.9903 21.2025C61.295 22.9125 63.8297 23.307 68.5099 23.2759Z" fill="url(#paint0_linear_602_43)" shape-rendering="crispEdges"/>
<path d="M68.5099 23.2759C80.7975 22.1271 87.4558 7.69907 69.6073 1.70479C56.6612 -1.61383 46.8968 7.28979 52.9312 17.8839L51.2855 23.5L56.9903 21.2025C61.295 22.9125 63.8297 23.307 68.5099 23.2759Z" stroke="#2873C9" stroke-width="2" stroke-linecap="round" stroke-linejoin="round" shape-rendering="crispEdges"/>
</g>
<defs>
<filter id="filter0_d_602_43" x="0" y="79" width="134" height="39.5" filterUnits="userSpaceOnUse" color-interpolation-filters="sRGB">
<feFlood flood-opacity="0" result="BackgroundImageFix"/>
<feColorMatrix in="SourceAlpha" type="matrix" values="0 0 0 0 0 0 0 0 0 0 0 0 0 0 0 0 0 0 127 0" result="hardAlpha"/>
<feOffset dy="4"/>
<feGaussianBlur stdDeviation="2"/>
<feComposite in2="hardAlpha" operator="out"/>
<feColorMatrix type="matrix" values="0 0 0 0 0 0 0 0 0 0 0 0 0 0 0 0 0 0 0.25 0"/>
<feBlend mode="normal" in2="BackgroundImageFix" result="effect1_dropShadow_602_43"/>
<feBlend mode="normal" in="SourceGraphic" in2="effect1_dropShadow_602_43" result="shape"/>
</filter>
<filter id="filter1_d_602_43" x="46.1033" y="0.000732422" width="39.4387" height="32.4993" filterUnits="userSpaceOnUse" color-interpolation-filters="sRGB">
<feFlood flood-opacity="0" result="BackgroundImageFix"/>
<feColorMatrix in="SourceAlpha" type="matrix" values="0 0 0 0 0 0 0 0 0 0 0 0 0 0 0 0 0 0 127 0" result="hardAlpha"/>
<feOffset dy="4"/>
<feGaussianBlur stdDeviation="2"/>
<feComposite in2="hardAlpha" operator="out"/>
<feColorMatrix type="matrix" values="0 0 0 0 0 0 0 0 0 0 0 0 0 0 0 0 0 0 0.25 0"/>
<feBlend mode="normal" in2="BackgroundImageFix" result="effect1_dropShadow_602_43"/>
<feBlend mode="normal" in="SourceGraphic" in2="effect1_dropShadow_602_43" result="shape"/>
</filter>
<linearGradient id="paint0_linear_602_43" x1="65.8224" y1="1" x2="65.8224" y2="23.5" gradientUnits="userSpaceOnUse">
<stop stop-color="#FFFEFE"/>
<stop offset="1" stop-color="#FFFEFE" stop-opacity="0"/>
</linearGradient>
</defs>
</svg>
