<?xml version="1.0" encoding="UTF-8"?><svg id="Calque_1" xmlns="http://www.w3.org/2000/svg" viewBox="0 0 1366 768"><defs><style>.cls-1,.cls-2,.cls-3,.cls-4,.cls-5,.cls-6,.cls-7{stroke-width:2px;}.cls-1,.cls-2,.cls-3,.cls-5,.cls-6,.cls-8,.cls-9,.cls-10,.cls-11,.cls-12{stroke:#000;}.cls-1,.cls-2,.cls-6,.cls-7,.cls-11,.cls-13,.cls-12{stroke-linecap:round;}.cls-1,.cls-6,.cls-7,.cls-13,.cls-12{stroke-linejoin:round;}.cls-1,.cls-14{opacity:.4;}.cls-15{opacity:.1;}.cls-16{fill:#f4ac00;}.cls-17{fill:#f2f2f2;}.cls-18{fill:#f9c9ff;}.cls-19{fill:#0083df;}.cls-20{fill:#0071bc;}.cls-21{fill:#fff;}.cls-22{fill:#ffeb94;}.cls-23,.cls-9{fill:#ffe4b4;}.cls-24{fill:#da8d19;}.cls-25,.cls-4{fill:#df3a16;}.cls-26,.cls-5{fill:#2873c9;}.cls-2,.cls-6,.cls-7,.cls-8,.cls-10,.cls-11,.cls-27,.cls-28,.cls-13,.cls-12{fill:none;}.cls-3,.cls-4,.cls-5,.cls-8,.cls-9,.cls-10,.cls-27,.cls-28{stroke-miterlimit:10;}.cls-3,.cls-29,.cls-30{fill:#63c6fa;}.cls-4,.cls-7,.cls-13{stroke:#020303;}.cls-8{stroke-width:.75px;}.cls-10{opacity:.9;}.cls-31{opacity:.3;}.cls-11,.cls-13,.cls-12{stroke-width:3px;}.cls-29{opacity:.6;}.cls-30,.cls-32{opacity:.7;}.cls-32{fill:#007dd4;}.cls-27{stroke:#2873c9;}.cls-27,.cls-28{stroke-width:36px;}.cls-28{stroke:#63c6fa;}</style></defs><path d="M1.88,283.39c.93,0,.93-1.44,0-1.44s-.93,1.44,0,1.44h0Z"/><rect class="cls-29" x="691.01" y="3.46" width="255.47" height="261.82" rx="127.74" ry="127.74" transform="translate(42.51 427.38) rotate(-30)"/><rect class="cls-26" x="532.49" y="451.94" width="255.47" height="261.82" rx="127.74" ry="127.74" transform="translate(-202.97 408.2) rotate(-30)"/><rect class="cls-32" x="587.31" y="112.88" width="211.9" height="213.19" rx="102.48" ry="102.48" transform="translate(-16.86 376.04) rotate(-30)"/><rect class="cls-28" x="310.61" y="38.81" width="682.5" height="683" rx="341.25" ry="341.25"/><rect class="cls-27" x="343.82" y="32.31" width="682.5" height="683" rx="341.25" ry="341.25"/><path d="M711.24,488.03c.48,0,.48-.75,0-.75s-.48,.75,0,.75h0Z"/><g class="cls-14"><path d="M797.67,654.51c.11,1.85-7.07,4.39-7.07,10.25l-1.18-1.46c-3.45-5.43-17.75-26.86-29.53-34.18l13.86-4.15c9.24,5.96,17.03,27.68,23.92,29.54"/><path d="M796.8,654.28c-.38,1.88-3.94,3.64-5.08,5.15-1.27,1.67-1.84,3.27-2.02,5.33l1.54-.64c-9.9-12.3-17.22-26.93-30.89-35.78l-.21,1.64,10.54-3.15c.56-.17,1.51-.61,2.11-.63,1.71-.07,.07-.59,1.86,.54,2.28,1.45,4.21,4.43,5.71,6.53,3.35,4.69,6.09,9.77,9.33,14.53,1.98,2.91,4.26,6.37,7.75,7.58,1.1,.38,1.57-1.36,.48-1.74-4.89-1.7-7.97-8.69-10.54-12.82-2.98-4.81-5.92-9.93-9.96-13.97-2.98-2.98-3.5-2.87-7.22-1.76-3.51,1.05-7.03,2.1-10.54,3.15-.76,.23-.86,1.22-.21,1.64,13.5,8.74,20.75,23.36,30.53,35.5,.54,.67,1.48,.05,1.54-.64,.32-3.72,2.67-5.28,5.12-7.52,.82-.75,1.68-1.35,1.91-2.49s-1.51-1.61-1.74-.48h0Z"/></g><g class="cls-14"><path d="M815.35,655.98c6.89-1.86,16.77-17.47,30.91-24.79l7.46,7.26c-17.46,12.05-13.86,12.44-30.13,26.31l-1.18,1.46c0-5.86-6.85-7.73-6.74-9.58l-.33-.67Z"/><path d="M815.59,656.85c7.67-2.51,13.45-11.23,19.26-16.4,2.52-2.25,5.16-4.38,8-6.22,.49-.32,3.02-2.31,2.86-2.32,.28,0,.87,.93,1.08,1.05,2.29,1.36,4.37,4.25,6.3,6.12l.18-1.41c-5.78,4.02-11.33,8.19-16.28,13.2-4.87,4.93-10.9,9.37-15.21,14.71l1.54,.64c-.45-5.39-5.11-6.45-7.19-10.7-.51-1.04-2.06-.13-1.55,.91,1.87,3.83,6.54,4.93,6.95,9.79,.06,.69,1,1.3,1.54,.64,4.15-5.15,9.95-9.35,14.62-14.11,5.03-5.13,10.6-9.42,16.5-13.52,.46-.32,.62-.98,.18-1.41-2.49-2.42-4.98-4.84-7.46-7.26-.29-.29-.73-.33-1.09-.14-6.35,3.43-11.75,8.12-16.89,13.14-3.98,3.89-8.33,9.76-13.8,11.55-1.1,.36-.63,2.1,.48,1.74Z"/></g><path class="cls-1" d="M827.93,679.4c3.3,3.46,1.1,12.69-4.41,6.92"/><g class="cls-14"><path d="M822.54,512.65c1.45,0,1.45-2.25,0-2.25s-1.45,2.25,0,2.25h0Z"/></g><g class="cls-14"><path d="M774.45,506.93c.51-.85,1.7-.79,2.65-1,3.42-.75,4.17-5.33,4.18-8.92,3.23,1.88,7.31,1.4,10.8,.08,3.49-1.32,6.66-3.41,10.15-4.73,3.34-1.26,6.9-1.8,10.45-2.03"/></g><path class="cls-14" d="M840.51,541.25c-6.24-.57-11.93-.78-14.94-3.45-.56-.49-1.78-1.57-1.5-2.71,.23-.96,1.41-1.45,1.82-1.61,3.17-.68,9.92-1.61,17.91,.58"/><g class="cls-14"><path d="M790.75,556.35c5.79,0,5.8-9,0-9s-5.8,9,0,9h0Z"/></g><path class="cls-14" d="M790.39,540.5c5.03-.1,12.54-.17,15.2-2.39,.37-.31,1.24-1.03,1.27-2.08,.04-1.13-.89-1.98-1.21-2.24-3.11-.9-9.77-2.31-17.9-.69-6.33,1.26-10.24,3.41-13.1,5.66-.05,.13-.43,1.15,.17,2.08,.62,.97,11.44-.25,15.56-.34Z"/><g class="cls-14"><path d="M802.07,580.45c5.75,4.94,13.09,5.16,18.96,.57"/><path d="M801.54,580.98c2.78,2.35,6.15,3.93,9.83,4.07s7.17-1.18,10.04-3.38c.76-.58,0-1.88-.76-1.3-2.6,2-5.69,3.25-9.01,3.19s-6.5-1.5-9.04-3.64c-.73-.62-1.8,.44-1.06,1.06h0Z"/></g><g class="cls-14"><path d="M779.4,608.77c7.44,9.84,20.17,15.75,32.84,15.24"/><path d="M778.75,609.15c7.83,10.24,20.64,16.06,33.49,15.61,.96-.03,.97-1.53,0-1.5-12.28,.43-24.69-5.05-32.19-14.87-.58-.76-1.88-.01-1.3,.76h0Z"/></g><g class="cls-14"><path d="M773.46,586.38c1.01-7.25,2.02-13.47,3.03-20.73"/><path d="M774.19,586.58c.97-6.92,2.07-13.81,3.03-20.73,.13-.94-1.31-1.35-1.45-.4-.97,6.92-2.07,13.81-3.03,20.73-.13,.94,1.31,1.35,1.45,.4h0Z"/></g><g class="cls-14"><path d="M782.03,531.14c4.65-7.21,12.86-11.87,21.3-12.1"/><path d="M783,531.71c4.46-6.82,12.16-11.27,20.33-11.54,1.44-.05,1.45-2.3,0-2.25-8.98,.3-17.36,5.16-22.27,12.66-.8,1.22,1.15,2.34,1.94,1.14h0Z"/></g><g class="cls-14"><path d="M775.13,508.21c1.81,2.81,1.86,6.47,1.09,9.74-.76,3.27-2.26,6.31-3.37,9.47-1.42,4.01-2.23,8.25-2.4,12.51"/><path d="M774.16,508.78c2.87,4.69,.77,10.28-1.08,14.93-2.09,5.26-3.49,10.55-3.75,16.23-.07,1.45,2.18,1.44,2.25,0,.14-3.06,.59-6.09,1.38-9.05s1.91-5.54,2.96-8.28c1.82-4.77,3.02-10.32,.18-14.96-.75-1.23-2.7-.1-1.94,1.14h0Z"/></g><g class="cls-14"><path d="M771.98,548.11c.49,3.75,1.93,7.37,4.14,10.4,1.44-5.26,2.87-10.53,4.31-15.79"/><path d="M770.9,548.41c.52,3.84,1.99,7.52,4.25,10.67,.54,.75,1.78,.73,2.06-.27,1.44-5.26,2.87-10.53,4.31-15.79,.38-1.4-1.79-2-2.17-.6-1.44,5.26-2.87,10.53-4.31,15.79l2.06-.27c-2.17-3.01-3.52-6.46-4.02-10.13-.08-.61-.85-.93-1.38-.79-.65,.17-.87,.78-.79,1.38h0Z"/></g><g class="cls-14"><path d="M812.62,490.43c-3.55,.23-7.11,.76-10.45,2.03-3.49,1.32-6.66,3.4-10.15,4.73s-7.57,1.8-10.8-.08c0,3.58-.76,8.17-4.18,8.92-.95,.21-2.14,.14-2.65,1"/><path d="M812.62,489.31c-2.72,.19-5.45,.52-8.09,1.22s-5.15,1.87-7.6,3.12c-4.53,2.31-10.14,5.23-15.14,2.49-.75-.41-1.69,.1-1.69,.97-.02,2.13-.15,4.6-1.37,6.42-1.32,1.97-3.89,1.09-5.3,2.92-.88,1.15,1.07,2.27,1.94,1.14,.35-.45,1.47-.36,1.98-.48s1.01-.32,1.46-.58c.93-.55,1.66-1.42,2.16-2.36,1.13-2.14,1.37-4.67,1.38-7.05l-1.69,.97c4.86,2.67,10.35,1,15-1.28,2.61-1.27,5.14-2.73,7.91-3.64,2.93-.96,5.98-1.39,9.05-1.6,1.44-.1,1.45-2.35,0-2.25h0Z"/></g><g class="cls-14"><path d="M813.25,566.11c.39-2.43,.78-4.85,1.18-7.28"/><path d="M814.7,566.5c.39-2.43,.78-4.85,1.18-7.28,.31-1.89-2.58-2.7-2.89-.8-.39,2.43-.78,4.85-1.18,7.28-.31,1.89,2.58,2.7,2.89,.8h0Z"/></g><g class="cls-14"><path d="M785.76,546.5c4.27-1.04,7.05-.92,11.2,1.55"/><path d="M785.96,547.23c1.75-.42,3.56-.73,5.37-.52s3.63,1.04,5.25,2c.83,.49,1.59-.8,.76-1.3-1.82-1.07-3.75-1.92-5.85-2.19-1.99-.25-3.99,.09-5.92,.56-.94,.23-.54,1.67,.4,1.45h0Z"/></g><path class="cls-14" d="M804.67,623.94c7.92,1.05,10.66,0,20.39-1.69-1.41,2.71-4.56,8.02-10.12,11.88-5.52,3.83-10.62,4.3-13.12,4.32-1.73-.14-5.53-.78-9.13-4.32-6.29-6.18-6.72-16.04-6.77-17.51"/><g class="cls-14"><path d="M780.55,626.22c2.02-2.07,4.23-6.15,3.96-9.45"/><path d="M781.19,626.86c2.49-2.67,4.39-6.37,4.22-10.09-.05-1.15-1.85-1.16-1.8,0,.14,3.25-1.52,6.48-3.69,8.81-.79,.85,.48,2.12,1.27,1.27h0Z"/></g><g class="cls-14"><path d="M842.03,634.13c1.93,0,1.93-3,0-3s-1.93,3,0,3h0Z"/></g><rect class="cls-5" x="677.49" y="431.48" width="237.18" height="230.38" rx="114.18" ry="114.18"/><path class="cls-23" d="M761.44,596.96c.28,3.36-8.96,17.03-10.98,19.14,4.55,14.92,17.63,25.75,33.05,27.4,16.37,1.75,32.3-7.14,39.45-22.13-1.87-3.22-3.81-7.34-5.58-12.22-1.8-4.93-3.18-9.99-3.12-12.97l.16-2.37c-14.02,13.24-36.98,13.6-51.84,1.53l-1.14,1.62Z"/><path class="cls-20" d="M717.52,689.66c24.98,4.3,50.04,7.79,75.03,11.97,30.04,5.03,65.18,11.4,94.59,19.75l-3-29c-4.45-24.89-3.99-34.82-14-48-10.44-13.75-35.43-20.63-47.44-31.94l-10.11,9.65c-3.7,4.9-14.91,3.23-16.91,4.23,0,0-2,9-5,13-4.06,5.41-13.07,2.46-14.76,.1-.94-1.31-1.92-9.66-4.24-12.1-6.07-6.39-16.03-9.82-19.08-20.92l-3.46-.77c-19.19,7.54-35.23,13.9-47,21.75-9,6-22.02,32.26-31,52,12.32,2.97,33.97,8.01,46.38,10.28Z"/><path d="M750.27,604.67c-14.98,6-31.05,11.47-44.99,19.65-16.81,9.87-22.41,30.57-30.77,47.02-.42,.82,.82,1.55,1.24,.73,8.52-16.78,14.14-37.5,31.52-47.23,13.62-7.63,28.91-12.99,43.38-18.78,.85-.34,.48-1.73-.38-1.39h0Z"/><path d="M821.64,613.35c14.25,11.99,34.15,16.43,46.72,30.55,11.85,13.31,11.9,31.98,15.08,48.61,.17,.91,1.56,.52,1.39-.38-3.07-16.08-3.21-33.94-13.82-47.3-12.39-15.6-33.48-19.99-48.35-32.5-.7-.59-1.73,.42-1.02,1.02h0Z"/><path class="cls-6" d="M788.79,671.01c2.82-.22,3.91,4.66,.11,4.93"/><path d="M799.25,493.04c1.45,0,1.45-2.25,0-2.25s-1.45,2.25,0,2.25h0Z"/><path class="cls-22" d="M751.16,487.33c.51-.85,1.7-.79,2.65-1,3.42-.75,4.17-5.33,4.18-8.92,3.23,1.88,7.31,1.4,10.8,.08,3.49-1.32,6.66-3.41,10.15-4.73,3.34-1.26,6.9-1.8,10.45-2.03,17.59-1.14,35.53,5.32,48.54,17.49,3.24,3.03,6.26,6.52,7.61,10.79,.44,.77,1.11,2.16,1.25,4.01,.08,1.09-.04,2.02-.18,2.7,.02,1.04,.24,2.54,0,4.29-.96,7.04-.54,14.44-2.89,21.13-9.06,25.76-9.06,12.29-10.08,7.11l.22-20.5c-.31-5.77-1.21-12.43-6.01-15.46-2.93-1.86-6.66-1.82-10.04-1.13-3.38,.69-6.64,1.99-10.05,2.48-6.28,.91-12.62-.95-18.52-3.32l-9.14-.99c-8.44,.22-16.64,4.89-21.3,12.1l-1.6,11.59c-1.44,5.26-2.87,10.53-4.31,15.79-2.21-3.03-3.65-6.65-4.14-10.4-.5-.34-1.53-1.15-2.11-2.58-1.11-2.74,.41-5.31,.58-5.6,.24-5.58,1.42-9.73,2.4-12.51,1.12-3.16,2.61-6.2,3.37-9.47,.5-2.14,.6-5.37-1.09-9.74"/><path class="cls-23" d="M752.03,541.82c-1.01,6.59-2.11,11.09-2.56,15.52-.82,3.9-1.71,10.97,.7,19.25,1.62,5.59,4.2,9.84,6.25,12.65,2.03,2.65,6.59,7.81,14.46,11.44,5.7,2.63,12.05,3.97,18.38,3.72,12.67-.51,22.39-5.24,29.01-15.59,1.63-1.98,3.23-4.17,4.73-6.58,7.87-12.57,9.55-25.26,9.65-34,.49-2.09,.93-4.34,1.31-6.73,.35-2.26,.62-4.52,.81-6.8l-.66-19c-.31-5.25-1.21-11.29-6.01-14.05-2.93-1.69-6.66-1.66-10.04-1.03-3.38,.63-6.64,1.81-10.05,2.25-6.28,.82-12.62-.87-18.52-3.01-1.25-.19-2.55-.36-3.91-.51-1.83-.19-3.58-.32-5.23-.4-2.37,.08-7.04,.52-12.07,3.12-3.69,1.9-6.9,4.6-9.23,7.88-.92,4.3-1.85,8.62-2.8,12.95-1.39,6.34-2.79,12.64-4.22,18.9Z"/><path d="M815.86,537.87c5.79,0,5.8-9,0-9s-5.8,9,0,9h0Z"/><path d="M817.23,521.64c-6.24-.57-11.93-.78-14.94-3.45-.56-.49-1.78-1.57-1.5-2.71,.23-.96,1.41-1.45,1.82-1.61,3.17-.68,9.92-1.61,17.91,.58,6.2,1.7,9.9,4.12,12.55,6.57,.04,.13,.32,1.18-.35,2.06-.7,.92-11.38-1.06-15.48-1.44Z"/><path d="M768.46,536.75c5.79,0,5.8-9,0-9s-5.8,9,0,9h0Z"/><path d="M767.11,520.9c5.03-.1,12.54-.17,15.2-2.39,.37-.31,1.24-1.03,1.27-2.08,.04-1.13-.89-1.98-1.21-2.24-3.11-.9-9.77-2.31-17.9-.69-6.33,1.26-10.24,3.41-13.1,5.66-.05,.13-.43,1.15,.17,2.08,.62,.97,11.44-.25,15.56-.34Z"/><path d="M779.88,561.46c2.45,2.4,5.61,3.96,9.07,4.03s6.69-1.36,9.32-3.54c.74-.62-.32-1.67-1.06-1.06-2.32,1.93-5.21,3.16-8.26,3.1s-5.85-1.47-8.01-3.59c-.69-.68-1.75,.38-1.06,1.06h0Z"/><path d="M755.46,589.55c11.86,15.51,34.94,20.34,51.95,10.58,4.5-2.59,8.35-6.15,11.6-10.17,.6-.74-.45-1.81-1.06-1.06-5.5,6.82-12.64,11.84-21.25,13.78-9.32,2.1-19.2,.88-27.65-3.6-4.76-2.52-9-6-12.28-10.28-.58-.76-1.88-.01-1.3,.76h0Z"/><path d="M751.16,563.93c.43-6.05,2.5-11.82,2.8-17.88,.05-.96-1.45-.96-1.5,0-.14,2.92-.69,5.74-1.34,8.59-.7,3.07-1.24,6.15-1.46,9.29-.07,.96,1.43,.96,1.5,0h0Z"/><path d="M759.71,512.1c4.46-6.82,12.16-11.27,20.33-11.54,1.44-.05,1.45-2.3,0-2.25-8.98,.3-17.36,5.16-22.27,12.66-.8,1.22,1.15,2.34,1.94,1.14h0Z"/><path d="M788.88,501.51c3.76,1.49,7.61,2.77,11.63,3.31s7.77,.15,11.62-.9,7.41-2.36,11.27-1.87c3.39,.43,5.9,2.49,7.31,5.54s1.77,6.82,1.96,10.27c.08,1.44,2.33,1.45,2.25,0-.33-5.98-1.22-13.56-7.11-16.75-3.39-1.83-7.41-1.61-11.06-.78-4.35,.99-8.44,2.62-12.97,2.51-4.96-.11-9.75-1.69-14.32-3.5-1.35-.53-1.93,1.64-.6,2.17h0Z"/><path d="M838.55,545.24c5.16-3.64,5.74-10.4,6.53-16.15,.54-3.93,1.08-7.86,1.62-11.79s.91-7.72,1.65-11.52c.28-1.41-1.89-2.02-2.17-.6-.68,3.48-1.04,7.03-1.52,10.54-.52,3.77-1.03,7.53-1.55,11.3-.73,5.3-.84,12.85-5.7,16.28-1.17,.83-.05,2.78,1.14,1.94h0Z"/><path d="M750.87,489.17c2.87,4.69,.77,10.28-1.08,14.93-2.09,5.26-3.49,10.55-3.75,16.23-.07,1.45,2.18,1.44,2.25,0,.14-3.06,.59-6.09,1.38-9.05s1.91-5.54,2.96-8.28c1.82-4.77,3.02-10.32,.18-14.96-.75-1.23-2.7-.1-1.94,1.14h0Z"/><path d="M747.61,528.8c.52,3.84,1.99,7.52,4.25,10.67,.54,.75,1.78,.73,2.06-.27,1.44-5.26,2.87-10.53,4.31-15.79,.38-1.4-1.79-2-2.17-.6-1.44,5.26-2.87,10.53-4.31,15.79l2.06-.27c-2.17-3.01-3.52-6.46-4.02-10.13-.08-.61-.85-.93-1.38-.79-.65,.17-.87,.78-.79,1.38h0Z"/><path d="M832.66,539.93c-.36,4.81-.97,9.6-1.3,14.41-.07,.96,1.43,.96,1.5,0,.33-4.81,.94-9.6,1.3-14.41,.07-.96-1.43-.96-1.5,0h0Z"/><path d="M846.57,498.81c-2.01-6.08-6.86-10.73-11.75-14.62s-10.48-7.18-16.37-9.61-11.98-3.96-18.24-4.64-13.54-.67-19.86,1.23c-3.72,1.12-7,3.18-10.52,4.75s-7.74,2.57-11.32,.61c-.75-.41-1.69,.1-1.69,.97-.02,2.13-.15,4.6-1.37,6.42-1.32,1.97-3.89,1.09-5.3,2.92-.88,1.15,1.07,2.27,1.94,1.14,.35-.45,1.47-.36,1.98-.48s1.01-.32,1.46-.58c.93-.55,1.66-1.42,2.16-2.36,1.13-2.14,1.37-4.67,1.38-7.05l-1.69,.97c6.05,3.32,12.5-.01,18.01-2.79,3.23-1.63,6.51-2.79,10.09-3.33,3.26-.49,6.61-.6,9.91-.49,12.49,.41,24.77,4.62,34.98,11.8,5.59,3.93,11.83,9.06,14.04,15.76,.45,1.37,2.63,.78,2.17-.6h0Z"/><path d="M791.12,546.82c.39-2.43,.78-4.85,1.18-7.28,.24-1.51-2.07-2.16-2.31-.64-.39,2.43-.78,4.85-1.18,7.28-.24,1.51,2.07,2.16,2.31,.64h0Z"/><g><path class="cls-21" d="M776.9,583.34c.35-1.23,3.88-.73,10.99-1.49,4.39-.47,7.94-1.18,10.26-1.72-.65,1.24-1.37,2.18-1.94,2.83-.8,.9-1.54,1.51-1.96,1.84-.8,.61-1.54,1.04-2.16,1.36-1.52,.8-4.65,2.44-8.41,1.77-3.63-.64-7.15-3.3-6.78-4.59Z"/><path d="M777.27,583.44c.23-.66,1.98-.6,2.49-.64,1.86-.14,3.73-.2,5.59-.34,4.34-.34,8.66-1,12.91-1.97l-.42-.55c-1.91,3.56-5.21,6.07-9.05,7.25-2.32,.71-4.72,.68-7-.17-1.07-.4-2.12-.94-3.03-1.63-.5-.38-1.62-1.21-1.48-1.95,.09-.47-.63-.67-.72-.2-.3,1.63,1.96,2.98,3.12,3.62,2.37,1.32,5.07,1.89,7.75,1.42,4.63-.8,8.86-3.86,11.07-7.97,.16-.29-.1-.62-.42-.55-4.85,1.11-9.78,1.78-14.75,2.08-1.64,.1-3.3,.1-4.93,.34-.71,.11-1.57,.28-1.84,1.05-.16,.46,.57,.65,.72,.2Z"/></g><path class="cls-15" d="M781.38,604.33c7.92,1.05,10.66,0,20.39-1.69-1.41,2.71-4.56,8.02-10.12,11.88-5.52,3.83-10.62,4.3-13.12,4.32-1.73-.14-5.53-.78-9.13-4.32-6.29-6.18-6.72-16.04-6.77-17.51"/><path d="M758.04,607.07c2.33-3.18,4.92-7.56,4.77-11.64-.04-1.15-1.84-1.16-1.8,0,.14,3.76-2.37,7.8-4.53,10.73-.69,.93,.88,1.83,1.55,.91h0Z"/><path d="M811.87,596.04c.02,6.38,2.21,12.38,5.57,17.74,1.02,1.63,3.62,.13,2.59-1.51-3.09-4.93-5.14-10.35-5.16-16.23,0-1.93-3.01-1.93-3,0h0Z"/><path d="M757.6,491.18c1.45,0,1.45-2.25,0-2.25s-1.45,2.25,0,2.25h0Z"/><path class="cls-17" d="M790.91,636.84c-.08,4.15-3.58,8.26-4,10.06-1.81,7.76-1.34,8.89-4,14.53-1.32-4.46-2.65-8.93-4-13.41-1.17-3.9-2.34-7.77-3.52-11.64"/><path d="M779.57,699.33c.96-7.62,2.08-15.21,3.03-22.83,1.03-8.27,1.46-16.59,4.16-24.54,3.02-8.91,6.9-17.51,9.93-26.45h-1.74c1.95,5.69,3.9,11.38,5.85,17.06,.2,.57,1.05,.97,1.5,.4,7.33-9.33,14.67-18.67,22-28,.39-.49,.32-1.04-.18-1.41l-4-3c-.25-.19-.65-.15-.91,0-8,4.63-16.22,9-24,14-.97,.62-.07,2.18,.91,1.55,4.64-2.98,9.5-5.62,14.27-8.37,2.74-1.58,5.75-2.99,8.33-4.82,.95-.67,1.6-.43,.67-.68,1.18,.32,2.81,2.11,3.83,2.87l-.18-1.41c-7.33,9.33-14.67,18.67-22,28l1.5,.4c-1.95-5.69-3.9-11.38-5.85-17.06-.29-.85-1.45-.86-1.74,0-3.14,9.28-7.32,18.22-10.28,27.52-2.38,7.45-2.81,15.15-3.74,22.86s-2.15,15.94-3.16,23.93c-.14,1.15,1.66,1.14,1.8,0h0Z"/><path class="cls-6" d="M788.63,691.38c2.82-.22,3.91,4.66,.11,4.93"/><polyline class="cls-20" points="770.95 624.82 762.95 641.82 749.13 606.38 753.13 603.38 769.95 623.82 770.95 624.82"/><path d="M772.31,624.69c-6.72-6.72-12.44-14.67-18.54-21.95-.23-.27-.8-.36-1.09-.14l-4,3c-.29,.22-.57,.63-.41,1.02,4.85,11.98,9.69,23.97,14.54,35.95,.26,.63,1.28,.99,1.64,.21,2.67-5.67,5.33-11.33,8-17l-1.64-.21c3.81,12.99,8.22,25.89,11.24,39.1,.26,1.13,1.99,.65,1.74-.48-3.02-13.21-7.43-26.11-11.24-39.1-.2-.69-1.3-.95-1.64-.21-2.67,5.67-5.33,11.33-8,17l1.64,.21c-4.77-11.78-9.52-23.57-14.3-35.35-.06-.15-.23-.41-.23-.57-.03,1.42-.31,.56,.84,.04,.86-.39,1.52-1.27,2.34-1.75s-1.25-.67-.42-.12c2.24,1.5,4.26,5.09,5.97,7.13,4.04,4.82,7.85,10.05,12.3,14.5,.82,.82,2.09-.45,1.27-1.27h0Z"/><g><polyline class="cls-20" points="795.88 625.22 801.73 642.29 823.73 614.29 819.73 611.29 797.73 624 795.73 625.29"/><path d="M795.01,625.46c1.95,5.69,3.9,11.38,5.85,17.06,.2,.57,1.05,.97,1.5,.4,7.33-9.33,14.67-18.67,22-28,.39-.49,.32-1.04-.18-1.41l-4-3c-.25-.19-.65-.15-.91,0-8,4.63-16.22,9-24,14-.97,.62-.07,2.18,.91,1.55,4.64-2.98,9.5-5.62,14.27-8.37,2.74-1.58,5.75-2.99,8.33-4.82,.95-.67,1.6-.43,.67-.68,1.18,.32,2.81,2.11,3.83,2.87l-.18-1.41c-7.33,9.33-14.67,18.67-22,28l1.5,.4c-1.95-5.69-3.9-11.38-5.85-17.06-.37-1.09-2.11-.62-1.74,.48h0Z"/></g><polygon class="cls-31" points="766.17 639.01 768.38 643.38 775.13 637.38 771.76 627.38 766.17 639.01"/><polygon class="cls-31" points="801.35 639.24 799.14 643.6 792.39 637.6 795.77 627.6 801.35 639.24"/><path d="M810.51,531.14c1.46-.91,3.05-1.73,4.79-1.9,1.95-.2,3.74,.52,5.28,1.68,.39,.29,.76-.36,.38-.65-1.64-1.23-3.59-1.98-5.66-1.78-1.87,.19-3.59,1.02-5.16,2.01-.41,.25-.03,.9,.38,.65h0Z"/><path d="M773.72,529.87c-1.38-1.43-3.12-2.53-5.16-2.57s-4.09,1.03-5.74,2.28c-.38,.29,0,.94,.38,.65,1.51-1.14,3.28-2.16,5.22-2.18s3.5,1.02,4.77,2.35c.33,.35,.86-.18,.53-.53h0Z"/><path class="cls-3" d="M505.95,259.99c-58.44,0-105.82-47.38-105.82-105.82h0c0-60.02,48.66-108.68,108.68-108.68h6.56c60.02,0,108.68,48.66,108.68,108.68h0c0,58.44-47.38,105.82-105.82,105.82"/><path class="cls-19" d="M522.68,211.72c-1.68,28.67-3.46,54.61-5.26,77.82,4.76,1.62,9.51,3.28,14.25,4.95,11.61,4.1,23.32,7.93,34.77,12.51,8.8-3.35,17.6-6.69,26.77-8.73,5.55-1.24,11.2-2.21,16.87-3.13-.52-18.67-1-39.25-.7-61.93-2.36-14.99-23.35-24.97-40.15-26.18l-17.37-7.43-11.11-5.9c-1.51-.97-3.05-1.98-4.1-3.48-1.39-1.99-1.72-4.57-2.75-6.79l1.5-3.22c-9.34,14.42-28.09,19.22-40.51,7.78l-3.55-3.06c-1.58,4.41-5.58,10.65-14.58,13.78l-5,2.08c-24,12.5-36,19.78-41.26,44.76-1.46,6.92-2.31,13.96-3.26,20.98,5.88,.85,11.75,1.81,17.59,2.91,14.86,2.79,29.53,6.57,44.05,10.91,3.82-25.04,6.58-48.86,7.96-71.3,1.33,5.54,5.49,9.79,10.64,10.85,6.02,1.25,12.35-2.08,15.2-8.18Z"/><path class="cls-15" d="M496.21,187.99c5.01-1.76,11.12-3.47,18.17-4.57,7.78-1.22,14.7-1.39,20.37-1.14-.84,2.43-2.86,7.29-7.45,11.66-4.56,4.34-9.36,6-11.76,6.65-1.69,.34-5.44,.82-9.56-.96-7.19-3.11-9.46-10.53-9.78-11.64Z"/><path class="cls-23" d="M469.43,134.28c.26,5.24,.78,11.15,1.79,16.3,.73,3.49,1.91,7.61,3.84,12.04,1.11,2.54,2.3,4.8,3.47,6.79,.94,1.91,2.18,3.94,3.64,6.1,.43,.64,.94,1.32,1.63,2.15,1.6,1.85,3.42,3.79,5.48,5.77,2.18,2.1,4.31,3.92,6.32,5.51,1.28,1.01,9.38,7.57,20.41,5.32,7.06-1.44,13.75-5.84,18.21-12.45,2.35-2.22,5.17-5.37,7.68-9.58,1.46-2.46,2.54-4.8,3.33-6.87,.92-2.69,1.83-5.82,2.5-9.36,.67-3.53,1.11-7.01,1.18-9.08l.21-2.46c.12-5.25-.37-11.16-.99-16.37l-10.9-33.19-17.31-6.5-31.78,2.72-16.66,15.96-2.04,27.21Z"/><path class="cls-16" d="M507.16,77.32l-2.55,.17c-3.49,1.62-7.44,2.91-11.18,3.72s-7.76,.74-11.24-.93c.32,.8,.02,1.81-.66,2.29-.78,.55-1.82,.38-2.76,.54s-1.94,1.09-1.53,1.98c-1.71,.47-3.4,.99-5.08,1.56l-2.74,3.92c-2.89,6.67-7.73,12.38-13.71,16.18,1.47,.37,2.9,.89,4.28,1.55-1.07,2.52-1.89,5.16-2.46,7.86-.16,.76-.29,1.59,.05,2.29,.34,.7,1.35,1.06,1.84,.47,.89,1.77-.59,3.78-.78,5.76-.3,3.2,2.68,5.53,4.74,7.95,2.19,2.58,3.54,5.92,3.78,9.35,.04,.57,.06,1.18,.36,1.65,.3,.48,2.47,.14,2.85-.26,0-4.91-1.03-10.44,.44-17.27,1.19-5.52,2.79-10.28,4.39-14.19,.19-.51,1.3-2.45,3.59-3.99,1.48-.99,3.48-1.35,5-.4,.34,.21,.68,.49,1.08,.49,.84-.01,1.28-1.28,2.12-1.3,.45-.01,.83,.35,1.15,.69,.59,.63,1.19,1.25,1.78,1.88,1.97-3.88,5.16-7.05,8.95-8.92l2.48-1.1c2.29-.76,4.85-.59,7.05,.45l2.67-.07c6.41-4.08,9.94,3.06,14.99,5.39l17.46,9.51c.98,3.03,1.91,6.33,2.73,9.89,1.07,4.64,1.79,8.99,2.27,12.95,.24,.02,.58,.02,.98-.05,.32-.06,.63-.17,.93-.32-.03-2.82-.06-5.63-.09-8.45-.02-1.93-.03-3.92,.6-5.72,.66-1.87,1.91-4.19,.53-5.58-.23-.23-.52-.41-.7-.69-.81-1.35,1.73-2.5,1.73-4.08,0-.78-.65-1.47-.56-2.24,.09-.7,.74-1.15,1.05-1.77,.61-1.23-.24-2.69-1.05-3.8-1.8-2.48-3.61-4.95-5.41-7.43l-1.56-2.61c-.83-1.13-2.11-2.08-1.77-3.12,.28-.84,2.49-2.03,3.15-2.45-6.82-1.67-21.24-6.63-26.09-10.04l-3.7-.64c-3.13-.37-6.26-.75-9.39-1.12"/><path d="M479.34,152.33c1.45,0,1.45-2.25,0-2.25s-1.45,2.25,0,2.25h0Z"/><path d="M524.07,118.81c-.45,.15-3.5,1.21-5.85,.21-.41-.17-1.17-.55-1.43-1.27-.26-.72,.32-1.29,.52-1.48,2.3-.71,7.33-1.89,14.13-1.21,5.29,.53,8.84,1.72,11.57,3.03,.42,.69,.39,1.09,.28,1.33-1.01,2.26-11.39-3.25-19.21-.61Z"/><path d="M469.28,134.33c.28,5.52,.76,11.06,1.82,16.5,.18,.95,1.63,.55,1.45-.4-1.03-5.3-1.49-10.71-1.77-16.1-.05-.96-1.55-.97-1.5,0h0Z"/><path d="M478.49,169.83c2.17,3.29,3.71,6.94,6.52,9.78,.68,.69,1.74-.37,1.06-1.06-2.71-2.74-4.19-6.3-6.29-9.48-.53-.8-1.83-.05-1.3,.76h0Z"/><path d="M547.23,147.13c-.11,3.05-.62,6.11-1.19,9.11s-1.26,6.29-2.48,9.23c-.18,.45,.54,.64,.72,.2,1.25-3.02,1.93-6.29,2.53-9.49,.56-2.98,1.06-6.02,1.17-9.05,.02-.48-.73-.48-.75,0h0Z"/><path d="M468.7,89.68c-2.83,6.43-7.38,11.96-13.3,15.78-.79,.51-.7,1.8,.27,2.06,1.38,.36,2.72,.83,4.01,1.44l-.52-1.27c-1.16,2.78-2.38,5.92-2.63,8.94-.09,1.09,.15,2.27,1.1,2.93s1.99,.58,2.84-.15l-1.88-.5c.61,1.47-.31,2.93-.64,4.37-.26,1.13-.26,2.3,.1,3.41,.8,2.42,2.79,4.17,4.43,6.03,1.95,2.2,3.23,4.92,3.68,7.83,.18,1.18,.01,2.6,.82,3.58,.67,.82,1.86,1.12,2.76,.48,1.17-.83,.05-2.78-1.14-1.94,.29-.21-.31-2.97-.38-3.33-.23-1.13-.57-2.22-1.02-3.28-.91-2.18-2.26-4.01-3.86-5.73-1.35-1.45-3.2-3.13-3.34-5.25-.15-2.36,1.74-4.37,.75-6.76-.33-.8-1.19-1.09-1.88-.5,.11-.09-.11-.53-.13-.8-.02-.41,.13-.92,.22-1.32,.18-.82,.39-1.64,.62-2.45,.48-1.69,1.07-3.34,1.74-4.97,.17-.42-.11-1.08-.52-1.27-1.47-.69-2.98-1.25-4.55-1.66l.27,2.06c6.23-4.01,11.13-9.81,14.11-16.58,.58-1.31-1.36-2.46-1.94-1.14h0Z"/><path d="M548.77,137.91c.83,0,1.52-.21,2.27-.56,.23-.11,.37-.4,.37-.65-.03-2.4-.05-4.8-.08-7.2-.02-2.26-.17-4.59,.56-6.77,.51-1.49,1.37-3.03,1.14-4.66-.09-.63-.36-1.18-.8-1.65-.69-.72-.7-.87-.05-1.69,.72-.91,1.51-1.84,1.24-3.09-.24-1.11-.68-1.47,.06-2.52,.44-.62,.72-1.24,.7-2.01-.06-1.79-1.5-3.33-2.49-4.7-1.42-1.96-2.85-3.91-4.27-5.87-.56-.77-1.86-.02-1.3,.76,1.33,1.82,2.66,3.65,3.99,5.47,.62,.86,1.3,1.69,1.86,2.59,.69,1.1,.95,2.01,.12,3.11-.37,.49-.65,.97-.66,1.61,0,.74,.58,1.37,.55,2.08-.05,1.18-1.54,1.91-1.82,3.05-.38,1.53,1.36,1.97,1.41,3.32,.07,1.72-1.13,3.4-1.47,5.06-.41,2.01-.29,4.1-.27,6.14,.03,2.32,.05,4.64,.08,6.96l.37-.65c-.54,.25-.92,.36-1.51,.35-.97,0-.97,1.49,0,1.5h0Z"/><path d="M504.48,76.52c-3.45,1.58-7.08,2.79-10.78,3.6s-7.46,.77-10.88-.81c-.56-.26-1.3,.17-1.1,.85,.64,2.2-2.33,1.58-3.54,2.13-1.07,.49-1.75,1.51-1.41,2.69l.52-.92c-1.71,.47-3.4,.99-5.08,1.56-.91,.31-.52,1.76,.4,1.45,1.68-.57,3.37-1.09,5.08-1.56,.39-.11,.64-.53,.52-.92-.34-1.16,1.65-1.1,2.24-1.16,.63-.06,1.25-.19,1.78-.58,.97-.72,1.25-1.96,.93-3.08l-1.1,.85c7.42,3.43,16.2,.41,23.18-2.79,.88-.4,.12-1.69-.76-1.3h0Z"/><path d="M520.12,79.35c3.69,2.55,8.15,4.14,12.32,5.69,4.57,1.7,9.22,3.26,13.95,4.43l-.18-1.37c-1.09,.69-2.7,1.37-3.35,2.56-.88,1.61,.94,3.07,1.82,4.19,.59,.76,1.65-.31,1.06-1.06-.41-.53-.96-1.01-1.31-1.58-.39-.64-.26-.91,.26-1.34,.7-.58,1.52-1,2.28-1.48,.53-.33,.47-1.21-.18-1.37-4.62-1.14-9.16-2.66-13.62-4.31-4.17-1.54-8.62-3.12-12.3-5.66-.8-.55-1.55,.75-.76,1.3h0Z"/><path d="M498.74,99.4c-3.97,2-7.17,5.25-9.22,9.19l1.18-.15c-.93-.98-2.29-3.17-3.9-2.72-.63,.18-1.04,1.09-1.6,1.2-.37,.07-.79-.37-1.09-.52s-.66-.28-1-.36c-3.76-.87-6.41,2.49-8.3,5.19-.56,.79,.74,1.54,1.3,.76,1.67-2.38,4.41-5.94,7.69-4.04,.91,.52,1.65,.7,2.53,0,.66-.52,.72-1,1.54-.33,.65,.52,1.21,1.27,1.78,1.88,.32,.34,.96,.27,1.18-.15,1.94-3.73,4.92-6.75,8.68-8.65,.86-.43,.1-1.73-.76-1.3h0Z"/><path d="M511.69,99.98c1.22-.76,2.58-1.29,4.04-1.09,1.29,.17,2.45,.85,3.49,1.58,2.26,1.6,4.17,3.7,6.7,4.9,.87,.41,1.63-.88,.76-1.3-2.74-1.29-4.75-3.66-7.27-5.28-1.18-.75-2.48-1.31-3.88-1.42-1.64-.13-3.22,.46-4.59,1.32-.82,.51-.07,1.81,.76,1.3h0Z"/><path d="M501.79,99.67c2.12-.69,4.45-.57,6.47,.38,.37,.17,.81,.1,1.03-.27,.19-.33,.1-.85-.27-1.03-2.39-1.12-5.11-1.34-7.63-.53-.91,.3-.52,1.74,.4,1.45h0Z"/><path d="M491.06,121.89c.49,.07,3.77,.57,6.02-.85,.39-.25,1.11-.76,1.26-1.52,.15-.76-.53-1.23-.77-1.38-2.47-.29-7.8-.55-14.64,1.35-5.33,1.48-8.76,3.31-11.34,5.1-.32,.76-.22,1.16-.07,1.37,1.39,2.07,11.12-5.3,19.55-4.08Z"/><path d="M503.62,153.01c2.21,1.74,4.89,2.98,7.77,2.64s5.04-1.93,6.82-3.95c.51-.58-.34-1.43-.85-.85-1.56,1.78-3.55,3.27-5.95,3.6-2.54,.35-4.97-.74-6.93-2.28-.6-.47-1.46,.37-.85,.85h0Z"/><path d="M509.02,133.29c.31,3.61,.62,7.23,.93,10.84,.07,.76,1.27,.77,1.2,0-.31-3.61-.62-7.23-.93-10.84-.07-.76-1.27-.77-1.2,0h0Z"/><path class="cls-25" d="M570.91,190.55l-10.87-.96c-4.97-1.02-28.68-2.3-24.44,.96,31.44,24.04,40.44,11.04,64.73,27.23-6.3-13.89-11.73-20.49-29.42-27.23Z"/><path class="cls-21" d="M516.78,289.32l5.52-77.75c-9.49,6.08-18.98,6.08-25.3,0l-3.16,21.26c-2.1,18.65-3.94,34.07-5.72,47.29,9.61,2.86,19.17,5.96,28.67,9.2Z"/><path class="cls-12" d="M568.8,256.86c.85,14.4,2.27,33.8,2.75,48.22"/><path class="cls-7" d="M427.71,261.91c.27-13.95,4.27-27.48,12.27-38.94,9-10.41,20-16.66,32-22.33"/><path class="cls-25" d="M570.89,305.31l-1.93-47.04c0-11.43-7.22-42.87-2.41-57.15l-19.26-5.72c-9.17,21.36,10.45,71.74,21.25,110.8,.78-.3,1.56-.59,2.34-.88Z"/><path class="cls-7" d="M567.04,202.58c-5,12,3,44.57,3,56"/><path class="cls-13" d="M546.54,196.08c-2.32,6.74-3.56,12.31-2.56,19.6,6,30.2,16.18,62,25.56,90.4"/><ellipse class="cls-24" cx="538.53" cy="265.1" rx="6.61" ry="6.01"/><path class="cls-25" d="M609.91,270.78c.51,8.69-.23,17.34,.13,24.81,1.95-.31,3-3,7.03-1.57"/><path class="cls-23" d="M533.46,182.42c-.11,5.15,3.31,7.16,6.02,11.45l-12,11.45c-6.82,7.21-11.46,10.31-21.08,9.22-7.92-.89-17.63-10.08-20.92-19.64l4.96-10.75,43.01-1.75"/><path d="M477.28,199.65c3.68-1.29,7.22-3.23,9.76-6.25,1.85-2.19,3.03-4.74,3.99-7.42,.2-.57-.23-1.23-.79-1.38-.62-.17-1.18,.21-1.38,.79-.81,2.26-1.79,4.51-3.41,6.43-2.3,2.73-5.43,4.5-8.77,5.68-1.36,.48-.77,2.65,.6,2.17h0Z"/><path d="M494.64,188.65c9.46,8.26,23.4,7.61,33.26,.37,2.85-2.09,5.29-4.64,7.29-7.56,.55-.8-.75-1.55-1.3-.76-6.39,9.36-18.55,14.86-29.71,11.58-3.14-.92-6.02-2.55-8.49-4.7-.72-.63-1.79,.42-1.06,1.06h0Z"/><path class="cls-11" d="M496.06,210.98c-2.44,21.3-5.09,42.58-8.04,63.81"/><path class="cls-2" d="M485.48,194.92c15,27.07,28,28.11,54-1.04"/><path class="cls-12" d="M522.98,212.1c-1.54,24.29-3.09,48.57-4.89,72.84"/><path class="cls-12" d="M541.54,255.86c7.66,5.68,2.56,20.84-10.22,11.37"/><path class="cls-15" d="M490.67,185.28c6.81,4.43,10.71,7.84,17.81,8.59,7.83,.83,13-1.04,25-9.37-1.39,2.14-8.62,11.54-14.12,14.58-5.46,3.02-10.4,4.15-12.88,4.16-1.71-.11-5.55-1.37-9.12-4.16-6.22-4.88-6.65-12.65-6.69-13.81Z"/><path d="M531.68,132.06c5.79,0,5.8-9,0-9s-5.8,9,0,9h0Z"/><path d="M525.93,125.82c3.21-2.11,7.09-2.72,10.62-1,.43,.21,.81-.44,.38-.65-3.76-1.84-7.94-1.26-11.38,1-.4,.26-.03,.91,.38,.65h0Z"/><path d="M484.56,135.97c5.79,0,5.8-9,0-9s-5.8,9,0,9h0Z"/><path d="M478.81,129.74c3.21-2.11,7.09-2.72,10.62-1,.43,.21,.81-.44,.38-.65-3.76-1.84-7.94-1.26-11.38,1-.4,.26-.03,.91,.38,.65h0Z"/><path class="cls-10" d="M536.54,189.08c5.71,.01,12.66-.43,19,0,5.37,.36,9,0,15.37,1.46,2.63,.54,11.55,3.56,18.63,10.54,5.44,5.36,8.67,12.56,10,16"/><path d="M533.15,183.84c.63,1.41,.98,2.93,1.53,4.37,.59,1.53,1.4,2.91,2.61,4.03s2.59,1.95,3.94,2.82c1.56,1.01,3.12,2.01,4.68,3.02l-.52-1.27c-.07,.31-.13,.62-.2,.93-.3,1.41,1.86,2.02,2.17,.6,.07-.31,.13-.62,.2-.93,.11-.51-.08-.99-.52-1.27-1.44-.93-2.88-1.86-4.32-2.79-1.31-.85-2.7-1.64-3.85-2.7-2.27-2.09-2.58-5.25-3.79-7.95-.25-.56-1.05-.68-1.54-.4-.57,.33-.65,.99-.4,1.54h0Z"/><path class="cls-6" d="M610.04,294.58c-.16-18.95-1.07-40.15-1-59,.06-17.88-23.06-29.28-39.59-28.7"/><line class="cls-4" x1="570.04" y1="258.58" x2="572.04" y2="305.58"/><path class="cls-21" d="M511.26,181.02c-5.74,.48-7.71-2.37-8.32-3.03-.68-.75-1.27,.06,.46-.58,.86-.32,.53-.89,3.15-1.36,1.29-.23,2.82-1.45,5-1.89,2.76-.55,12.14-5.54,12.67-4.58,.51,.71-2.34,6.04-3.7,7.33s-6.48,3.78-9.26,4.12"/><path class="cls-18" d="M507.53,180.72c1.01-.97,3.41-2.98,7.11-3.79,2.76-.6,5.07-.28,6.38,0-.56,.82-2.12,3.38-5.33,4.11-3.73,.85-6.79,.11-8.17-.32"/><path d="M504.73,177.13c3.54-.81,7.03-1.83,10.43-3.08,1.71-.63,3.41-1.32,5.08-2.05,.86-.38,1.72-.77,2.58-1.17,.75-.35,1.52-.88,2.31-1.11l-.58-.08,.07,.05-.37-.65c-.23,2.02-1.31,4.15-2.26,5.92-1.2,2.25-2.65,4.08-5.1,5-2.57,.96-5.36,1.33-7.98,.34-1.42-.53-2.82-1.27-4.17-1.96-.51-.26-.97-.61-1.47-.88-.15-.2-.19-.15-.09,.14l.19-.11c.32,.03,1.03-.31,1.37-.38,.94-.19,.55-1.64-.4-1.45-.89,.18-2.34,.46-2.63,1.51-.23,.85,.55,1.43,1.18,1.84,1.18,.76,2.5,1.29,3.77,1.89,1.47,.7,2.89,1.27,4.53,1.43,2.44,.24,5.01-.35,7.21-1.39s3.62-2.92,4.75-4.98,2.34-4.54,2.61-6.94c.03-.27-.17-.5-.37-.65-.53-.38-1.15,.08-1.63,.32-.79,.4-1.59,.78-2.4,1.15-1.9,.88-3.83,1.7-5.79,2.44-3.66,1.39-7.41,2.51-11.23,3.38-.94,.21-.54,1.66,.4,1.45Z"/><path d="M527.83,169.63c.41-.72,.4-1.6-.06-2.3s-1.27-1.15-2.13-1.21c-.57-.04-1.14,.11-1.65,.36-.35,.17-.04,.69,.3,.52,.83-.4,1.88-.39,2.6,.24,.62,.54,.83,1.37,.42,2.1-.19,.34,.33,.64,.52,.3h0Z"/><rect class="cls-8" x="473.82" y="116.81" width="25.5" height="26.5" rx="12.75" ry="12.75" transform="translate(616.64 -356.51) rotate(90)"/><rect class="cls-8" x="517.03" y="112.91" width="25.5" height="26.5" rx="12.75" ry="12.75" transform="translate(655.94 -403.62) rotate(90)"/><g><path d="M516.32,127.81c-3.48-1.24-6.3-1.19-8-1-4.2,.47-8.32,2.56-8.22,2.93,.02,.05,.12,.07,.22,.07,2-.77,4.71-1.6,8-2,3.18-.38,5.92-.25,8,0Z"/><path d="M516.42,127.45c-4.75-1.65-9.6-1.32-14.22,.63-.28,.12-3.41,1.38-2.21,2.04,.35,.19,.78-.08,1.11-.2,.58-.21,1.16-.4,1.74-.58,1.29-.39,2.6-.7,3.93-.93,3.15-.54,6.37-.6,9.54-.23,.48,.06,.47-.69,0-.75-2.78-.33-5.58-.32-8.36,.05-1.43,.19-2.84,.46-4.23,.83-.63,.17-1.26,.35-1.89,.56-.2,.07-1.42,.64-1.56,.55l.19,.32c0,.19,.03,.04,.2-.06s.34-.21,.52-.31c.55-.3,1.13-.55,1.71-.78,1.5-.59,3.06-1.05,4.65-1.3,2.92-.47,5.87-.09,8.66,.88,.46,.16,.65-.57,.2-.72Z"/></g><line class="cls-9" x1="542.83" y1="128.37" x2="548.82" y2="137.31"/><line class="cls-9" x1="472.82" y1="130.31" x2="469.82" y2="137.31"/><rect class="cls-32" x="568.88" y="552.22" width="24.15" height="24.38" rx="11.99" ry="11.99" transform="translate(-204.37 366.09) rotate(-30)"/><rect class="cls-30" x="812.2" y="217.91" width="81.24" height="81.95" rx="40.3" ry="40.3" transform="translate(-15.19 461.09) rotate(-30)"/></svg>