<?xml version="1.0" encoding="UTF-8"?><svg id="Calque_1" xmlns="http://www.w3.org/2000/svg" xmlns:xlink="http://www.w3.org/1999/xlink" viewBox="0 0 1366 768"><defs><style>.cls-1{fill:#352e00;}.cls-1,.cls-2{opacity:.1;}.cls-3,.cls-4,.cls-5,.cls-6,.cls-7,.cls-8,.cls-9,.cls-10,.cls-11,.cls-12,.cls-13,.cls-14{fill:none;}.cls-3,.cls-15,.cls-16,.cls-17,.cls-18,.cls-7,.cls-19,.cls-8,.cls-9,.cls-20,.cls-12{stroke-miterlimit:10;}.cls-3,.cls-20{stroke:#63c6fa;stroke-width:23px;}.cls-21,.cls-4,.cls-15,.cls-16,.cls-17,.cls-18,.cls-5,.cls-6{stroke-width:2px;}.cls-21,.cls-4,.cls-15,.cls-18,.cls-5,.cls-7,.cls-19,.cls-22,.cls-9,.cls-23,.cls-10,.cls-11,.cls-24,.cls-14{stroke:#000;}.cls-21,.cls-4,.cls-5,.cls-6,.cls-10,.cls-13,.cls-14{stroke-linecap:round;}.cls-21,.cls-5,.cls-6,.cls-13,.cls-14{stroke-linejoin:round;}.cls-21,.cls-25{opacity:.4;}.cls-26{fill:#f4ac00;}.cls-27{fill:#f2f2f2;}.cls-28{fill:#f9c9ff;}.cls-29{fill:#0083df;}.cls-30{fill:#0071bc;}.cls-31,.cls-23,.cls-24{fill:#fff;}.cls-32{fill:#ffeb94;}.cls-33,.cls-19{fill:#ffe4b4;}.cls-34{fill:#c45824;}.cls-35{fill:#da8d19;}.cls-36,.cls-17{fill:#df3a16;}.cls-37{fill:#5f1a00;}.cls-15,.cls-38,.cls-39{fill:#63c6fa;}.cls-16{fill:#ffaf17;stroke:#5f1a00;}.cls-17,.cls-6,.cls-13{stroke:#020303;}.cls-18,.cls-20,.cls-40,.cls-41{fill:#2873c9;}.cls-42{filter:url(#drop-shadow-2);}.cls-43{filter:url(#drop-shadow-1);}.cls-7{stroke-width:.75px;}.cls-8{opacity:.5;stroke:#c7b299;stroke-width:.25px;}.cls-22{stroke-width:7px;}.cls-9{opacity:.9;}.cls-44{opacity:.3;}.cls-23{stroke-width:5px;}.cls-10,.cls-11,.cls-13,.cls-14{stroke-width:3px;}.cls-24{stroke-width:4px;}.cls-40,.cls-45,.cls-38,.cls-46{opacity:.8;}.cls-45{fill:#fbb03b;}.cls-46{fill:#007dd4;}.cls-41,.cls-39{opacity:.7;}.cls-12{stroke:#2873c9;stroke-width:36px;}</style><filter id="drop-shadow-1" filterUnits="userSpaceOnUse"><feOffset dx="4" dy="3"/><feGaussianBlur result="blur" stdDeviation="5"/><feFlood flood-color="#303030" flood-opacity=".45"/><feComposite in2="blur" operator="in"/><feComposite in="SourceGraphic"/></filter><filter id="drop-shadow-2" filterUnits="userSpaceOnUse"><feOffset dx="7" dy="7"/><feGaussianBlur result="blur-2" stdDeviation="5"/><feFlood flood-color="#000" flood-opacity=".75"/><feComposite in2="blur-2" operator="in"/><feComposite in="SourceGraphic"/></filter></defs><g class="cls-43"><rect class="cls-41" x="981.99" y="332.64" width="81.24" height="81.95" rx="40.3" ry="40.3" transform="translate(-49.8 561.36) rotate(-30)"/><rect class="cls-39" x="491.09" y="175.06" width="81.24" height="81.95" rx="40.3" ry="40.3" transform="translate(-36.78 294.8) rotate(-30)"/><rect class="cls-45" x="402.82" y="226.04" width="255.47" height="261.82" rx="127.74" ry="127.74" transform="translate(-107.39 313.1) rotate(-30)"/><rect class="cls-40" x="818.03" y="559.19" width="142.88" height="143.04" rx="70.61" ry="70.61" transform="translate(-196.19 529.23) rotate(-30)"/><rect class="cls-38" x="409.79" y="488.22" width="255.47" height="261.82" rx="127.74" ry="127.74" transform="translate(-237.55 351.71) rotate(-30)"/><rect class="cls-39" x="436.07" y="368.95" width="81.24" height="81.95" rx="40.3" ry="40.3" transform="translate(-141.1 293.26) rotate(-30)"/><rect class="cls-40" x="750.37" y="203.85" width="255.47" height="261.82" rx="127.74" ry="127.74" transform="translate(-49.74 483.9) rotate(-30)"/><path d="M305.6,454.51c.48,0,.48-.75,0-.75s-.48,.75,0,.75h0Z"/><g class="cls-25"><path d="M392.03,620.99c.11,1.85-7.07,4.39-7.07,10.25l-1.18-1.46c-3.45-5.43-17.75-26.86-29.53-34.18l13.86-4.15c9.24,5.96,17.03,27.68,23.92,29.54"/><path d="M391.17,620.75c-.38,1.88-3.94,3.64-5.08,5.15-1.27,1.67-1.84,3.27-2.02,5.33l1.54-.64c-9.9-12.3-17.22-26.93-30.89-35.78l-.21,1.64,10.54-3.15c.56-.17,1.51-.61,2.11-.63,1.71-.07,.07-.59,1.86,.54,2.28,1.45,4.21,4.43,5.71,6.53,3.35,4.69,6.09,9.77,9.33,14.53,1.98,2.91,4.26,6.37,7.75,7.58,1.1,.38,1.57-1.36,.48-1.74-4.89-1.7-7.97-8.69-10.54-12.82-2.98-4.81-5.92-9.93-9.96-13.97-2.98-2.98-3.5-2.87-7.22-1.76-3.51,1.05-7.03,2.1-10.54,3.15-.76,.23-.86,1.22-.21,1.64,13.5,8.74,20.75,23.36,30.53,35.5,.54,.67,1.48,.05,1.54-.64,.32-3.72,2.67-5.28,5.12-7.52,.82-.75,1.68-1.35,1.91-2.49s-1.51-1.61-1.74-.48h0Z"/></g><g class="cls-25"><path d="M409.71,622.46c6.89-1.86,16.77-17.47,30.91-24.79l7.46,7.26c-17.46,12.05-13.86,12.44-30.13,26.31l-1.18,1.46c0-5.86-6.85-7.73-6.74-9.58l-.33-.67Z"/><path d="M409.95,623.32c7.67-2.51,13.45-11.23,19.26-16.4,2.52-2.25,5.16-4.38,8-6.22,.49-.32,3.02-2.31,2.86-2.32,.28,0,.87,.93,1.08,1.05,2.29,1.36,4.37,4.25,6.3,6.12l.18-1.41c-5.78,4.02-11.33,8.19-16.28,13.2s-10.9,9.37-15.21,14.71l1.54,.64c-.45-5.39-5.11-6.45-7.19-10.7-.51-1.04-2.06-.13-1.55,.91,1.87,3.83,6.54,4.93,6.95,9.79,.06,.69,1,1.3,1.54,.64,4.15-5.15,9.95-9.35,14.62-14.11,5.03-5.13,10.6-9.42,16.5-13.52,.46-.32,.62-.98,.18-1.41l-7.46-7.26c-.29-.29-.73-.33-1.09-.14-6.35,3.43-11.75,8.12-16.89,13.14-3.98,3.89-8.33,9.76-13.8,11.55-1.1,.36-.63,2.1,.48,1.74Z"/></g><path class="cls-21" d="M422.3,645.88c3.3,3.46,1.1,12.69-4.41,6.92"/><g class="cls-25"><path d="M416.9,479.13c1.45,0,1.45-2.25,0-2.25s-1.45,2.25,0,2.25h0Z"/></g><g class="cls-25"><path d="M368.81,473.41c.51-.85,1.7-.79,2.65-1,3.42-.75,4.17-5.33,4.18-8.92,3.23,1.88,7.31,1.4,10.8,.08,3.49-1.32,6.66-3.41,10.15-4.73,3.34-1.26,6.9-1.8,10.45-2.03"/></g><path class="cls-25" d="M434.88,507.72c-6.24-.57-11.93-.78-14.94-3.45-.56-.49-1.78-1.57-1.5-2.71,.23-.96,1.41-1.45,1.82-1.61,3.17-.68,9.92-1.61,17.91,.58"/><g class="cls-25"><path d="M385.11,522.83c5.79,0,5.8-9,0-9s-5.8,9,0,9h0Z"/></g><path class="cls-25" d="M384.76,506.98c5.03-.1,12.54-.17,15.2-2.39,.37-.31,1.24-1.03,1.27-2.08,.04-1.13-.89-1.98-1.21-2.24-3.11-.9-9.77-2.31-17.9-.69-6.33,1.26-10.24,3.41-13.1,5.66-.05,.13-.43,1.15,.17,2.08,.62,.97,11.44-.25,15.56-.34Z"/><g class="cls-25"><path d="M396.44,546.93c5.75,4.94,13.09,5.16,18.96,.57"/><path d="M395.91,547.46c2.78,2.35,6.15,3.93,9.83,4.07s7.17-1.18,10.04-3.38c.76-.58,0-1.88-.76-1.3-2.6,2-5.69,3.25-9.01,3.19s-6.5-1.5-9.04-3.64c-.73-.62-1.8,.44-1.06,1.06h0Z"/></g><g class="cls-25"><path d="M373.76,575.25c7.44,9.84,20.17,15.75,32.84,15.24"/><path d="M373.12,575.63c7.83,10.24,20.64,16.06,33.49,15.61,.96-.03,.97-1.53,0-1.5-12.28,.43-24.69-5.05-32.19-14.87-.58-.76-1.88-.01-1.3,.76h0Z"/></g><g class="cls-25"><path d="M367.83,552.85c1.01-7.25,2.02-13.47,3.03-20.73"/><path d="M368.55,553.05c.97-6.92,2.07-13.81,3.03-20.73,.13-.94-1.31-1.35-1.45-.4-.97,6.92-2.07,13.81-3.03,20.73-.13,.94,1.31,1.35,1.45,.4h0Z"/></g><g class="cls-25"><path d="M376.39,497.62c4.65-7.21,12.86-11.87,21.3-12.1"/><path d="M377.36,498.18c4.46-6.82,12.16-11.27,20.33-11.54,1.44-.05,1.45-2.3,0-2.25-8.98,.3-17.36,5.16-22.27,12.66-.8,1.22,1.15,2.34,1.94,1.14h0Z"/></g><g class="cls-25"><path d="M369.49,474.69c1.81,2.81,1.86,6.47,1.09,9.74-.76,3.27-2.26,6.31-3.37,9.47-1.42,4.01-2.23,8.25-2.4,12.51"/><path d="M368.52,475.26c2.87,4.69,.77,10.28-1.08,14.93-2.09,5.26-3.49,10.55-3.75,16.23-.07,1.45,2.18,1.44,2.25,0,.14-3.06,.59-6.09,1.38-9.05s1.91-5.54,2.96-8.28c1.82-4.77,3.02-10.32,.18-14.96-.75-1.23-2.7-.1-1.94,1.14h0Z"/></g><g class="cls-25"><path d="M366.34,514.59c.49,3.75,1.93,7.37,4.14,10.4,1.44-5.26,2.87-10.53,4.31-15.79"/><path d="M365.26,514.89c.52,3.84,1.99,7.52,4.25,10.67,.54,.75,1.78,.73,2.06-.27,1.44-5.26,2.87-10.53,4.31-15.79,.38-1.4-1.79-2-2.17-.6-1.44,5.26-2.87,10.53-4.31,15.79l2.06-.27c-2.17-3.01-3.52-6.46-4.02-10.13-.08-.61-.85-.93-1.38-.79-.65,.17-.87,.78-.79,1.38h0Z"/></g><g class="cls-25"><path d="M406.98,456.91c-3.55,.23-7.11,.76-10.45,2.03-3.49,1.32-6.66,3.4-10.15,4.73-3.49,1.32-7.57,1.8-10.8-.08,0,3.58-.76,8.17-4.18,8.92-.95,.21-2.14,.14-2.65,1"/><path d="M406.98,455.78c-2.72,.19-5.45,.52-8.09,1.22s-5.15,1.87-7.6,3.12c-4.53,2.31-10.14,5.23-15.14,2.49-.75-.41-1.69,.1-1.69,.97-.02,2.13-.15,4.6-1.37,6.42-1.32,1.97-3.89,1.09-5.3,2.92-.88,1.15,1.07,2.27,1.94,1.14,.35-.45,1.47-.36,1.98-.48s1.01-.32,1.46-.58c.93-.55,1.66-1.42,2.16-2.36,1.13-2.14,1.37-4.67,1.38-7.05l-1.69,.97c4.86,2.67,10.35,1,15-1.28,2.61-1.27,5.14-2.73,7.91-3.64,2.93-.96,5.98-1.39,9.05-1.6,1.44-.1,1.45-2.35,0-2.25h0Z"/></g><g class="cls-25"><path d="M407.61,532.58c.39-2.43,.78-4.85,1.18-7.28"/><path d="M409.06,532.98c.39-2.43,.78-4.85,1.18-7.28,.31-1.89-2.58-2.7-2.89-.8-.39,2.43-.78,4.85-1.18,7.28-.31,1.89,2.58,2.7,2.89,.8h0Z"/></g><g class="cls-25"><path d="M380.13,512.98c4.27-1.04,7.05-.92,11.2,1.55"/><path d="M380.33,513.7c1.75-.42,3.56-.73,5.37-.52s3.63,1.04,5.25,2c.83,.49,1.59-.8,.76-1.3-1.82-1.07-3.75-1.92-5.85-2.19-1.99-.25-3.99,.09-5.92,.56-.94,.23-.54,1.67,.4,1.45h0Z"/></g><path class="cls-25" d="M399.03,590.41c7.92,1.05,10.66,0,20.39-1.69-1.41,2.71-4.56,8.02-10.12,11.88-5.52,3.83-10.62,4.3-13.12,4.32-1.73-.14-5.53-.78-9.13-4.32-6.29-6.18-6.72-16.04-6.77-17.51"/><g class="cls-25"><path d="M374.92,592.7c2.02-2.07,4.23-6.15,3.96-9.45"/><path d="M375.55,593.33c2.49-2.67,4.39-6.37,4.22-10.09-.05-1.15-1.85-1.16-1.8,0,.14,3.25-1.52,6.48-3.69,8.81-.79,.85,.48,2.12,1.27,1.27h0Z"/></g><g class="cls-25"><path d="M436.39,600.6c1.93,0,1.93-3,0-3s-1.93,3,0,3h0Z"/></g><rect class="cls-18" x="271.86" y="397.96" width="237.18" height="230.38" rx="114.18" ry="114.18"/><path class="cls-33" d="M355.81,563.44c.28,3.36-8.96,17.03-10.98,19.14,4.55,14.92,17.63,25.75,33.05,27.4,16.37,1.75,32.3-7.14,39.45-22.13-1.87-3.22-3.81-7.34-5.58-12.22-1.8-4.93-3.18-9.99-3.12-12.97l.16-2.37c-14.02,13.24-36.98,13.6-51.84,1.53l-1.14,1.62Z"/><path class="cls-30" d="M311.88,656.13c24.98,4.3,50.04,7.79,75.03,11.97,30.04,5.03,65.18,11.4,94.59,19.75l-3-29c-4.45-24.89-3.99-34.82-14-48s-35.43-20.63-47.44-31.94l-10.11,9.65c-3.7,4.9-14.91,3.23-16.91,4.23,0,0-2,9-5,13-4.06,5.41-13.07,2.46-14.76,.1-.94-1.31-1.92-9.66-4.24-12.1-6.07-6.39-16.03-9.82-19.08-20.92l-3.46-.77c-19.19,7.54-35.23,13.9-47,21.75-9,6-22.02,32.26-31,52,12.32,2.97,33.97,8.01,46.38,10.28Z"/><path d="M344.63,571.15c-14.98,6-31.05,11.47-44.99,19.65-16.81,9.87-22.41,30.57-30.77,47.02-.42,.82,.82,1.55,1.24,.73,8.52-16.78,14.14-37.5,31.52-47.23,13.62-7.63,28.91-12.99,43.38-18.78,.85-.34,.48-1.73-.38-1.39h0Z"/><path d="M416,579.82c14.25,11.99,34.15,16.43,46.72,30.55,11.85,13.31,11.9,31.98,15.08,48.61,.17,.91,1.56,.52,1.39-.38-3.07-16.08-3.21-33.94-13.82-47.3-12.39-15.6-33.48-19.99-48.35-32.5-.7-.59-1.73,.42-1.02,1.02h0Z"/><path class="cls-5" d="M383.15,637.49c2.82-.22,3.91,4.66,.11,4.93"/><path d="M393.61,459.52c1.45,0,1.45-2.25,0-2.25s-1.45,2.25,0,2.25h0Z"/><path class="cls-32" d="M345.52,453.8c.51-.85,1.7-.79,2.65-1,3.42-.75,4.17-5.33,4.18-8.92,3.23,1.88,7.31,1.4,10.8,.08,3.49-1.32,6.66-3.41,10.15-4.73,3.34-1.26,6.9-1.8,10.45-2.03,17.59-1.14,35.53,5.32,48.54,17.49,3.24,3.03,6.26,6.52,7.61,10.79,.44,.77,1.11,2.16,1.25,4.01,.08,1.09-.04,2.02-.18,2.7,.02,1.04,.24,2.54,0,4.29-.96,7.04-.54,14.44-2.89,21.13-9.06,25.76-9.06,12.29-10.08,7.11l.22-20.5c-.31-5.77-1.21-12.43-6.01-15.46-2.93-1.86-6.66-1.82-10.04-1.13-3.38,.69-6.64,1.99-10.05,2.48-6.28,.91-12.62-.95-18.52-3.32l-9.14-.99c-8.44,.22-16.64,4.89-21.3,12.1l-1.6,11.59c-1.44,5.26-2.87,10.53-4.31,15.79-2.21-3.03-3.65-6.65-4.14-10.4-.5-.34-1.53-1.15-2.11-2.58-1.11-2.74,.41-5.31,.58-5.6,.24-5.58,1.42-9.73,2.4-12.51,1.12-3.16,2.61-6.2,3.37-9.47,.5-2.14,.6-5.37-1.09-9.74"/><path class="cls-33" d="M346.39,508.3c-1.01,6.59-2.11,11.09-2.56,15.52-.82,3.9-1.71,10.97,.7,19.25,1.62,5.59,4.2,9.84,6.25,12.65,2.03,2.65,6.59,7.81,14.46,11.44,5.7,2.63,12.05,3.97,18.38,3.72,12.67-.51,22.39-5.24,29.01-15.59,1.63-1.98,3.23-4.17,4.73-6.58,7.87-12.57,9.55-25.26,9.65-34,.49-2.09,.93-4.34,1.31-6.73,.35-2.26,.62-4.52,.81-6.8l-.66-19c-.31-5.25-1.21-11.29-6.01-14.05-2.93-1.69-6.66-1.66-10.04-1.03-3.38,.63-6.64,1.81-10.05,2.25-6.28,.82-12.62-.87-18.52-3.01-1.25-.19-2.55-.36-3.91-.51-1.83-.19-3.58-.32-5.23-.4-2.37,.08-7.04,.52-12.07,3.12-3.69,1.9-6.9,4.6-9.23,7.88-.92,4.3-1.85,8.62-2.8,12.95-1.39,6.34-2.79,12.64-4.22,18.9Z"/><path d="M412.22,503.35c5.79,0,5.8-9,0-9s-5.8,9,0,9h0Z"/><path d="M411.59,488.12c-6.24-.57-11.93-.78-14.94-3.45-.56-.49-1.78-1.57-1.5-2.71,.23-.96,1.41-1.45,1.82-1.61,3.17-.68,9.92-1.61,17.91,.58,6.2,1.7,9.9,4.12,12.55,6.57,.04,.13,.32,1.18-.35,2.06-.7,.92-11.38-1.06-15.48-1.44Z"/><path d="M364.82,503.23c5.79,0,5.8-9,0-9s-5.8,9,0,9h0Z"/><path d="M361.47,487.37c5.03-.1,12.54-.17,15.2-2.39,.37-.31,1.24-1.03,1.27-2.08,.04-1.13-.89-1.98-1.21-2.24-3.11-.9-9.77-2.31-17.9-.69-6.33,1.26-10.24,3.41-13.1,5.66-.05,.13-.43,1.15,.17,2.08,.62,.97,11.44-.25,15.56-.34Z"/><path d="M374.24,527.93c2.45,2.4,5.61,3.96,9.07,4.03s6.69-1.36,9.32-3.54c.74-.62-.32-1.67-1.06-1.06-2.32,1.93-5.21,3.16-8.26,3.1s-5.85-1.47-8.01-3.59c-.69-.68-1.75,.38-1.06,1.06h0Z"/><path d="M349.83,556.02c11.86,15.51,34.94,20.34,51.95,10.58,4.5-2.59,8.35-6.15,11.6-10.17,.6-.74-.45-1.81-1.06-1.06-5.5,6.82-12.64,11.84-21.25,13.78-9.32,2.1-19.2,.88-27.65-3.6-4.76-2.52-9-6-12.28-10.28-.58-.76-1.88-.01-1.3,.76h0Z"/><path d="M345.52,530.4c.43-6.05,2.5-11.82,2.8-17.88,.05-.96-1.45-.96-1.5,0-.14,2.92-.69,5.74-1.34,8.59-.7,3.07-1.24,6.15-1.46,9.29-.07,.96,1.43,.96,1.5,0h0Z"/><path d="M354.07,478.58c4.46-6.82,12.16-11.27,20.33-11.54,1.44-.05,1.45-2.3,0-2.25-8.98,.3-17.36,5.16-22.27,12.66-.8,1.22,1.15,2.34,1.94,1.14h0Z"/><path d="M383.24,467.99c3.76,1.49,7.61,2.77,11.63,3.31s7.77,.15,11.62-.9,7.41-2.36,11.27-1.87c3.39,.43,5.9,2.49,7.31,5.54s1.77,6.82,1.96,10.27c.08,1.44,2.33,1.45,2.25,0-.33-5.98-1.22-13.56-7.11-16.75-3.39-1.83-7.41-1.61-11.06-.78-4.35,.99-8.44,2.62-12.97,2.51-4.96-.11-9.75-1.69-14.32-3.5-1.35-.53-1.93,1.64-.6,2.17h0Z"/><path d="M432.91,511.71c5.16-3.64,5.74-10.4,6.53-16.15,.54-3.93,1.08-7.86,1.62-11.79s.91-7.72,1.65-11.52c.28-1.41-1.89-2.02-2.17-.6-.68,3.48-1.04,7.03-1.52,10.54-.52,3.77-1.03,7.53-1.55,11.3-.73,5.3-.84,12.85-5.7,16.28-1.17,.83-.05,2.78,1.14,1.94h0Z"/><path d="M345.23,455.65c2.87,4.69,.77,10.28-1.08,14.93-2.09,5.26-3.49,10.55-3.75,16.23-.07,1.45,2.18,1.44,2.25,0,.14-3.06,.59-6.09,1.38-9.05s1.91-5.54,2.96-8.28c1.82-4.77,3.02-10.32,.18-14.96-.75-1.23-2.7-.1-1.94,1.14h0Z"/><path d="M341.97,495.28c.52,3.84,1.99,7.52,4.25,10.67,.54,.75,1.78,.73,2.06-.27,1.44-5.26,2.87-10.53,4.31-15.79,.38-1.4-1.79-2-2.17-.6-1.44,5.26-2.87,10.53-4.31,15.79l2.06-.27c-2.17-3.01-3.52-6.46-4.02-10.13-.08-.61-.85-.93-1.38-.79-.65,.17-.87,.78-.79,1.38h0Z"/><path d="M427.02,506.4c-.36,4.81-.97,9.6-1.3,14.41-.07,.96,1.43,.96,1.5,0,.33-4.81,.94-9.6,1.3-14.41,.07-.96-1.43-.96-1.5,0h0Z"/><path d="M440.93,465.29c-2.01-6.08-6.86-10.73-11.75-14.62s-10.48-7.18-16.37-9.61-11.98-3.96-18.24-4.64-13.54-.67-19.86,1.23c-3.72,1.12-7,3.18-10.52,4.75s-7.74,2.57-11.32,.61c-.75-.41-1.69,.1-1.69,.97-.02,2.13-.15,4.6-1.37,6.42-1.32,1.97-3.89,1.09-5.3,2.92-.88,1.15,1.07,2.27,1.94,1.14,.35-.45,1.47-.36,1.98-.48s1.01-.32,1.46-.58c.93-.55,1.66-1.42,2.16-2.36,1.13-2.14,1.37-4.67,1.38-7.05l-1.69,.97c6.05,3.32,12.5-.01,18.01-2.79,3.23-1.63,6.51-2.79,10.09-3.33,3.26-.49,6.61-.6,9.91-.49,12.49,.41,24.77,4.62,34.98,11.8,5.59,3.93,11.83,9.06,14.04,15.76,.45,1.37,2.63,.78,2.17-.6h0Z"/><path d="M385.48,513.3c.39-2.43,.78-4.85,1.18-7.28,.24-1.51-2.07-2.16-2.31-.64-.39,2.43-.78,4.85-1.18,7.28-.24,1.51,2.07,2.16,2.31,.64h0Z"/><g><path class="cls-31" d="M371.27,549.82c.35-1.23,3.88-.73,10.99-1.49,4.39-.47,7.94-1.18,10.26-1.72-.65,1.24-1.37,2.18-1.94,2.83-.8,.9-1.54,1.51-1.96,1.84-.8,.61-1.54,1.04-2.16,1.36-1.52,.8-4.65,2.44-8.41,1.77-3.63-.64-7.15-3.3-6.78-4.59Z"/><path d="M371.63,549.92c.23-.66,1.98-.6,2.49-.64,1.86-.14,3.73-.2,5.59-.34,4.34-.34,8.66-1,12.91-1.97l-.42-.55c-1.91,3.56-5.21,6.07-9.05,7.25-2.32,.71-4.72,.68-7-.17-1.07-.4-2.12-.94-3.03-1.63-.5-.38-1.62-1.21-1.48-1.95,.09-.47-.63-.67-.72-.2-.3,1.63,1.96,2.98,3.12,3.62,2.37,1.32,5.07,1.89,7.75,1.42,4.63-.8,8.86-3.86,11.07-7.97,.16-.29-.1-.62-.42-.55-4.85,1.11-9.78,1.78-14.75,2.08-1.64,.1-3.3,.1-4.93,.34-.71,.11-1.57,.28-1.84,1.05-.16,.46,.57,.65,.72,.2Z"/></g><path class="cls-2" d="M375.74,570.81c7.92,1.05,10.66,0,20.39-1.69-1.41,2.71-4.56,8.02-10.12,11.88-5.52,3.83-10.62,4.3-13.12,4.32-1.73-.14-5.53-.78-9.13-4.32-6.29-6.18-6.72-16.04-6.77-17.51"/><path d="M352.4,573.55c2.33-3.18,4.92-7.56,4.77-11.64-.04-1.15-1.84-1.16-1.8,0,.14,3.76-2.37,7.8-4.53,10.73-.69,.93,.88,1.83,1.55,.91h0Z"/><path d="M406.23,562.52c.02,6.38,2.21,12.38,5.57,17.74,1.02,1.63,3.62,.13,2.59-1.51-3.09-4.93-5.14-10.35-5.16-16.23,0-1.93-3.01-1.93-3,0h0Z"/><path d="M351.97,457.66c1.45,0,1.45-2.25,0-2.25s-1.45,2.25,0,2.25h0Z"/><path class="cls-27" d="M385.27,603.32c-.08,4.15-3.58,8.26-4,10.06-1.81,7.76-1.34,8.89-4,14.53-1.32-4.46-2.65-8.93-4-13.41-1.17-3.9-2.34-7.77-3.52-11.64"/><path d="M373.93,665.8c.96-7.62,2.08-15.21,3.03-22.83,1.03-8.27,1.46-16.59,4.16-24.54,3.02-8.91,6.9-17.51,9.93-26.45h-1.74c1.95,5.69,3.9,11.38,5.85,17.06,.2,.57,1.05,.97,1.5,.4,7.33-9.33,14.67-18.67,22-28,.39-.49,.32-1.04-.18-1.41l-4-3c-.25-.19-.65-.15-.91,0-8,4.63-16.22,9-24,14-.97,.62-.07,2.18,.91,1.55,4.64-2.98,9.5-5.62,14.27-8.37,2.74-1.58,5.75-2.99,8.33-4.82,.95-.67,1.6-.43,.67-.68,1.18,.32,2.81,2.11,3.83,2.87l-.18-1.41c-7.33,9.33-14.67,18.67-22,28l1.5,.4c-1.95-5.69-3.9-11.38-5.85-17.06-.29-.85-1.45-.86-1.74,0-3.14,9.28-7.32,18.22-10.28,27.52-2.38,7.45-2.81,15.15-3.74,22.86s-2.15,15.94-3.16,23.93c-.14,1.15,1.66,1.14,1.8,0h0Z"/><path class="cls-5" d="M382.99,657.86c2.82-.22,3.91,4.66,.11,4.93"/><polyline class="cls-30" points="365.32 591.29 357.32 608.29 343.5 572.85 347.5 569.85 364.32 590.29 365.32 591.29"/><path d="M366.67,591.17c-6.72-6.72-12.44-14.67-18.54-21.95-.23-.27-.8-.36-1.09-.14l-4,3c-.29,.22-.57,.63-.41,1.02,4.85,11.98,9.69,23.97,14.54,35.95,.26,.63,1.28,.99,1.64,.21,2.67-5.67,5.33-11.33,8-17l-1.64-.21c3.81,12.99,8.22,25.89,11.24,39.1,.26,1.13,1.99,.65,1.74-.48-3.02-13.21-7.43-26.11-11.24-39.1-.2-.69-1.3-.95-1.64-.21-2.67,5.67-5.33,11.33-8,17l1.64,.21c-4.77-11.78-9.52-23.57-14.3-35.35-.06-.15-.23-.41-.23-.57-.03,1.42-.31,.56,.84,.04,.86-.39,1.52-1.27,2.34-1.75s-1.25-.67-.42-.12c2.24,1.5,4.26,5.09,5.97,7.13,4.04,4.82,7.85,10.05,12.3,14.5,.82,.82,2.09-.45,1.27-1.27h0Z"/><g><polyline class="cls-30" points="390.24 591.7 396.09 608.76 418.09 580.76 414.09 577.76 392.09 590.48 390.09 591.76"/><path d="M389.37,591.94c1.95,5.69,3.9,11.38,5.85,17.06,.2,.57,1.05,.97,1.5,.4,7.33-9.33,14.67-18.67,22-28,.39-.49,.32-1.04-.18-1.41l-4-3c-.25-.19-.65-.15-.91,0-8,4.63-16.22,9-24,14-.97,.62-.07,2.18,.91,1.55,4.64-2.98,9.5-5.62,14.27-8.37,2.74-1.58,5.75-2.99,8.33-4.82,.95-.67,1.6-.43,.67-.68,1.18,.32,2.81,2.11,3.83,2.87l-.18-1.41c-7.33,9.33-14.67,18.67-22,28l1.5,.4c-1.95-5.69-3.9-11.38-5.85-17.06-.37-1.09-2.11-.62-1.74,.48h0Z"/></g><polygon class="cls-44" points="360.53 605.49 362.74 609.85 369.5 603.85 366.12 593.85 360.53 605.49"/><polygon class="cls-44" points="395.71 605.71 393.51 610.08 386.75 604.08 390.13 594.08 395.71 605.71"/><path d="M369.25,496.14c-1.41-1.84-3.48-2.87-5.82-2.61s-4.53,1.59-6.22,3.24c-.35,.34,.18,.87,.53,.53,1.5-1.46,3.39-2.68,5.5-2.99s4.06,.53,5.36,2.22c.29,.38,.94,0,.65-.38h0Z"/><path class="cls-15" d="M994.31,592.47c-58.44,0-105.82-47.38-105.82-105.82h0c0-60.02,48.66-108.68,108.68-108.68h6.56c60.02,0,108.68,48.66,108.68,108.68h0c0,58.44-47.38,105.82-105.82,105.82"/><path class="cls-29" d="M1011.04,544.2c-1.68,28.67-3.46,54.61-5.26,77.82,4.76,1.62,9.51,3.28,14.25,4.95,11.61,4.1,23.32,7.93,34.77,12.51,8.8-3.35,17.6-6.69,26.77-8.73,5.55-1.24,11.2-2.21,16.87-3.13-.52-18.67-1-39.25-.7-61.93-2.36-14.99-23.35-24.97-40.15-26.18l-17.37-7.43-11.11-5.9c-1.51-.97-3.05-1.98-4.1-3.48-1.39-1.99-1.72-4.57-2.75-6.79l1.5-3.22c-9.34,14.42-28.09,19.22-40.51,7.78l-3.55-3.06c-1.58,4.41-5.58,10.65-14.58,13.78l-5,2.08c-24,12.5-36,19.78-41.26,44.76-1.46,6.92-2.31,13.96-3.26,20.98,5.88,.85,11.75,1.81,17.59,2.91,14.86,2.79,29.53,6.57,44.05,10.91,3.82-25.04,6.58-48.86,7.96-71.3,1.33,5.54,5.49,9.79,10.64,10.85,6.02,1.25,12.35-2.08,15.2-8.18Z"/><path class="cls-2" d="M984.57,520.47c5.01-1.76,11.12-3.47,18.17-4.57,7.78-1.22,14.7-1.39,20.37-1.14-.84,2.43-2.86,7.29-7.45,11.66-4.56,4.34-9.36,6-11.76,6.65-1.69,.34-5.44,.82-9.56-.96-7.19-3.11-9.46-10.53-9.78-11.64Z"/><path class="cls-33" d="M957.79,466.75c.26,5.24,.78,11.15,1.79,16.3,.73,3.49,1.91,7.61,3.84,12.04,1.11,2.54,2.3,4.8,3.47,6.79,.94,1.91,2.18,3.94,3.64,6.1,.43,.64,.94,1.32,1.63,2.15,1.6,1.85,3.42,3.79,5.48,5.77,2.18,2.1,4.31,3.92,6.32,5.51,1.28,1.01,9.38,7.57,20.41,5.32,7.06-1.44,13.75-5.84,18.21-12.45,2.35-2.22,5.17-5.37,7.68-9.58,1.46-2.46,2.54-4.8,3.33-6.87,.92-2.69,1.83-5.82,2.5-9.36,.67-3.53,1.11-7.01,1.18-9.08l.21-2.46c.12-5.25-.37-11.16-.99-16.37l-10.9-33.19-17.31-6.5-31.78,2.72-16.66,15.96-2.04,27.21Z"/><path class="cls-26" d="M995.53,409.79l-2.55,.17c-3.49,1.62-7.44,2.91-11.18,3.72s-7.76,.74-11.24-.93c.32,.8,.02,1.81-.66,2.29-.78,.55-1.82,.38-2.76,.54s-1.94,1.09-1.53,1.98c-1.71,.47-3.4,.99-5.08,1.56l-2.74,3.92c-2.89,6.67-7.73,12.38-13.71,16.18,1.47,.37,2.9,.89,4.28,1.55-1.07,2.52-1.89,5.16-2.46,7.86-.16,.76-.29,1.59,.05,2.29,.34,.7,1.35,1.06,1.84,.47,.89,1.77-.59,3.78-.78,5.76-.3,3.2,2.68,5.53,4.74,7.95,2.19,2.58,3.54,5.92,3.78,9.35,.04,.57,.06,1.18,.36,1.65,.3,.48,2.47,.14,2.85-.26,0-4.91-1.03-10.44,.44-17.27,1.19-5.52,2.79-10.28,4.39-14.19,.19-.51,1.3-2.45,3.59-3.99,1.48-.99,3.48-1.35,5-.4,.34,.21,.68,.49,1.08,.49,.84-.01,1.28-1.28,2.12-1.3,.45-.01,.83,.35,1.15,.69,.59,.63,1.19,1.25,1.78,1.88,1.97-3.88,5.16-7.05,8.95-8.92l2.48-1.1c2.29-.76,4.85-.59,7.05,.45l2.67-.07c6.41-4.08,9.94,3.06,14.99,5.39l17.46,9.51c.98,3.03,1.91,6.33,2.73,9.89,1.07,4.64,1.79,8.99,2.27,12.95,.24,.02,.58,.02,.98-.05,.32-.06,.63-.17,.93-.32-.03-2.82-.06-5.63-.09-8.45-.02-1.93-.03-3.92,.6-5.72,.66-1.87,1.91-4.19,.53-5.58-.23-.23-.52-.41-.7-.69-.81-1.35,1.73-2.5,1.73-4.08,0-.78-.65-1.47-.56-2.24,.09-.7,.74-1.15,1.05-1.77,.61-1.23-.24-2.69-1.05-3.8-1.8-2.48-3.61-4.95-5.41-7.43l-1.56-2.61c-.83-1.13-2.11-2.08-1.77-3.12,.28-.84,2.49-2.03,3.15-2.45-6.82-1.67-21.24-6.63-26.09-10.04l-3.7-.64c-3.13-.37-6.26-.75-9.39-1.12"/><path d="M967.7,484.8c1.45,0,1.45-2.25,0-2.25s-1.45,2.25,0,2.25h0Z"/><path d="M1012.44,451.29c-.45,.15-3.5,1.21-5.85,.21-.41-.17-1.17-.55-1.43-1.27-.26-.72,.32-1.29,.52-1.48,2.3-.71,7.33-1.89,14.13-1.21,5.29,.53,8.84,1.72,11.57,3.03,.42,.69,.39,1.09,.28,1.33-1.01,2.26-11.39-3.25-19.21-.61Z"/><path d="M957.65,466.81c.28,5.52,.76,11.06,1.82,16.5,.18,.95,1.63,.55,1.45-.4-1.03-5.3-1.49-10.71-1.77-16.1-.05-.96-1.55-.97-1.5,0h0Z"/><path d="M966.85,502.31c2.17,3.29,3.71,6.94,6.52,9.78,.68,.69,1.74-.37,1.06-1.06-2.71-2.74-4.19-6.3-6.29-9.48-.53-.8-1.83-.05-1.3,.76h0Z"/><path d="M1035.59,479.61c-.11,3.05-.62,6.11-1.19,9.11s-1.26,6.29-2.48,9.23c-.18,.45,.54,.64,.72,.2,1.25-3.02,1.93-6.29,2.53-9.49,.56-2.98,1.06-6.02,1.17-9.05,.02-.48-.73-.48-.75,0h0Z"/><path d="M957.06,422.16c-2.83,6.43-7.38,11.96-13.3,15.78-.79,.51-.7,1.8,.27,2.06,1.38,.36,2.72,.83,4.01,1.44l-.52-1.27c-1.16,2.78-2.38,5.92-2.63,8.94-.09,1.09,.15,2.27,1.1,2.93s1.99,.58,2.84-.15l-1.88-.5c.61,1.47-.31,2.93-.64,4.37-.26,1.13-.26,2.3,.1,3.41,.8,2.42,2.79,4.17,4.43,6.03,1.95,2.2,3.23,4.92,3.68,7.83,.18,1.18,.01,2.6,.82,3.58,.67,.82,1.86,1.12,2.76,.48,1.17-.83,.05-2.78-1.14-1.94,.29-.21-.31-2.97-.38-3.33-.23-1.13-.57-2.22-1.02-3.28-.91-2.18-2.26-4.01-3.86-5.73-1.35-1.45-3.2-3.13-3.34-5.25-.15-2.36,1.74-4.37,.75-6.76-.33-.8-1.19-1.09-1.88-.5,.11-.09-.11-.53-.13-.8-.02-.41,.13-.92,.22-1.32,.18-.82,.39-1.64,.62-2.45,.48-1.69,1.07-3.34,1.74-4.97,.17-.42-.11-1.08-.52-1.27-1.47-.69-2.98-1.25-4.55-1.66l.27,2.06c6.23-4.01,11.13-9.81,14.11-16.58,.58-1.31-1.36-2.46-1.94-1.14h0Z"/><path d="M1037.14,470.38c.83,0,1.52-.21,2.27-.56,.23-.11,.37-.4,.37-.65-.03-2.4-.05-4.8-.08-7.2-.02-2.26-.17-4.59,.56-6.77,.51-1.49,1.37-3.03,1.14-4.66-.09-.63-.36-1.18-.8-1.65-.69-.72-.7-.87-.05-1.69,.72-.91,1.51-1.84,1.24-3.09-.24-1.11-.68-1.47,.06-2.52,.44-.62,.72-1.24,.7-2.01-.06-1.79-1.5-3.33-2.49-4.7-1.42-1.96-2.85-3.91-4.27-5.87-.56-.77-1.86-.02-1.3,.76,1.33,1.82,2.66,3.65,3.99,5.47,.62,.86,1.3,1.69,1.86,2.59,.69,1.1,.95,2.01,.12,3.11-.37,.49-.65,.97-.66,1.61,0,.74,.58,1.37,.55,2.08-.05,1.18-1.54,1.91-1.82,3.05-.38,1.53,1.36,1.97,1.41,3.32,.07,1.72-1.13,3.4-1.47,5.06-.41,2.01-.29,4.1-.27,6.14,.03,2.32,.05,4.64,.08,6.96l.37-.65c-.54,.25-.92,.36-1.51,.35-.97,0-.97,1.49,0,1.5h0Z"/><path d="M992.84,409c-3.45,1.58-7.08,2.79-10.78,3.6s-7.46,.77-10.88-.81c-.56-.26-1.3,.17-1.1,.85,.64,2.2-2.33,1.58-3.54,2.13-1.07,.49-1.75,1.51-1.41,2.69l.52-.92c-1.71,.47-3.4,.99-5.08,1.56-.91,.31-.52,1.76,.4,1.45,1.68-.57,3.37-1.09,5.08-1.56,.39-.11,.64-.53,.52-.92-.34-1.16,1.65-1.1,2.24-1.16,.63-.06,1.25-.19,1.78-.58,.97-.72,1.25-1.96,.93-3.08l-1.1,.85c7.42,3.43,16.2,.41,23.18-2.79,.88-.4,.12-1.69-.76-1.3h0Z"/><path d="M1008.48,411.83c3.69,2.55,8.15,4.14,12.32,5.69,4.57,1.7,9.22,3.26,13.95,4.43l-.18-1.37c-1.09,.69-2.7,1.37-3.35,2.56-.88,1.61,.94,3.07,1.82,4.19,.59,.76,1.65-.31,1.06-1.06-.41-.53-.96-1.01-1.31-1.58-.39-.64-.26-.91,.26-1.34,.7-.58,1.52-1,2.28-1.48,.53-.33,.47-1.21-.18-1.37-4.62-1.14-9.16-2.66-13.62-4.31-4.17-1.54-8.62-3.12-12.3-5.66-.8-.55-1.55,.75-.76,1.3h0Z"/><path d="M987.1,431.88c-3.97,2-7.17,5.25-9.22,9.19l1.18-.15c-.93-.98-2.29-3.17-3.9-2.72-.63,.18-1.04,1.09-1.6,1.2-.37,.07-.79-.37-1.09-.52s-.66-.28-1-.36c-3.76-.87-6.41,2.49-8.3,5.19-.56,.79,.74,1.54,1.3,.76,1.67-2.38,4.41-5.94,7.69-4.04,.91,.52,1.65,.7,2.53,0,.66-.52,.72-1,1.54-.33,.65,.52,1.21,1.27,1.78,1.88,.32,.34,.96,.27,1.18-.15,1.94-3.73,4.92-6.75,8.68-8.65,.86-.43,.1-1.73-.76-1.3h0Z"/><path d="M1000.05,432.45c1.22-.76,2.58-1.29,4.04-1.09,1.29,.17,2.45,.85,3.49,1.58,2.26,1.6,4.17,3.7,6.7,4.9,.87,.41,1.63-.88,.76-1.3-2.74-1.29-4.75-3.66-7.27-5.28-1.18-.75-2.48-1.31-3.88-1.42-1.64-.13-3.22,.46-4.59,1.32-.82,.51-.07,1.81,.76,1.3h0Z"/><path d="M990.16,432.15c2.12-.69,4.45-.57,6.47,.38,.37,.17,.81,.1,1.03-.27,.19-.33,.1-.85-.27-1.03-2.39-1.12-5.11-1.34-7.63-.53-.91,.3-.52,1.74,.4,1.45h0Z"/><path d="M979.42,454.37c.49,.07,3.77,.57,6.02-.85,.39-.25,1.11-.76,1.26-1.52,.15-.76-.53-1.23-.77-1.38-2.47-.29-7.8-.55-14.64,1.35-5.33,1.48-8.76,3.31-11.34,5.1-.32,.76-.22,1.16-.07,1.37,1.39,2.07,11.12-5.3,19.55-4.08Z"/><path d="M991.98,485.49c2.21,1.74,4.89,2.98,7.77,2.64s5.04-1.93,6.82-3.95c.51-.58-.34-1.43-.85-.85-1.56,1.78-3.55,3.27-5.95,3.6-2.54,.35-4.97-.74-6.93-2.28-.6-.47-1.46,.37-.85,.85h0Z"/><path d="M997.38,465.77c.31,3.61,.62,7.23,.93,10.84,.07,.76,1.27,.77,1.2,0-.31-3.61-.62-7.23-.93-10.84-.07-.76-1.27-.77-1.2,0h0Z"/><path class="cls-36" d="M1059.27,523.02l-10.87-.96c-4.97-1.02-28.68-2.3-24.44,.96,31.44,24.04,40.44,11.04,64.73,27.23-6.3-13.89-11.73-20.49-29.42-27.23Z"/><path class="cls-31" d="M1005.14,621.8l5.52-77.75c-9.49,6.08-18.98,6.08-25.3,0l-3.16,21.26c-2.1,18.65-3.94,34.07-5.72,47.29,9.61,2.86,19.17,5.96,28.67,9.2Z"/><path class="cls-14" d="M1057.16,589.34c.85,14.4,2.27,33.8,2.75,48.22"/><path class="cls-6" d="M916.07,594.38c.27-13.95,4.27-27.48,12.27-38.94,9-10.41,20-16.66,32-22.33"/><path class="cls-36" d="M1059.25,637.79l-1.93-47.04c0-11.43-7.22-42.87-2.41-57.15l-19.26-5.72c-9.17,21.36,10.45,71.74,21.25,110.8,.78-.3,1.56-.59,2.34-.88Z"/><path class="cls-6" d="M1055.4,535.06c-5,12,3,44.57,3,56"/><path class="cls-13" d="M1034.9,528.56c-2.32,6.74-3.56,12.31-2.56,19.6,6,30.2,16.18,62,25.56,90.4"/><ellipse class="cls-35" cx="1026.89" cy="597.57" rx="6.61" ry="6.01"/><path class="cls-36" d="M1098.27,603.25c.51,8.69-.23,17.34,.13,24.81,1.95-.31,3-3,7.03-1.57"/><path class="cls-33" d="M1021.82,514.9c-.11,5.15,3.31,7.16,6.02,11.45l-12,11.45c-6.82,7.21-11.46,10.31-21.08,9.22-7.92-.89-17.63-10.08-20.92-19.64l4.96-10.75,43.01-1.75"/><path d="M965.64,532.12c3.68-1.29,7.22-3.23,9.76-6.25,1.85-2.19,3.03-4.74,3.99-7.42,.2-.57-.23-1.23-.79-1.38-.62-.17-1.18,.21-1.38,.79-.81,2.26-1.79,4.51-3.41,6.43-2.3,2.73-5.43,4.5-8.77,5.68-1.36,.48-.77,2.65,.6,2.17h0Z"/><path d="M983,521.13c9.46,8.26,23.4,7.61,33.26,.37,2.85-2.09,5.29-4.64,7.29-7.56,.55-.8-.75-1.55-1.3-.76-6.39,9.36-18.55,14.86-29.71,11.58-3.14-.92-6.02-2.55-8.49-4.7-.72-.63-1.79,.42-1.06,1.06h0Z"/><path class="cls-10" d="M984.42,543.46c-2.44,21.3-5.09,42.58-8.04,63.81"/><path class="cls-4" d="M973.84,527.39c15,27.07,28,28.11,54-1.04"/><path class="cls-14" d="M1011.34,544.57c-1.54,24.29-3.09,48.57-4.89,72.84"/><path class="cls-14" d="M1029.9,588.33c7.66,5.68,2.56,20.84-10.22,11.37"/><path class="cls-2" d="M979.03,517.76c6.81,4.43,10.71,7.84,17.81,8.59,7.83,.83,13-1.04,25-9.37-1.39,2.14-8.62,11.54-14.12,14.58-5.46,3.02-10.4,4.15-12.88,4.16-1.71-.11-5.55-1.37-9.12-4.16-6.22-4.88-6.65-12.65-6.69-13.81Z"/><path d="M1017.05,463.54c5.79,0,5.8-9,0-9s-5.8,9,0,9h0Z"/><path d="M1013.19,456.6c3.07-3,7.6-1.48,10.47,1,.36,.31,.9-.21,.53-.53-3.19-2.75-8.14-4.3-11.53-1-.35,.34,.18,.87,.53,.53h0Z"/><path d="M971.93,466.45c5.79,0,5.8-9,0-9s-5.8,9,0,9h0Z"/><path d="M968.19,459.6c1.31-1.28,2.98-1.91,4.8-1.76,1.71,.14,3.33,.89,4.74,1.82,.4,.27,.78-.38,.38-.65-1.57-1.03-3.36-1.81-5.26-1.93s-3.79,.62-5.2,1.99c-.35,.34,.18,.87,.53,.53h0Z"/><path class="cls-9" d="M1024.9,521.56c5.71,.01,12.66-.43,19,0,5.37,.36,9,0,15.37,1.46,2.63,.54,11.55,3.56,18.63,10.54,5.44,5.36,8.67,12.56,10,16"/><path d="M1021.51,516.32c.63,1.41,.98,2.93,1.53,4.37,.59,1.53,1.4,2.91,2.61,4.03s2.59,1.95,3.94,2.82c1.56,1.01,3.12,2.01,4.68,3.02l-.52-1.27c-.07,.31-.13,.62-.2,.93-.3,1.41,1.86,2.02,2.17,.6,.07-.31,.13-.62,.2-.93,.11-.51-.08-.99-.52-1.27-1.44-.93-2.88-1.86-4.32-2.79-1.31-.85-2.7-1.64-3.85-2.7-2.27-2.09-2.58-5.25-3.79-7.95-.25-.56-1.05-.68-1.54-.4-.57,.33-.65,.99-.4,1.54h0Z"/><path class="cls-5" d="M1098.4,627.06c-.16-18.95-1.07-40.15-1-59,.06-17.88-23.06-29.28-39.59-28.7"/><line class="cls-17" x1="1058.4" y1="591.06" x2="1060.4" y2="638.06"/><path d="M1016.2,502.1c.41-.72,.4-1.6-.06-2.3s-1.27-1.15-2.13-1.21c-.57-.04-1.14,.11-1.65,.36-.35,.17-.04,.69,.3,.52,.83-.4,1.88-.39,2.6,.24,.62,.54,.83,1.37,.42,2.1-.19,.34,.33,.64,.52,.3h0Z"/><rect class="cls-7" x="962.18" y="449.29" width="25.5" height="26.5" rx="12.75" ry="12.75" transform="translate(1437.47 -512.39) rotate(90)"/><rect class="cls-7" x="1005.39" y="445.39" width="25.5" height="26.5" rx="12.75" ry="12.75" transform="translate(1476.78 -559.51) rotate(90)"/><g><path d="M1004.68,460.29c-3.48-1.24-6.3-1.19-8-1-4.2,.47-8.32,2.56-8.22,2.93,.02,.05,.12,.07,.22,.07,2-.77,4.71-1.6,8-2,3.18-.38,5.92-.25,8,0Z"/><path d="M1004.78,459.93c-4.75-1.65-9.6-1.32-14.22,.63-.28,.12-3.41,1.38-2.21,2.04,.35,.19,.78-.08,1.11-.2,.58-.21,1.16-.4,1.74-.58,1.29-.39,2.6-.7,3.93-.93,3.15-.54,6.37-.6,9.54-.23,.48,.06,.47-.69,0-.75-2.78-.33-5.58-.32-8.36,.05-1.43,.19-2.84,.46-4.23,.83-.63,.17-1.26,.35-1.89,.56-.2,.07-1.42,.64-1.56,.55l.19,.32c0,.19,.03,.04,.2-.06s.34-.21,.52-.31c.55-.3,1.13-.55,1.71-.78,1.5-.59,3.06-1.05,4.65-1.3,2.92-.47,5.87-.09,8.66,.88,.46,.16,.65-.57,.2-.72Z"/></g><line class="cls-19" x1="1031.2" y1="460.85" x2="1037.18" y2="469.79"/><line class="cls-19" x1="961.18" y1="462.79" x2="958.18" y2="469.79"/><rect class="cls-39" x="247.56" y="670.39" width="81.24" height="81.95" rx="40.3" ry="40.3" transform="translate(-317.07 239.4) rotate(-30)"/><path d="M416.26,496.32c-1.41-1.84-3.48-2.87-5.82-2.61s-4.53,1.59-6.22,3.24c-.35,.34,.18,.87,.53,.53,1.5-1.46,3.39-2.68,5.5-2.99s4.06,.53,5.36,2.22c.29,.38,.94,0,.65-.38h0Z"/><path class="cls-31" d="M997.74,508.77c-5.33-.2-6.77-2.19-7.25-2.66-.53-.54-1.17-.07,.5-.33,.83-.13,.6-.52,3.07-.59,1.22-.03,2.78-.67,4.84-.76,2.61-.11,11.87-2.45,12.23-1.79,.37,.5-2.94,3.63-4.35,4.33-1.41,.7-6.44,1.83-9.04,1.8"/><path class="cls-28" d="M994.36,508.25c1.06-.52,3.52-1.59,7.02-1.78,2.61-.14,4.69,.27,5.86,.56-.62,.47-2.38,1.96-5.43,2.14-3.54,.21-6.25-.53-7.46-.92"/><path d="M992.17,506c3.27-.2,6.52-.53,9.76-1,1.73-.25,3.45-.55,5.16-.88,.81-.16,1.63-.32,2.44-.5,.76-.16,1.59-.47,2.36-.52l-.65-.37,.03,.06v-.76c-.96,1.55-2.02,2.9-3.42,4.11-1.55,1.35-3.26,2-5.27,2.27-2.48,.33-5.05,.25-7.38-.73-1.1-.46-2.2-.97-3.27-1.5-.16-.08-1.02-.69-1.16-.66l-.08,.66c.1-.03,.2-.06,.3-.07,.35,.03,.8-.09,1.16-.1,.96-.04,.97-1.54,0-1.5-.83,.04-2.6,0-2.82,1.1-.2,.98,1.15,1.54,1.83,1.87,3.07,1.52,6.06,2.74,9.55,2.6,2.42-.09,4.96-.49,6.98-1.91s3.57-3.3,4.86-5.38c.14-.23,.13-.53,0-.76l-.03-.06c-.12-.22-.39-.39-.65-.37-1.41,.1-2.85,.61-4.24,.89-1.76,.36-3.53,.68-5.3,.95-3.37,.52-6.77,.87-10.18,1.07-.96,.06-.97,1.56,0,1.5Z"/><g id="Tracé_1013"><path class="cls-31" d="M447.51,722.77l21.93,9.67-21.93-9.67Z"/><path d="M447.51,722.77l21.93,9.67-21.93-9.67Z"/></g><g id="Composant_26_1" class="cls-42"><g id="Rectangle_510-2"><path class="cls-31" d="M704.42,272.78h0c116.53,0,211,94.47,211,211v4c0,116.53-94.47,211-211,211h0c-116.53,0-211-94.47-211-211v-4c0-116.53,94.47-211,211-211Z"/><path class="cls-11" d="M704.42,274.28h0c115.7,0,209.5,93.8,209.5,209.5v4c0,115.7-93.8,209.5-209.5,209.5h0c-115.7,0-209.5-93.8-209.5-209.5v-4c0-115.7,93.8-209.5,209.5-209.5Z"/></g></g><rect class="cls-12" x="495.32" y="272.06" width="422.73" height="423" rx="211.26" ry="211.26"/><rect class="cls-3" x="584.68" y="366.56" width="244.4" height="244.07" rx="121.94" ry="121.94"/><rect class="cls-20" x="669.76" y="451.56" width="73.31" height="72.88" rx="36.44" ry="36.44"/><g><path class="cls-22" d="M907.69,675.94l-199.2-183.96,199.2,183.96Z"/><path class="cls-23" d="M729.77,493.98c.76,.39,1.23,1.23,1.2,2.14-.06,2.53-.66,7.35-4.11,11.55-4.39,5.34-10.36,5.99-13.11,5.98-.86,0-1.62-.57-1.94-1.42l-4.96-21.9c-.12-1.43,1-2.63,2.32-2.49l20.61,6.15Z"/><path class="cls-24" d="M912.21,669.96c2.42,2.31,2.46,5.55,0,5.81-1.54,.16-4.52-.84-5.52,.16s0,3,.05,5.53c.05,2.49-3.19,2.8-5.62,.48-6.89-6.58-13.78-13.16-20.67-19.74-.72-.69-1.27-1.52-1.56-2.34-1.26-3.63-2.53-7.27-3.79-10.9-.82-2.36,.67-3.94,3.07-3.24l11.14,3.24c.85,.25,1.71,.76,2.44,1.46l20.47,19.55Z"/></g><rect class="cls-46" x="539.51" y="13.63" width="321.38" height="321.66" rx="155.02" ry="155.02" transform="translate(6.67 373.8) rotate(-30.03)"/><rect class="cls-38" x="567.26" y="13.99" width="321.38" height="321.66" rx="155.02" ry="155.02" transform="translate(10.22 387.73) rotate(-30.03)"/><rect class="cls-16" x="592.24" y="32.19" width="260.51" height="261.03" rx="127.72" ry="127.72"/><path class="cls-33" d="M750.75,216.39c3.3-2.2,1.59-3.82,.07-7.95-1.53-4.13-2.43-8.53-3.33-12.91-.45-2.2-.9-4.39-1.35-6.59l-46.01,13c-1.96,3.3-3.59,6.88-5.58,10.16-1.99,3.28-4.43,6.32-7.53,8.02l-2.6,.63q2.97,2.05,8.32,5.91c8.32,6.01,21.03,15.76,30.74,14.77,13.83-1.4,21.42-20.19,35.19-22.23"/><path class="cls-2" d="M701.36,203.3c8.05,5.56,9.34,4.28,17.73,5.23,9.25,1.04,16.55-3.92,28.36-16.99-1.64,2.69-1.18,18.3-13.06,27.34-6.02,4.58-12.3,5.2-15.23,5.22-2.03-.14-6.57-1.72-10.77-5.22-7.35-6.12-6.98-14.12-7.03-15.58Z"/><path class="cls-33" d="M681.74,142.27c.44,2.92,.5,5.9,.2,8.84-.42,4.08-1.55,8.31-.24,12.18,.5,3.74,1.36,8.08,2.82,12.81,1.21,3.92,2.62,7.37,4.02,10.32,1.15,3.2,3.23,7.95,7.26,12.73,2.78,3.29,5.92,5.58,10.38,9.12l2.58,1.93c8.08,4.36,9.63,5.74,22.01,0l1.8-.82c7.02-4.49,13.33-9.22,18.69-16.41,1.99-3.03,2.25-3.35,4.36-7.64,1.7-3.46,3.55-5.77,5-9.97,1.31-3.8,3.23-8.2,4.65-13.43,1.18-4.36,1.94-8.62,2.07-12.84l.29-2.58c-4.13-5.74-2.54-10.1-3.37-14.83l-.78-3.9c.28-3.32-2.04-6.4-4.9-7.9-2.85-1.5-6.14-1.73-9.34-1.87-8.53-.36-22.89-.2-33.9-8.8h-5.5c-4.13,7.17-9.63,11.48-19.26,14.34l-5.65,4.32c-.51,4.53,1.52,5.72-2.6,12.89l-.59,1.51Z"/><path class="cls-37" d="M748.05,85.27c11.35,3.05,17.58,9.54,22.82,18.27,6.29,10.48,9.8,30.58,4.13,38.21l.22,2.83c.27,1.34,.83,4.79-.32,8.8-1.3,4.57-2.79,5.99-3.68,6.72l-.35,1.59c-1.88,4.75-4.63,9.73-10.27,14.48l4.88-19.79,.29-2.99c-4.03-6.64-1.7-10.58-2.51-16.05,0-1.34,.83-1.84,0-2.68-1.33-1.34-1.14-2.52-1.54-2.96-.49-2.95-1.45-7.08-4.78-9.15-2.78-1.73-6-2.01-9.11-2.16-8.33-.41-22.34-.23-33.08-10.19l-3.25,1.69-2.12-1.69c-4.03,8.31-7.06,13.1-16.46,16.42-.63,.08-4.14,1.83-5.31,2.68-1.87,1.34-1.33,4.02-2.65,5.36,0,2.68,.4,1.41,.11,4.37-.19,1.87-.81,4.15-2.53,7.72l-.58,1.75c.43,3.38,.49,6.83,.19,10.24-.41,4.72,.21,7.61,1.48,12.09v1.34h-1.72c-1.86-.57-3.97-2.24-4.48-6.03-.12-.89-.14-1.82-.28-2.7-.22-1.4-.72-2.52-1.19-3.61-1.63-3.75-3.14-7.8-4.16-12.4-1.02-4.6,1.09-12.32,1.56-17.3-.28-.88-1.67-5.3-1.67-7.53,0-4.02,2.06-3.56,2.65-5.36,1.33-4.02,1.22-.4,1.22-2.07-1.34-3.32,.31-5.63,.91-7.19,.59-1.56,1.51-2.9,2.15-4.42,.85-2,1.23-4.29,2.24-6.17,.98-1.81,2.46-3.08,3.91-4.31,3.57-3.03,18.99-9.48,25.7-11.14l7.94-.77c.7-.07,1.41-.1,2.11-.1,4.04,0,2.73-.18,8.64,.25,1,.07,5.22,.46,6.2,.67,2.34,.51,7.56,1.69,9.9,2.2,1.1,1.1,2.2,1.1,2.8,1.07Z"/><path d="M737.63,133.85c-.58,.11-4.5,.92-7.34-.37-.49-.22-1.41-.7-1.66-1.48-.25-.78,.53-1.33,.8-1.5,2.95-.51,9.37-1.24,17.8,.16,6.57,1.09,10.87,2.71,14.15,4.36,.46,.77,.37,1.19,.21,1.42-1.5,2.28-13.9-4.57-23.96-2.59Z"/><path d="M741.88,150.47c5.4,0,5.41-8.4,0-8.4s-5.41,8.4,0,8.4h0Z"/><path d="M703.74,134.09c.58,.11,4.5,.92,7.34-.37,.49-.22,1.41-.7,1.66-1.48,.25-.78-.53-1.33-.8-1.5-2.95-.51-9.37-1.24-17.8,.16-6.57,1.09-10.87,2.71-14.15,4.36-.46,.77-.37,1.19-.21,1.42,1.5,2.28,13.9-4.57,23.96-2.59Z"/><path d="M720.48,154.81c-.59,4.14-1.56,8.17-2.75,12.17-.11,.37,.47,.53,.58,.16,1.19-4,2.16-8.03,2.75-12.17,.05-.38-.52-.54-.58-.16h0Z"/><path d="M758.55,180.96c3.3-5.59,5.07-12.18,6.55-18.44,.43-1.83,.82-3.66,1.17-5.5,.21-1.13,.5-2.29,.4-3.45-.05-.6-.37-1.09-.62-1.64-.45-.98-.84-1.97-1.17-2.99-.46-1.42-.81-2.88-.97-4.37-.25-2.42,.09-4.82,.11-7.24,0-.97-1.49-.97-1.5,0-.01,2.04-.28,4.07-.19,6.12,.13,2.84,.87,5.59,1.97,8.2,.26,.61,.74,1.32,.87,1.92,.08,.37,.02,.88-.02,1.25-.19,1.8-.67,3.62-1.05,5.39-.78,3.54-1.7,7.06-2.82,10.51-1.06,3.26-2.26,6.52-4.01,9.48-.49,.83,.8,1.59,1.3,.76h0Z"/><path d="M715.25,110.93c5.7,5.1,12.77,8,20.26,9.26,3.13,.52,6.29,.79,9.46,.95,2.85,.14,6.23-.21,8.91,.85,1.92,.76,3.63,1.95,4.72,3.73,1.22,1.98,1.88,4.26,2.6,6.45,.3,.91,1.75,.52,1.45-.4-1.09-3.32-2.14-7.27-5.11-9.45-1.3-.96-2.89-1.79-4.48-2.13s-3.11-.33-4.65-.39c-6.75-.29-13.51-.7-19.96-2.89-4.48-1.52-8.62-3.87-12.15-7.03-.72-.64-1.78,.42-1.06,1.06h0Z"/><path d="M760.8,176.89c2.59-.91,4.38-3.36,5.78-5.6,1.63-2.62,2.9-5.46,4.03-8.32,.36-.9-1.09-1.29-1.45-.4-1.04,2.62-2.22,5.21-3.68,7.63-1.2,1.98-2.79,4.43-5.09,5.24-.9,.32-.51,1.77,.4,1.45h0Z"/><path d="M746.7,86.58c4.84,1.32,9.47,3.34,13.52,6.33,3.82,2.82,6.98,6.45,9.49,10.47,4.75,7.6,6.97,17.25,6.96,26.16,0,4.09-.44,8.7-2.92,12.12-.57,.78,.73,1.53,1.3,.76,2.25-3.11,2.89-7.19,3.08-10.94,.24-4.84-.37-9.74-1.46-14.46-2.14-9.28-6.6-17.99-14.05-24.12-4.54-3.73-9.88-6.22-15.52-7.76-.93-.25-1.33,1.19-.4,1.45h0Z"/><path d="M708.86,109.49c-1.94,3.87-4.44,7.43-7.67,10.33-3.41,3.06-7.48,5.23-11.79,6.73-.91,.32-.52,1.77,.4,1.45,4.47-1.56,8.68-3.79,12.25-6.94s6.08-6.76,8.11-10.82c.43-.86-.86-1.62-1.3-.76h0Z"/><path d="M713.06,110.58c.74,6.37,4.5,12.88,10.73,15.21,.45,.17,.65-.56,.2-.72-5.89-2.2-9.48-8.48-10.18-14.49-.05-.47-.81-.48-.75,0h0Z"/><path d="M711.84,112.31c.33,2.26-.35,4.47-1.65,6.32-.11,.16,.15,.31,.26,.15,1.34-1.92,2.02-4.22,1.68-6.55-.03-.19-.32-.11-.29,.08h0Z"/><path d="M689.26,186.69c-.84-1.71-1.51-3.49-2.18-5.28-.59-1.57-1.25-3.13-1.77-4.72s-.89-3.1-1.33-4.65c-.13-.46-.86-.27-.72,.2,.44,1.56,.84,3.14,1.34,4.69,.55,1.7,1.27,3.37,1.89,5.04s1.31,3.44,2.12,5.09c.21,.43,.86,.05,.65-.38h0Z"/><path d="M741.46,202.93c-3.78,2.98-7.69,5.89-11.92,8.21-2.56,1.41-5.34,2.65-8.27,3.02-4.19,.52-7.96-1.3-11.51-3.31-1.25-.71-2.54-1.38-3.65-2.3-2.38-1.97-4.77-3.92-6.97-6.08-.34-.34-.88,.19-.53,.53,3.08,3.02,6.36,5.92,10.09,8.1,1.82,1.06,3.7,2.08,5.67,2.85,4.83,1.9,9.6,.84,14.13-1.41,4.85-2.42,9.25-5.73,13.49-9.08,.38-.3-.16-.83-.53-.53h0Z"/><path d="M676.33,115.19c-.89-2.35-.23-4.13,.72-6.3s2.29-4.32,3.06-6.66c.86-2.63,1.64-4.92,3.7-6.88,.98-.93,2.01-1.77,3.16-2.48,5.65-3.47,12.11-6.05,18.43-8.01,2.88-.89,6.33-2.06,9.39-1.59,.94,.14,1.35-1.3,.4-1.45-2.92-.45-6.02,.39-8.81,1.18-3.73,1.06-7.37,2.46-10.94,3.99-3.09,1.33-6.19,2.74-9.07,4.49-3.34,2.02-5.9,4.82-7.14,8.56-.51,1.56-.96,3.1-1.73,4.56-.67,1.28-1.3,2.55-1.9,3.86-1.09,2.39-1.69,4.55-.72,7.12,.34,.89,1.79,.51,1.45-.4h0Z"/><path class="cls-8" d="M709.01,88.7c-11.2,5.98-12.12,2.18-19.85,10.53-7.97,8.6-4.4,10.99-9.77,18.75"/><path class="cls-1" d="M752.09,93.18c.74,4.22,1.38,8.74,1.89,13.53,.32,3.02,.56,5.94,.73,8.75,1.3,6.24,6.2,10.38,11.18,10,3.8-.29,7.22-3.18,8.9-7.37-.39-2.75-1.65-9.37-6.52-15.4-6.18-7.66-13.96-9.17-16.19-9.51Z"/><path d="M683.36,142.38c-.44,1.33-1,2.62-1.55,3.91-.42,1-.62,1.5-.4,2.53,.51,2.36,.67,4.69,.52,7.1-.17,2.77-.54,5.55-.32,8.33s.81,5.41,1.29,8.11l.72-.95c-1.32,0-2.19-.26-3.24-1.14-1.5-1.25-2.31-3.01-2.54-4.93-.13-1.12-.16-2.24-.44-3.35-.26-1-.69-1.95-1.11-2.89-.89-2.01-1.72-4.04-2.44-6.11s-1.41-4.23-1.81-6.39c-.34-1.82-.2-3.73,0-5.56,.4-3.77,1.3-7.48,1.69-11.25,.1-.96-1.4-.95-1.5,0-.65,6.29-2.84,12.55-1.24,18.86,.93,3.66,2.25,7.2,3.76,10.65,.86,1.95,1.36,3.69,1.57,5.82,.16,1.58,.55,3.1,1.44,4.45,.75,1.13,1.77,2.09,2.96,2.74,1,.54,1.79,.61,2.9,.61,.52,0,.81-.48,.72-.95-.47-2.68-1.09-5.36-1.26-8.09s.2-5.43,.36-8.14c.13-2.29,0-4.54-.47-6.79-.07-.32-.23-.71-.22-1.04s.37-.88,.56-1.32c.53-1.26,1.08-2.51,1.5-3.8,.3-.92-1.15-1.31-1.45-.4h0Z"/><path class="cls-34" d="M634.22,284.84c6.6,1.08,9.14,5.62,15.74,6.7,.64-6.89,.93-10.34,.86-10.35-.07,0-.52,3.63-1.35,10.9,10.84,2.36,21.65,4.92,32.56,6.71,13.33,1.58,26.73,2.77,39.96,5.11,9.35,1.65,18.52,4.13,27.84,5.91,2.73,.19,5.45,.25,8.18,.16,1.67-.42,3.32-.92,4.96-1.47,11.78-6.27,22.14-14.83,32.93-22.72,4.23-3.09,8.61-5.91,13.03-8.66-.02-.66-.03-1.32-.05-1.99-.31-12.59-1.18-24.01-5.32-35.62-4.15-11.61-9.9-14.32-20.91-16.52l-6.6-1.1c-3.05-.12-11-2.2-19.81-6.61-3.11-1.56-7.11,2.24-3.3-1.1-8.8,7.71-16.62,22.83-30.7,23.61-11.11,.62-22.12-10.4-32.39-20.08l-13.93,1.98c-29.71,2.2-44.01,22.03-48.41,51.77l-1.1,6.61c1.7,.26,6.11,6.51,7.81,6.77Z"/><path d="M661.88,253.57c-2.93,5.42-6.26,10.64-8.71,16.32-3,6.98-4.49,14.38-4.95,21.95-.06,.96,1.44,.96,1.5,0,.46-7.5,1.95-14.88,5-21.77,2.41-5.46,5.62-10.5,8.45-15.74,.46-.85-.84-1.61-1.3-.76h0Z"/><path d="M675.93,219.31c-10.14,.03-19.88,3.43-27.72,9.9-8.52,7.03-14.24,16.92-17.73,27.29-2.36,6.98-3.74,14.25-4.43,21.57-.05,.48,.7,.48,.75,0,1.16-12.12,4.25-24.31,10.54-34.83,5.19-8.68,12.69-16.06,22.12-19.97,5.22-2.16,10.83-3.18,16.48-3.2,.48,0,.48-.75,0-.75h0Z"/><path d="M778.98,271.46c.5,8.79,1.08,17.63,1.1,26.44,0,.48,.75,.48,.75,0-.02-8.8-.6-17.65-1.1-26.44-.03-.48-.78-.48-.75,0h0Z"/><path d="M776.06,222.27c7.72,.54,15.96,2.21,21.49,8.06,5.86,6.21,8.35,15.35,9.6,23.56,.93,6.08,1.16,12.24,1.35,18.39,.01,.48,.76,.48,.75,0-.33-11.18-.87-22.71-5.36-33.13-2.69-6.25-6.71-11.58-13.06-14.42-4.64-2.07-9.74-2.85-14.77-3.2-.48-.03-.48,.72,0,.75h0Z"/><path class="cls-8" d="M772.38,115.9c-4.03-14.08-9.53-17.38-12.21-19.65-7.46-6.32-15.4-7.67-18.73-8.07"/><path class="cls-8" d="M708.22,101.28c-11.6,5.36-15.16,4.16-19.91,10.14-6.12,7.7-4.75,13.15-9.71,19.14"/><path d="M749.04,196.52c2.75-3.12,4.67-6.81,6.78-10.37,.25-.42-.4-.79-.65-.38-2.07,3.5-3.95,7.15-6.66,10.22-.32,.36,.21,.89,.53,.53h0Z"/><path class="cls-7" d="M699.14,203.7c-2.36,3.27-3.53,7.62-6.42,11.31-1.35,1.73-1.4,1.77-2.67,2.85,4.12,2.5,15.03,18.91,30.43,20.01,17.61-1.1,21.88-16.42,31.64-22.48,2.38-1.48-1.36-6.87-2.35-10.15-.88-2.91-1.51-5.63-1.97-8.11"/><path d="M735.56,144.13c4.06-2.16,8.75-2.4,12.74,.06,.41,.25,.79-.39,.38-.65-4.22-2.6-9.2-2.35-13.49-.06-.43,.23-.05,.87,.38,.65h0Z"/><path d="M703.09,143.04c-4.44-1.86-9.43-1.63-13.34,1.33-.38,.29,0,.94,.38,.65,1.91-1.44,4.14-2.33,6.54-2.44,2.14-.1,4.25,.37,6.22,1.19,.44,.19,.64-.54,.2-.72h0Z"/><path d="M696.31,150.81c5.4,0,5.41-8.4,0-8.4s-5.41,8.4,0,8.4h0Z"/><path d="M689.99,144.47c4.06-2.16,8.75-2.4,12.74,.06,.41,.25,.79-.39,.38-.65-4.22-2.6-9.2-2.35-13.49-.06-.43,.23-.05,.87,.38,.65h0Z"/><path d="M735.19,143.61c4.19-2.22,9.45-2.07,13.49,.41,.41,.25,.79-.39,.38-.65-4.27-2.63-9.83-2.76-14.25-.41-.43,.23-.05,.87,.38,.65h0Z"/><path d="M726.23,175.69c-2.13,.82-4.37,1.53-6.68,1.36-1.56-.12-3.01-.66-4.48-1.14-.37-.12-.52,.46-.16,.58,4.15,1.37,7.32,1.39,11.48-.22,.36-.14,.2-.72-.16-.58h0Z"/><path class="cls-2" d="M720.35,157.09c-1.08,1.69,1.13-3.15-.41-1.29-.89,1.07-3.51,7.6-4.4,8.81-.08,.49,0,2.2,1.1,2.2,.92,0,1.54,.02,1.59,0,1.3-3.19,.82-6.54,2.12-9.73Z"/><path d="M711.9,195.99c7.65,2.65,13.77,1.17,20.02-3.86,.3-.24-.13-.66-.42-.42-6.07,4.89-11.99,6.29-19.44,3.71-.37-.13-.52,.45-.16,.58h0Z"/><path class="cls-44" d="M648.42,292.39c1.96-27.54,14.45-35.71,14.33-39.3-.44,3.9-16.65,24.98-17.63,37.1,.96-.35,2.79,2.62,3.3,2.2Z"/><path d="M712.22,195.52c7.24,2.64,13.57,1.3,19.53-3.56,.06-.05-.03-.13-.08-.08-5.93,4.83-12.24,6.15-19.41,3.53-.07-.03-.1,.09-.03,.12h0Z"/></g></svg>