<?xml version="1.0" encoding="UTF-8"?><svg id="Calque_2" xmlns="http://www.w3.org/2000/svg" viewBox="0 0 441.16 111.28"><defs><style>.cls-1{font-family:MontserratRoman-Regular, Montserrat;font-size:40px;}.cls-1,.cls-2{fill:#4c86c6;font-variation-settings:'wght' 400;}.cls-1,.cls-2,.cls-3{stroke:#4c86c6;stroke-miterlimit:10;}.cls-4{letter-spacing:-.01em;}.cls-5{letter-spacing:0em;}.cls-6{letter-spacing:0em;}.cls-2{font-family:MontserratItalic-Italic, Montserrat;font-size:27px;font-style:italic;stroke-width:.5px;}.cls-3{fill:#fff;stroke-width:3px;}.cls-7{letter-spacing:-.01em;}.cls-8{letter-spacing:0em;}.cls-9{letter-spacing:-.01em;}.cls-10{letter-spacing:-.01em;}</style></defs><g id="Calque_1-2"><path class="cls-3" d="m26.17,108.72c.29.64-.51,1.21-1.01.73C18.21,102.77.38,82.7,1.56,52.77,2.62,25.69,18.56,8.08,25.19,1.82c.51-.48,1.3.09,1.01.73-4.89,10.62-11.45,28.77-11.65,52.04-.21,24.35,6.64,43.31,11.62,54.15Z"/><path class="cls-3" d="m125.83,108.93c-.27.59.47,1.13.94.67,6.82-6.52,24.95-26.67,23.77-56.84-1.07-27.3-17.26-44.98-23.8-51.11-.47-.45-1.21.08-.94.67,4.9,10.6,11.54,28.82,11.74,52.24.21,24.5-6.73,43.56-11.72,54.36Z"/><path class="cls-3" d="m44.74,20.42c-1.22.41-2.15-1.11-1.23-2.01,5.04-4.95,15.5-12.93,30.62-12.93s25.57,7.97,30.62,12.93c.92.9-.02,2.42-1.24,2.01-6.71-2.26-15.73-4.44-26.49-4.78-13.45-.42-24.58,2.2-32.27,4.78Z"/><path class="cls-3" d="m44.72,89.5c-1.21-.41-2.14,1.1-1.23,2,5.04,4.95,15.5,12.95,30.63,12.95s25.59-7.99,30.63-12.94c.91-.9-.02-2.41-1.23-2-6.72,2.26-15.74,4.45-26.51,4.79-13.46.42-24.59-2.2-32.29-4.79Z"/><rect class="cls-3" x="66.66" y="45.57" width="18.78" height="18.78" rx="9.39" ry="9.39"/><text class="cls-1" transform="translate(167.08 49.53) scale(1.05 1)"><tspan x="0" y="0">winent</tspan><tspan class="cls-7" x="140.4" y="0">r</tspan><tspan class="cls-5" x="155.92" y="0">etien</tspan></text><text class="cls-2" transform="translate(167.6 84.86) scale(.85 1)"><tspan x="0" y="0">p</tspan><tspan class="cls-10" x="18.31" y="0">r</tspan><tspan class="cls-6" x="28.78" y="0">épa</tspan><tspan class="cls-9" x="81.7" y="0">r</tspan><tspan class="cls-8" x="92.18" y="0">e</tspan><tspan x="108.35" y="0">z </tspan><tspan class="cls-4" x="129.22" y="0">v</tspan><tspan x="143.45" y="0">ous à </tspan><tspan class="cls-9" x="224.15" y="0">r</tspan><tspan x="234.63" y="0">éussir </tspan></text></g></svg>