<?xml version="1.0" encoding="UTF-8"?><svg id="Calque_2" xmlns="http://www.w3.org/2000/svg" viewBox="0 0 439.4 111.93"><defs><style>.cls-1,.cls-2,.cls-3{fill:#fff;}.cls-2{font-family:MontserratRoman-Regular, Montserrat;font-size:40px;}.cls-2,.cls-3{font-variation-settings:'wght' 400;}.cls-4{letter-spacing:0em;}.cls-5{letter-spacing:0em;}.cls-6{letter-spacing:-.02em;}.cls-7{letter-spacing:-.01em;}.cls-8{letter-spacing:0em;}.cls-9{letter-spacing:-.01em;}.cls-10{letter-spacing:-.01em;}.cls-3{font-family:MontserratItalic-Italic, Montserrat;font-size:27px;font-style:italic;}</style></defs><g id="Calque_1-2"><path class="cls-1" d="m26.05,111.93C22.98,109.31-1.31,87.85.06,53.08,1.29,21.69,22.5,3.02,26.05,0c-4.93,10.04-12.78,29.39-13,54.88-.23,26.69,8.03,46.92,13,57.05Z"/><path class="cls-1" d="m123.05,111.93c3.07-2.62,27.36-24.08,26-58.85C147.81,21.69,126.6,3.02,123.05,0c4.93,10.04,12.78,29.39,13,54.88.23,26.69-8.03,46.92-13,57.05Z"/><path class="cls-1" d="m38.69,22.39c1.38-1.78,13.33-16.61,33.94-16.61s32.56,14.83,33.94,16.61c-6.91-2.74-17.63-6.03-31.05-6.45-16.4-.51-29.34,3.49-36.83,6.45Z"/><path class="cls-1" d="m38.69,88.14c1.38,1.78,13.33,16.61,33.94,16.61s32.56-14.83,33.94-16.61c-6.91,2.74-17.63,6.03-31.05,6.45-16.4.51-29.34-3.49-36.83-6.45Z"/><rect class="cls-1" x="65.16" y="45.87" width="18.78" height="18.78" rx="9.39" ry="9.39"/><text class="cls-2" transform="translate(165.58 49.83) scale(1.05 1)"><tspan x="0" y="0">winent</tspan><tspan class="cls-7" x="140.4" y="0">r</tspan><tspan x="155.92" y="0">etien</tspan></text><text class="cls-3" transform="translate(166.1 85.16) scale(.85 1)"><tspan x="0" y="0">p</tspan><tspan class="cls-10" x="18.31" y="0">r</tspan><tspan class="cls-5" x="28.78" y="0">épa</tspan><tspan class="cls-9" x="81.7" y="0">r</tspan><tspan class="cls-8" x="92.18" y="0">e</tspan><tspan x="108.35" y="0">z </tspan><tspan class="cls-6" x="129.22" y="0">v</tspan><tspan class="cls-4" x="143.45" y="0">ous à </tspan><tspan class="cls-9" x="224.15" y="0">r</tspan><tspan x="234.63" y="0">éussir </tspan></text></g></svg>