<svg width="136" height="136" viewBox="0 0 136 136" fill="none" xmlns="http://www.w3.org/2000/svg">
<circle cx="68" cy="68" r="66.5" fill="#C1EAF8" stroke="#2873C9" stroke-width="3"/>
<g filter="url(#filter0_d_805_128)">
<path d="M96.32 32.05H32V102.588L38.08 109H96.32V32.05Z" fill="white"/>
<path d="M96.32 32.05H32V102.588L38.08 109H96.32V32.05Z" stroke="#2873C9" stroke-width="2" stroke-linecap="round" stroke-linejoin="round"/>
</g>
<g filter="url(#filter1_d_805_128)">
<path d="M100.16 28H35.8398V98.5375L41.9198 104.95H100.16V28Z" fill="white"/>
<path d="M100.16 28H35.8398V98.5375L41.9198 104.95H100.16V28Z" stroke="#2873C9" stroke-width="4" stroke-linecap="round" stroke-linejoin="round"/>
</g>
<path d="M93.4705 56.2487L106.88 40.1499L112 46.2249L98.3467 62.9312L91.52 64.4499L93.4705 56.2487Z" fill="#2873C9"/>
<path d="M93.4705 56.2487L106.88 40.1499L112 46.2249L98.3467 62.9312M93.4705 56.2487L91.52 64.4499L98.3467 62.9312M93.4705 56.2487L98.3467 62.9312" stroke="#2873C9" stroke-width="2" stroke-linecap="round" stroke-linejoin="round"/>
<line x1="41.6001" y1="57.875" x2="74.8801" y2="57.875" stroke="#2873C9"/>
<line x1="41.6001" y1="46.3999" x2="74.8801" y2="46.3999" stroke="#2873C9"/>
<line x1="41.6001" y1="39.6499" x2="74.8801" y2="39.6499" stroke="#2873C9"/>
<line x1="41.6001" y1="77.45" x2="74.8801" y2="77.45" stroke="#2873C9"/>
<path d="M41.5998 98.875H35.8398L41.5998 104.95V98.875Z" fill="#FFFDFD" stroke="#2873C9" stroke-width="2" stroke-linecap="round" stroke-linejoin="round"/>
<defs>
<filter id="filter0_d_805_128" x="27" y="31.05" width="74.3198" height="86.95" filterUnits="userSpaceOnUse" color-interpolation-filters="sRGB">
<feFlood flood-opacity="0" result="BackgroundImageFix"/>
<feColorMatrix in="SourceAlpha" type="matrix" values="0 0 0 0 0 0 0 0 0 0 0 0 0 0 0 0 0 0 127 0" result="hardAlpha"/>
<feOffset dy="4"/>
<feGaussianBlur stdDeviation="2"/>
<feComposite in2="hardAlpha" operator="out"/>
<feColorMatrix type="matrix" values="0 0 0 0 0 0 0 0 0 0 0 0 0 0 0 0 0 0 0.25 0"/>
<feBlend mode="normal" in2="BackgroundImageFix" result="effect1_dropShadow_805_128"/>
<feBlend mode="normal" in="SourceGraphic" in2="effect1_dropShadow_805_128" result="shape"/>
</filter>
<filter id="filter1_d_805_128" x="29.8398" y="26" width="76.3198" height="88.95" filterUnits="userSpaceOnUse" color-interpolation-filters="sRGB">
<feFlood flood-opacity="0" result="BackgroundImageFix"/>
<feColorMatrix in="SourceAlpha" type="matrix" values="0 0 0 0 0 0 0 0 0 0 0 0 0 0 0 0 0 0 127 0" result="hardAlpha"/>
<feOffset dy="4"/>
<feGaussianBlur stdDeviation="2"/>
<feComposite in2="hardAlpha" operator="out"/>
<feColorMatrix type="matrix" values="0 0 0 0 0 0 0 0 0 0 0 0 0 0 0 0 0 0 0.25 0"/>
<feBlend mode="normal" in2="BackgroundImageFix" result="effect1_dropShadow_805_128"/>
<feBlend mode="normal" in="SourceGraphic" in2="effect1_dropShadow_805_128" result="shape"/>
</filter>
</defs>
</svg>
