<svg width="136" height="136" viewBox="0 0 136 136" fill="none" xmlns="http://www.w3.org/2000/svg">
<circle cx="68" cy="68" r="66.5" fill="#C1EAF8" stroke="#2873C9" stroke-width="3"/>
<path d="M110 76.9513C109.869 76.9513 109.807 77.0609 109.771 76.9513H73.0001C73.0002 72.5204 72.9998 77.1544 73.0002 64.8344C73.0004 59.4121 77.7712 56.8974 84.0732 55C89.5 56.6062 91.5 57.1416 98.2221 55C103.001 56.513 108.68 58.026 109.152 63.3214C109.779 74.578 109.669 76.6413 109.771 76.9513H110Z" fill="white"/>
<path d="M110 76.9513C109.5 76.9513 110 78.5575 109.152 63.3214C108.68 58.026 103.001 56.513 98.2221 55C91.5 57.1416 89.5 56.6062 84.0732 55C77.7712 56.8974 73.0004 59.4121 73.0002 64.8344C72.9998 77.1544 73.0002 72.5204 73.0001 76.9513H110Z" stroke="#2873C9" stroke-width="3" stroke-linecap="round"/>
<mask id="path-4-inside-1_805_132" fill="white">
<rect x="14" y="75" width="107" height="21" rx="2"/>
</mask>
<rect x="14" y="75" width="107" height="21" rx="2" fill="white" stroke="#2873C9" stroke-width="6" mask="url(#path-4-inside-1_805_132)"/>
<path d="M52.5 50C52.5 54.6944 48.6944 58.5 44 58.5C39.3056 58.5 35.5 54.6944 35.5 50C35.5 45.3056 39.3056 41.5 44 41.5C48.6944 41.5 52.5 45.3056 52.5 50Z" fill="white" stroke="#2873C9" stroke-width="3"/>
<path d="M98.5 44.5C98.5 48.2864 95.2241 51.5 91 51.5C86.7759 51.5 83.5 48.2864 83.5 44.5C83.5 40.7136 86.7759 37.5 91 37.5C95.2241 37.5 98.5 40.7136 98.5 44.5Z" fill="white" stroke="#2873C9" stroke-width="3"/>
<path d="M64.3092 71.1951V96.1219C64.3092 97.2086 63.4414 98.093 62.3549 98.1179L25.8221 98.9532C24.7 98.9789 23.7764 98.0758 23.7764 96.9533C23.7763 90.8109 23.7765 87.0196 23.7765 73.0488C23.7764 66.6383 28.766 63.5399 35.4726 61.2412C35.9344 61.083 36.44 61.1086 36.8905 61.2967C42.0604 63.455 45.0684 63.8504 51.3423 61.2965C51.8015 61.1096 52.3134 61.0896 52.7823 61.2503L52.8579 61.2763C58.0291 63.0488 63.8058 65.029 64.3092 71.1951Z" fill="white" stroke="#2873C9" stroke-width="3" stroke-linecap="round"/>
<path d="M68.7823 37.8506C79.217 37.0847 84.8712 27.466 69.7142 23.4699C58.7203 21.2574 50.4283 27.1932 55.5527 34.2559L54.1552 38L58.9998 36.4683C62.6553 37.6083 64.8078 37.8713 68.7823 37.8506Z" fill="#FFFEFE" stroke="#2873C9" stroke-width="3" stroke-linecap="round" stroke-linejoin="round"/>
</svg>
