<svg width="136" height="136" viewBox="0 0 136 136" fill="none" xmlns="http://www.w3.org/2000/svg">
<circle cx="68" cy="68" r="66.5" fill="#C1EAF8" stroke="#2873C9" stroke-width="3"/>
<path d="M64.9456 29.1802L67.0125 47.0243C67.0398 47.2603 67.3825 47.2603 67.4098 47.0243L69.4767 29.1802C69.4884 29.0793 69.5738 29.0032 69.6754 29.0032H72.2869C72.4537 29.0032 72.5472 28.8111 72.4443 28.6799L67.3686 22.201C67.2885 22.0987 67.1338 22.0987 67.0537 22.201L61.9779 28.6799C61.8751 28.8111 61.9686 29.0032 62.1354 29.0032H64.7469C64.8485 29.0032 64.9339 29.0793 64.9456 29.1802Z" fill="white" stroke="#2873C9" stroke-width="3"/>
<path d="M92.9943 38.3528L82.4597 53.4965C82.3243 53.6911 82.6073 53.8913 82.7844 53.7262L96.5614 40.8763C96.637 40.8059 96.7575 40.7972 96.841 40.8563L98.8932 42.3081C99.0265 42.4024 99.225 42.3172 99.2335 42.162L99.6675 34.2301C99.6746 34.1008 99.5405 34.006 99.4031 34.0431L90.9727 36.3181C90.8078 36.3626 90.7635 36.5569 90.8968 36.6512L92.9491 38.103C93.0325 38.1621 93.052 38.2698 92.9943 38.3528Z" fill="#2873C9" stroke="#2873C9" stroke-width="3"/>
<path d="M42.0057 38.3528L52.5403 53.4965C52.6757 53.6911 52.3927 53.8913 52.2156 53.7262L38.4386 40.8763C38.363 40.8059 38.2425 40.7972 38.159 40.8563L36.1068 42.3081C35.9735 42.4024 35.775 42.3172 35.7665 42.162L35.3325 34.2301C35.3254 34.1008 35.4595 34.006 35.5969 34.0431L44.0273 36.3181C44.1922 36.3626 44.2365 36.5569 44.1032 36.6512L42.0509 38.103C41.9675 38.1621 41.948 38.2698 42.0057 38.3528Z" fill="white" stroke="#2873C9" stroke-width="3"/>
<path d="M76.7236 63C76.7236 67.6944 72.9181 71.5 68.2236 71.5C63.5292 71.5 59.7236 67.6944 59.7236 63C59.7236 58.3056 63.5292 54.5 68.2236 54.5C72.9181 54.5 76.7236 58.3056 76.7236 63Z" fill="white" stroke="#2873C9" stroke-width="3"/>
<path d="M88.5329 84.1951V109.122C88.5329 110.209 87.6651 111.093 86.5786 111.118L50.0458 111.953C48.9236 111.979 48.0001 111.076 48 109.953C47.9999 103.811 48.0001 100.02 48.0001 86.0488C48.0001 79.6383 52.9896 76.5399 59.6962 74.2412C60.158 74.083 60.6636 74.1086 61.1141 74.2967C66.284 76.455 69.292 76.8504 75.566 74.2965C76.0251 74.1096 76.537 74.0896 77.0059 74.2503L77.0816 74.2763C82.2528 76.0488 88.0294 78.029 88.5329 84.1951Z" fill="white" stroke="#2873C9" stroke-width="3" stroke-linecap="round"/>
</svg>
