<svg width="136" height="136" viewBox="0 0 136 136" fill="none" xmlns="http://www.w3.org/2000/svg">
<circle cx="68" cy="68" r="66.5" fill="#C1EAF8" stroke="#2873C9" stroke-width="3"/>
<path d="M67.8202 39.4503L49.8465 41.2254C49.6102 41.2488 49.6158 41.5928 49.853 41.6229L67.8928 43.9096C67.9941 43.9224 68.0719 44.009 68.0736 44.1108L68.1153 46.6776C68.118 46.8431 68.3092 46.9397 68.4392 46.8411L74.9059 41.939C75.0095 41.8605 75.007 41.7026 74.9007 41.621L68.2715 36.5329C68.1383 36.4306 67.9501 36.5218 67.9528 36.6873L67.9946 39.2541C67.9962 39.3559 67.9212 39.4403 67.8202 39.4503Z" fill="#2873C9" stroke="#2873C9"/>
<path d="M49.7617 57.9341C49.7617 62.4935 46.294 66.0394 42.1963 66.0394C38.0986 66.0394 34.6309 62.4935 34.6309 57.9341C34.6309 53.3748 38.0986 49.8289 42.1963 49.8289C46.294 49.8289 49.7617 53.3748 49.7617 57.9341Z" fill="white" stroke="#2873C9" stroke-width="3"/>
<path d="M60.6075 78.2927V102.161C60.6075 103.246 59.7414 104.131 58.656 104.157L25.9113 104.95C24.7881 104.978 23.8628 104.073 23.8628 102.95C23.8627 97.0991 23.8629 93.4285 23.8629 80.0732C23.8629 73.9513 28.334 70.9741 34.3607 68.77C34.8445 68.5931 35.3801 68.6219 35.8516 68.8292C40.4488 70.8509 43.172 71.2158 48.7488 68.8294C49.2296 68.6236 49.7727 68.6006 50.2644 68.7791C54.9426 70.4782 60.1524 72.3859 60.6075 78.2927Z" fill="white" stroke="#2873C9" stroke-width="3" stroke-linecap="round"/>
<path d="M88.2383 36.8685C88.2383 41.1494 91.6478 44.579 95.8037 44.579C99.9596 44.579 103.369 41.1494 103.369 36.8685C103.369 32.5875 99.9596 29.158 95.8037 29.158C91.6478 29.158 88.2383 32.5875 88.2383 36.8685Z" fill="white" stroke="#2873C9" stroke-width="3"/>
<path d="M77.3925 56.3902V79.1935C77.3925 80.28 78.2598 81.1665 79.346 81.1917L112.091 81.9525C113.213 81.9785 114.137 81.0742 114.137 79.9514C114.137 74.389 114.137 70.8411 114.137 58.0976C114.137 52.2183 109.652 49.3637 103.612 47.2493C103.144 47.0856 102.63 47.1123 102.174 47.305C97.5539 49.256 94.8297 49.6095 89.2249 47.305C88.7597 47.1137 88.2387 47.0924 87.7636 47.2579C83.0782 48.8897 77.8485 50.7149 77.3925 56.3902Z" fill="#2873C9" stroke="#2873C9" stroke-width="3" stroke-linecap="round"/>
</svg>
