<?xml version="1.0" encoding="UTF-8"?><svg id="Calque_2" xmlns="http://www.w3.org/2000/svg" viewBox="0 0 438.53 110.62"><defs><style>.cls-1,.cls-2,.cls-3,.cls-4{fill:#2873c9;}.cls-1,.cls-2,.cls-4{font-family:MontserratRoman-Regular, Montserrat;font-variation-settings:'wght' 400;}.cls-5{letter-spacing:-.01em;}.cls-2{letter-spacing:0em;}.cls-6{fill:#63c6fa;stroke:#63c6fa;}.cls-6,.cls-3{stroke-miterlimit:10;}.cls-3{stroke:#2873c9;}.cls-7{font-size:42.29px;}.cls-8{font-family:Montserrat-ThinItalic, Montserrat;font-size:22px;font-variation-settings:'wght' 100;}.cls-9{letter-spacing:0em;}.cls-10{letter-spacing:-.02em;}.cls-4{letter-spacing:-.01em;}.cls-11{font-family:MontserratRoman-Medium, Montserrat;font-variation-settings:'wght' 500;}</style></defs><g id="Calque_1-2"><path class="cls-3" d="M25.06,1.34c.34-.3,.84,.07,.65,.48-5.19,10.91-13.05,31.54-12.12,58.2,.77,22.11,7.28,39.3,12.15,49.51,.19,.4-.3,.78-.64,.48-4.83-4.23-11.35-11.06-16.51-21C.51,73.46,.25,58.94,.59,52.02c.31-5.86,1.43-14,5-23C11.01,15.34,19.46,6.32,25.06,1.34Z"/><path class="cls-3" d="M124.74,.61c-.34-.3-.84,.07-.65,.48,5.19,10.91,13.05,31.54,12.12,58.2-.77,22.11-7.28,39.3-12.15,49.51-.19,.4,.3,.78,.64,.48,4.83-4.23,11.35-11.06,16.51-21,8.07-15.55,8.33-30.08,8-37-.31-5.86-1.43-14-5-23-5.43-13.67-13.88-22.69-19.47-27.68Z"/><path class="cls-3" d="M40.04,20.53c-.1,.11,.02,.29,.16,.23,6.66-2.87,18.37-6.87,33.39-6.73,14.3,.13,25.46,3.95,31.98,6.77,.14,.06,.26-.1,.16-.22-2.19-2.69-5.79-6.44-11.15-9.56-8.99-5.24-17.67-5.64-21.75-5.57-4.74,.22-13.33,1.29-22.25,6.57-4.65,2.75-8.11,5.88-10.55,8.51Z"/><path class="cls-3" d="M105.89,88.67c.1-.11-.02-.29-.16-.23-6.66,2.87-18.37,6.87-33.39,6.73-14.3-.13-25.46-3.95-31.98-6.77-.14-.06-.26,.1-.16,.22,2.19,2.69,5.79,6.44,11.15,9.56,8.99,5.24,17.67,5.64,21.75,5.57,4.74-.22,13.33-1.29,22.25-6.57,4.65-2.75,8.11-5.88,10.55-8.51Z"/><rect class="cls-6" x="65.59" y="46.02" width="18" height="18" rx="9" ry="9"/><text class="cls-7" transform="translate(170.26 55.47) scale(.98 1)"><tspan class="cls-11" x="0" y="0">win</tspan><tspan class="cls-2" x="78.62" y="0">ent</tspan><tspan class="cls-4" x="149.93" y="0">r</tspan><tspan class="cls-1" x="166.34" y="0">etien</tspan></text><text class="cls-8" transform="translate(170.11 83.81) scale(1.01 1)"><tspan x="0" y="0">p</tspan><tspan class="cls-10" x="14.76" y="0">r</tspan><tspan x="22.86" y="0">épa</tspan><tspan class="cls-10" x="65.34" y="0">r</tspan><tspan class="cls-9" x="73.44" y="0">e</tspan><tspan x="86.28" y="0">z </tspan><tspan class="cls-10" x="102.58" y="0">v</tspan><tspan x="113.43" y="0">ous a </tspan><tspan class="cls-5" x="177.41" y="0">r</tspan><tspan x="185.5" y="0">éussir </tspan></text></g></svg>